<?xml version="1.0" encoding="utf-8"?>
<!-- Generator: Adobe Illustrator 16.0.4, SVG Export Plug-In . SVG Version: 6.00 Build 0)  -->
<!DOCTYPE svg PUBLIC "-//W3C//DTD SVG 1.1//EN" "http://www.w3.org/Graphics/SVG/1.1/DTD/svg11.dtd">
<svg version="1.1" id="Layer_1" xmlns="http://www.w3.org/2000/svg" xmlns:xlink="http://www.w3.org/1999/xlink" x="0px" y="0px"
	 width="73px" height="66px" viewBox="0 0 73 66" enable-background="new 0 0 73 66" xml:space="preserve">
<filter  width="200%" height="200%" id="filter-1" filterUnits="objectBoundingBox" x="-50%" y="-50%">
	<feOffset  dy="2" dx="0" in="SourceAlpha" result="shadowOffsetOuter1"></feOffset>
	<feGaussianBlur  in="shadowOffsetOuter1" stdDeviation="2" result="shadowBlurOuter1"></feGaussianBlur>
	
		<feColorMatrix  type="matrix" values="0 0 0 0 0   0 0 0 0 0   0 0 0 0 0  0 0 0 0.35 0" in="shadowBlurOuter1" result="shadowMatrixOuter1">
		</feColorMatrix>
	<feMerge>
		<feMergeNode  in="shadowMatrixOuter1"></feMergeNode>
		<feMergeNode  in="SourceGraphic"></feMergeNode>
	</feMerge>
</filter>
<g id="Welcome" filter="url(#filter-1)">
	<g id="Energy-and-Minerals-Split-View-Color-Map_2_" transform="translate(-778.000000, -585.000000)">
		<g id="Energy-and-Minerals-Content_2_" transform="translate(762.000000, 237.000000)">
			
				<g id="Renewable-Energy-Leases_2_" transform="translate(52.500000, 379.000000) rotate(-270.000000) translate(-52.500000, -379.000000) translate(24.000000, 347.000000)">
				<g id="Rectangle-859_18_">
					
						<rect x="22" y="6" transform="matrix(2.578893e-06 1 -1 2.578893e-06 35.9999 -16)" opacity="0.7642" fill="#EA660C" enable-background="new    " width="8" height="8"/>
					
						<rect x="22" y="6" transform="matrix(2.578893e-06 1 -1 2.578893e-06 35.9999 -16)" fill="none" stroke="#FFFFFF" width="8" height="8"/>
				</g>
				<g id="Rectangle-859_16_">
					
						<rect x="1" y="27" transform="matrix(2.578893e-06 1 -1 2.578893e-06 36 25.9999)" opacity="0.7642" fill="#EA660C" enable-background="new    " width="8" height="8"/>
					
						<rect x="1" y="27" transform="matrix(2.578893e-06 1 -1 2.578893e-06 36 25.9999)" fill="none" stroke="#FFFFFF" width="8" height="8"/>
				</g>
				<g id="Rectangle-859_15_">
					
						<rect x="8" y="20" transform="matrix(2.578893e-06 1 -1 2.578893e-06 36 11.9999)" opacity="0.7642" fill="#EA660C" enable-background="new    " width="8" height="8"/>
					
						<rect x="8" y="20" transform="matrix(2.578893e-06 1 -1 2.578893e-06 36 11.9999)" fill="none" stroke="#FFFFFF" width="8" height="8"/>
				</g>
				<g id="Rectangle-859_14_">
					
						<rect x="8" y="27" transform="matrix(2.578893e-06 1 -1 2.578893e-06 43 18.9999)" opacity="0.7642" fill="#EA660C" enable-background="new    " width="8" height="8"/>
					
						<rect x="8" y="27" transform="matrix(2.578893e-06 1 -1 2.578893e-06 43 18.9999)" fill="none" stroke="#FFFFFF" width="8" height="8"/>
				</g>
				<g id="Rectangle-859_13_">
					
						<rect x="15" y="13" transform="matrix(2.578893e-06 1 -1 2.578893e-06 36 -2)" opacity="0.7642" fill="#EA660C" enable-background="new    " width="8" height="8"/>
					
						<rect x="15" y="13" transform="matrix(2.578893e-06 1 -1 2.578893e-06 36 -2)" fill="none" stroke="#FFFFFF" width="8" height="8"/>
				</g>
				<g id="Rectangle-859_12_">
					
						<rect x="15" y="20" transform="matrix(2.578893e-06 1 -1 2.578893e-06 43 4.9999)" opacity="0.7642" fill="#EA660C" enable-background="new    " width="8" height="8"/>
					
						<rect x="15" y="20" transform="matrix(2.578893e-06 1 -1 2.578893e-06 43 4.9999)" fill="none" stroke="#FFFFFF" width="8" height="8"/>
				</g>
				<g id="Rectangle-859_11_">
					
						<rect x="15" y="27" transform="matrix(2.578893e-06 1 -1 2.578893e-06 50 11.9999)" opacity="0.7642" fill="#EA660C" enable-background="new    " width="8" height="8"/>
					
						<rect x="15" y="27" transform="matrix(2.578893e-06 1 -1 2.578893e-06 50 11.9999)" fill="none" stroke="#FFFFFF" width="8" height="8"/>
				</g>
				<g id="Rectangle-859_10_">
					
						<rect x="29" y="-1" transform="matrix(2.578893e-06 1 -1 2.578893e-06 35.9999 -30)" opacity="0.7642" fill="#EA660C" enable-background="new    " width="8" height="8"/>
					
						<rect x="29" y="-1" transform="matrix(2.578893e-06 1 -1 2.578893e-06 35.9999 -30)" fill="none" stroke="#FFFFFF" width="8" height="8"/>
				</g>
				<g id="Rectangle-859_9_">
					
						<rect x="36" y="-1" transform="matrix(2.578893e-06 1 -1 2.578893e-06 42.9999 -37)" opacity="0.7642" fill="#EA660C" enable-background="new    " width="8" height="8"/>
					
						<rect x="36" y="-1" transform="matrix(2.578893e-06 1 -1 2.578893e-06 42.9999 -37)" fill="none" stroke="#FFFFFF" width="8" height="8"/>
				</g>
				<g id="Rectangle-859_8_">
					
						<rect x="43" y="-1" transform="matrix(2.578893e-06 1 -1 2.578893e-06 49.9999 -44)" opacity="0.7642" fill="#EA660C" enable-background="new    " width="8" height="8"/>
					
						<rect x="43" y="-1" transform="matrix(2.578893e-06 1 -1 2.578893e-06 49.9999 -44)" fill="none" stroke="#FFFFFF" width="8" height="8"/>
				</g>
				<g id="Rectangle-859_7_">
					
						<rect x="50" y="-1" transform="matrix(2.578893e-06 1 -1 2.578893e-06 56.9999 -51)" opacity="0.7642" fill="#EA660C" enable-background="new    " width="8" height="8"/>
					
						<rect x="50" y="-1" transform="matrix(2.578893e-06 1 -1 2.578893e-06 56.9999 -51)" fill="none" stroke="#FFFFFF" width="8" height="8"/>
				</g>
				<g id="Rectangle-859_6_">
					
						<rect x="22" y="13" transform="matrix(2.578893e-06 1 -1 2.578893e-06 42.9999 -9)" opacity="0.7642" fill="#EA660C" enable-background="new    " width="8" height="8"/>
					
						<rect x="22" y="13" transform="matrix(2.578893e-06 1 -1 2.578893e-06 42.9999 -9)" fill="none" stroke="#FFFFFF" width="8" height="8"/>
				</g>
				<g id="Rectangle-859_5_">
					
						<rect x="22" y="20" transform="matrix(2.578893e-06 1 -1 2.578893e-06 49.9999 -2.0001)" opacity="0.7642" fill="#EA660C" enable-background="new    " width="8" height="8"/>
					
						<rect x="22" y="20" transform="matrix(2.578893e-06 1 -1 2.578893e-06 49.9999 -2.0001)" fill="none" stroke="#FFFFFF" width="8" height="8"/>
				</g>
				<g id="Rectangle-859_4_">
					
						<rect x="22" y="27" transform="matrix(2.578893e-06 1 -1 2.578893e-06 56.9999 4.9999)" opacity="0.7642" fill="#EA660C" enable-background="new    " width="8" height="8"/>
					
						<rect x="22" y="27" transform="matrix(2.578893e-06 1 -1 2.578893e-06 56.9999 4.9999)" fill="none" stroke="#FFFFFF" width="8" height="8"/>
				</g>
				<g id="Rectangle-859_3_">
					
						<rect x="29" y="6" transform="matrix(2.578893e-06 1 -1 2.578893e-06 63.9999 -23.0001)" opacity="0.7642" fill="#EA660C" enable-background="new    " width="29" height="29"/>
					
						<rect x="29" y="6" transform="matrix(2.578893e-06 1 -1 2.578893e-06 63.9999 -23.0001)" fill="none" stroke="#FFFFFF" width="29" height="29"/>
				</g>
				<g id="Rectangle-859_2_">
					
						<rect x="1" y="34" transform="matrix(2.578893e-06 1 -1 2.578893e-06 64 32.9999)" opacity="0.7642" fill="#EA660C" enable-background="new    " width="29" height="29"/>
					
						<rect x="1" y="34" transform="matrix(2.578893e-06 1 -1 2.578893e-06 64 32.9999)" fill="none" stroke="#FFFFFF" width="29" height="29"/>
				</g>
				<g id="Rectangle-859_1_">
					
						<rect x="29" y="34" transform="matrix(2.578893e-06 1 -1 2.578893e-06 91.9999 4.9999)" opacity="0.7642" fill="#EA660C" enable-background="new    " width="29" height="29"/>
					
						<rect x="29" y="34" transform="matrix(2.578893e-06 1 -1 2.578893e-06 91.9999 4.9999)" fill="none" stroke="#FFFFFF" width="29" height="29"/>
				</g>
			</g>
		</g>
	</g>
</g>
</svg>
