<?xml version="1.0" encoding="UTF-8" standalone="no"?>
<svg width="43px" height="43px" viewBox="0 0 43 43" version="1.1" xmlns="http://www.w3.org/2000/svg" xmlns:xlink="http://www.w3.org/1999/xlink">
    <!-- Generator: Sketch 3.6.1 (26313) - http://www.bohemiancoding.com/sketch -->
    <title>Untitled</title>
    <desc>Created with Sketch.</desc>
    <defs>
        <path id="path-1" d="M2.27373675e-13,0.177340909 L21.6822273,0.177340909 L21.6822273,17.7954545 L2.27373675e-13,17.7954545"></path>
    </defs>
    <g id="Page-1" stroke="none" stroke-width="1" fill="none" fill-rule="evenodd">
        <g id="Unexpand-Icon" transform="translate(21.500000, 21.500000) rotate(90.000000) translate(-21.500000, -21.500000) ">
            <path d="M21.7346823,0 C10.0068882,0 0.500248496,9.51366435 0.500248496,21.2507455 C0.500248496,32.9865841 10.0068882,42.5002485 21.7346823,42.5002485 C33.4624763,42.5002485 42.9691161,32.9865841 42.9691161,21.2507455 C42.9691161,9.51366435 33.4624763,0 21.7346823,0 L21.7346823,0 Z" id="Page-1" fill="#46596D"></path>
            <g id="Icon" transform="translate(11.000000, 12.000000)">
                <path d="M10.071675,13.2998318 C10.2367432,13.5679909 10.5276068,13.7293773 10.841175,13.7293773 C11.1547432,13.7293773 11.4456068,13.5679909 11.610675,13.2998318 L18.8380841,1.55421818 C19.0994932,1.13019545 18.9675614,0.573627273 18.5423114,0.312218182 C18.1152205,0.0501954545 17.5604932,0.182740909 17.2990841,0.607990909 L10.841175,11.1024 L4.38265227,0.607990909 C4.12185682,0.182740909 3.564675,0.0501954545 3.14003864,0.312218182 C2.71478864,0.573627273 2.58285682,1.13019545 2.84426591,1.55421818 L10.071675,13.2998318 Z" id="Fill-1" fill="#FFFFFF"></path>
                <mask id="mask-2" fill="white">
                    <use xlink:href="#path-1"></use>
                </mask>
                <g id="Clip-4"></g>
                <path d="M20.778525,15.9881114 L0.903456818,15.9881114 C0.403956818,15.9881114 0.000184090909,16.3924977 0.000184090909,16.8926114 C0.000184090909,17.3908841 0.403956818,17.7952705 0.903456818,17.7952705 L20.778525,17.7952705 C21.278025,17.7952705 21.6824114,17.3908841 21.6824114,16.8926114 C21.6824114,16.3924977 21.278025,15.9881114 20.778525,15.9881114" id="Fill-3" fill="#FFFFFF" mask="url(#mask-2)"></path>
            </g>
        </g>
    </g>
</svg>