<?xml version="1.0" encoding="UTF-8" standalone="no"?>
<svg width="15px" height="17px" viewBox="0 0 15 17" version="1.1" xmlns="http://www.w3.org/2000/svg" xmlns:xlink="http://www.w3.org/1999/xlink">
    <!-- Generator: Sketch 3.8.1 (29687) - http://www.bohemiancoding.com/sketch -->
    <title>Basemap Icon - Map</title>
    <desc>Created with Sketch.</desc>
    <defs>
        <polygon id="path-1" points="0 0.59437037 14.600625 0.59437037 14.600625 17 0 17"></polygon>
    </defs>
    <g id="Welcome" stroke="none" stroke-width="1" fill="none" fill-rule="evenodd">
        <g id="Map-Input" transform="translate(-271.000000, -227.000000)">
            <g id="Find" transform="translate(20.000000, 119.000000)">
                <g id="Find-Tools" transform="translate(0.000000, 30.000000)">
                    <g id="Map-Tools-Fixed" transform="translate(0.000000, 41.000000)">
                        <g id="Basemap-Icon---Map" transform="translate(251.000000, 37.000000)">
                            <mask id="mask-2" fill="white">
                                <use xlink:href="#path-1"></use>
                            </mask>
                            <g id="Clip-2"></g>
                            <path d="M10.192875,4.22664074 L10.192875,15.2457889 L13.351,13.3512333 L13.351,2.33208519 L10.192875,4.22664074 Z M5.756625,13.3512333 L8.91475,15.2457889 L8.91475,4.22664074 L5.756625,2.33208519 L5.756625,13.3512333 Z M1.24975,4.24301111 L1.24975,15.2621593 L4.436,13.3512333 L4.436,2.33208519 L1.24975,4.24301111 Z M0.62475,16.999937 C0.5185,16.999937 0.41225,16.9722333 0.316,16.9174556 C0.121,16.8060111 -0.00025,16.5963444 -0.00025,16.3703074 L-0.00025,3.88538148 C-0.00025,3.66312222 0.116,3.45786296 0.305375,3.34452963 L4.741,0.683085185 C4.850375,0.617603704 4.97225,0.5899 5.096625,0.595566667 C5.216625,0.588640741 5.34225,0.617603704 5.451625,0.683085185 L9.554125,3.14367778 L13.656,0.683085185 C13.849125,0.567233333 14.08975,0.565974074 14.28475,0.676788889 C14.47975,0.788862963 14.601,0.9979 14.601,1.22393704 L14.601,13.7094926 C14.601,13.9311222 14.48475,14.1363815 14.295375,14.2503444 L9.962875,16.8494556 C9.936,16.8714926 9.90725,16.8916407 9.876625,16.9099 C9.747875,16.9835667 9.5985,17.0106407 9.45725,16.9879741 C9.381,16.9772704 9.306625,16.9527148 9.237875,16.9130481 C9.205375,16.8947889 9.17475,16.8740111 9.146625,16.8500852 L5.096625,14.4203444 L0.94475,16.9111593 C0.846,16.9703444 0.736,16.999937 0.62475,16.999937 L0.62475,16.999937 Z" id="Fill-1" fill="#FFFFFF" mask="url(#mask-2)"></path>
                        </g>
                    </g>
                </g>
            </g>
        </g>
    </g>
</svg>