<?xml version="1.0" encoding="UTF-8" standalone="no"?>
<svg width="77px" height="77px" viewBox="0 0 77 77" version="1.1" xmlns="http://www.w3.org/2000/svg" xmlns:xlink="http://www.w3.org/1999/xlink">
    <!-- Generator: Sketch 3.7.2 (28276) - http://www.bohemiancoding.com/sketch -->
    <title>Energy Facility Icon</title>
    <desc>Created with Sketch.</desc>
    <defs>
        <filter x="-50%" y="-50%" width="200%" height="200%" filterUnits="objectBoundingBox" id="filter-1">
            <feOffset dx="0" dy="2" in="SourceAlpha" result="shadowOffsetOuter1"></feOffset>
            <feGaussianBlur stdDeviation="2" in="shadowOffsetOuter1" result="shadowBlurOuter1"></feGaussianBlur>
            <feColorMatrix values="0 0 0 0 0   0 0 0 0 0   0 0 0 0 0  0 0 0 0.5 0" type="matrix" in="shadowBlurOuter1" result="shadowMatrixOuter1"></feColorMatrix>
            <feMerge>
                <feMergeNode in="shadowMatrixOuter1"></feMergeNode>
                <feMergeNode in="SourceGraphic"></feMergeNode>
            </feMerge>
        </filter>
        <polygon id="path-2" points="69.1269091 66.0016 69.1269091 69.1877455 0 69.1877455 0 66.0016 0 62.8154545 69.1269091 62.8154545"></polygon>
        <polygon id="path-4" points="0 69.1877455 69.1269091 69.1877455 69.1269091 -0.000254545454 0 -0.000254545454"></polygon>
    </defs>
    <g id="Welcome" stroke="none" stroke-width="1" fill="none" fill-rule="evenodd">
        <g id="Energy-and-Minerals-Split-View" transform="translate(-779.000000, -3823.000000)">
            <g id="Energy-Facility-Icon" filter="url(#filter-1)" transform="translate(783.000000, 3825.000000)">
                <polygon id="Fill-1" fill="#464E55" points="3.63363636 41.7642909 53.2776364 41.7642909 53.2776364 31.8179273 3.63363636 31.8179273"></polygon>
                <polygon id="Fill-2" fill="#464E55" points="54.7794545 41.7642909 65.4907273 41.7642909 65.4907273 28.1639273 54.7794545 28.1639273"></polygon>
                <polygon id="Fill-3" fill="#464E55" points="14.1565455 29.8463455 22.7843636 29.8832545 22.7843636 7.26561818 14.1565455 7.26561818"></polygon>
                <polygon id="Fill-4" fill="#464E55" points="37.7866364 29.8463455 46.4042727 29.8832545 46.4042727 7.26561818 37.7866364 7.26561818"></polygon>
                <path d="M31.1143636,52.2897455 L44.4932727,52.2897455 L44.4932727,46.4924727 L31.1143636,46.4924727 L31.1143636,52.2897455 Z M48.0925455,52.2897455 L61.4663636,52.2897455 L61.4663636,46.4924727 L48.0925455,46.4924727 L48.0925455,52.2897455 Z M8.17090909,54.1135636 L20.6296364,54.1135636 L20.6296364,62.8152 L65.4907273,62.8152 L65.4907273,43.5919273 L3.63363636,43.5919273 L3.63363636,62.8152 L8.17090909,62.8152 L8.17090909,54.1135636 Z" id="Fill-5" fill="#464E55"></path>
                <path d="M35.2834364,4.77832727 C36.5078,5.06214545 37.7219818,4.70450909 38.8852545,3.7156 C39.6883455,3.04232727 40.3794364,2.78523636 40.9458,2.96214545 C41.9830727,3.27523636 42.6639818,4.93487273 42.8421636,5.54323636 L44.4928909,5.07614545 C44.4025273,4.76178182 43.5676182,1.9656 41.4510727,1.31141818 C40.2878,0.965236364 39.0507091,1.32669091 37.7856182,2.40341818 C37.0359818,3.03214545 36.3499818,3.26250909 35.6741636,3.10850909 C34.2207091,2.77887273 33.0268909,0.751418182 32.6832545,0.000509090909 L31.1152545,0.696690909 C31.1763455,0.836690909 32.7010727,4.1916 35.2834364,4.77832727 L35.2834364,4.77832727 Z" id="Fill-6" fill="#464E55"></path>
                <path d="M10.3085818,4.77832727 C11.5316727,5.06214545 12.7420364,4.70450909 13.9104,3.7156 C14.7058545,3.04232727 15.3969455,2.78523636 15.9633091,2.96214545 C17.0056727,3.27523636 17.6865818,4.93487273 17.8647636,5.54323636 L19.5180364,5.07614545 C19.4314909,4.76178182 18.5864,1.9656 16.4736727,1.31141818 C15.3078545,0.965236364 14.0720364,1.32669091 12.8018545,2.40341818 C12.0585818,3.03214545 11.3751273,3.26250909 10.6967636,3.10850909 C9.24458182,2.77887273 8.04185455,0.751418182 7.70330909,0.000509090909 L6.14294545,0.696690909 C6.20403636,0.836690909 7.72112727,4.1916 10.3085818,4.77832727" id="Fill-8" fill="#464E55"></path>
                <mask id="mask-3" fill="white">
                    <use xlink:href="#path-2"></use>
                </mask>
                <g id="Clip-11"></g>
                <polygon id="Fill-10" fill="#464E55" mask="url(#mask-3)" points="65.4907273 62.8154545 65.4907273 64.6418182 20.6296364 64.6418182 20.6296364 67.2496364 8.17090909 67.2496364 8.17090909 64.6418182 3.63363636 64.6418182 3.63363636 62.8154545 0 62.8154545 0 69.188 69.1269091 69.188 69.1269091 62.8154545"></polygon>
                <mask id="mask-5" fill="white">
                    <use xlink:href="#path-4"></use>
                </mask>
                <g id="Clip-14"></g>
                <polygon id="Fill-13" fill="#464E55" mask="url(#mask-5)" points="8.17090909 64.6415636 20.6296364 64.6415636 20.6296364 62.8152 8.17090909 62.8152"></polygon>
            </g>
        </g>
    </g>
</svg>