<?xml version="1.0" encoding="UTF-8" standalone="no"?>
<svg width="26px" height="23px" viewBox="0 0 26 23" version="1.1" xmlns="http://www.w3.org/2000/svg" xmlns:xlink="http://www.w3.org/1999/xlink">
    <!-- Generator: Sketch 3.6.1 (26313) - http://www.bohemiancoding.com/sketch -->
    <title>Share Report</title>
    <desc>Created with Sketch.</desc>
    <defs></defs>
    <g id="Page-1" stroke="none" stroke-width="1" fill="none" fill-rule="evenodd">
        <g id="Share" fill="#424953">
            <path d="M11.332,22.5 C11.056,22.5 10.832,22.276 10.832,22 L10.832,16 C10.832,15.724 11.056,15.5 11.332,15.5 L17.332,15.5 C17.608,15.5 17.832,15.724 17.832,16 C17.832,16.276 17.608,16.5 17.332,16.5 L11.832,16.5 L11.832,22 C11.832,22.276 11.608,22.5 11.332,22.5" id="Fill-1"></path>
            <path d="M11.332,23 L1,23 C0.447,23 0,22.553 0,22 L0,1.472 C0,0.919 0.447,0.472 1,0.472 L17.332,0.472 C17.885,0.472 18.332,0.919 18.332,1.472 L18.332,5.541 C18.332,6.094 17.885,6.541 17.332,6.541 C16.779,6.541 16.332,6.094 16.332,5.541 L16.332,2.472 L2,2.472 L2,21 L10.918,21 L16.332,15.586 L16.332,11.291 C16.332,10.738 16.779,10.291 17.332,10.291 C17.885,10.291 18.332,10.738 18.332,11.291 L18.332,16 C18.332,16.266 18.227,16.52 18.039,16.707 L12.039,22.707 C11.852,22.895 11.598,23 11.332,23" id="Fill-3"></path>
            <path d="M20.1563,13.5518 C19.9003,13.5518 19.6443,13.4538 19.4493,13.2588 C19.0583,12.8678 19.0583,12.2358 19.4493,11.8448 L22.9313,8.3608 L19.4493,4.8768 C19.0583,4.4868 19.0583,3.8538 19.4493,3.4628 C19.8403,3.0728 20.4723,3.0728 20.8633,3.4628 L25.0523,7.6538 C25.4433,8.0438 25.4433,8.6768 25.0523,9.0678 L20.8633,13.2588 C20.6683,13.4538 20.4123,13.5518 20.1563,13.5518" id="Fill-5"></path>
            <path d="M11.332,9.3613 C10.78,9.3613 10.332,8.9143 10.332,8.3613 C10.332,7.8093 10.779,7.3613 11.332,7.3613 L23.207,7.3603 C23.759,7.3603 24.207,7.8073 24.207,8.3603 C24.207,8.9123 23.76,9.3603 23.207,9.3603 L11.332,9.3613 Z" id="Fill-7"></path>
        </g>
    </g>
</svg>