<?xml version="1.0" encoding="UTF-8" standalone="no"?>
<svg width="73px" height="71px" viewBox="0 0 73 71" version="1.1" xmlns="http://www.w3.org/2000/svg" xmlns:xlink="http://www.w3.org/1999/xlink">
    <!-- Generator: Sketch 3.7.2 (28276) - http://www.bohemiancoding.com/sketch -->
    <title>Buoy Icon</title>
    <desc>Created with Sketch.</desc>
    <defs>
        <path d="M67.3154818,74.7302313 C65.9165019,72.4022642 63.9090767,70.4547682 61.4997224,69.1005491 L61.4997224,56.5278071 C70.5131501,59.1309171 77.601315,66.0094903 80.2926859,74.7302313 L67.3154818,74.7302313 Z M81.4807085,82.483673 C81.4807085,83.7970506 81.3674578,85.0846335 81.1787065,86.3485713 L68.9565074,86.3485713 C69.2851567,85.1125777 69.4761285,83.8206957 69.4761285,82.483673 C69.4761285,81.1423512 69.2851567,79.8440205 68.9542868,78.6037278 L81.1787065,78.6037278 C81.3652372,79.8719647 81.4807085,81.1659963 81.4807085,82.483673 L81.4807085,82.483673 Z M61.4997224,108.439539 L61.4997224,95.8667969 C63.9157385,94.5082787 65.9231637,92.554334 67.3265848,90.2177687 L80.2993477,90.2177687 C77.612418,98.9471079 70.5198119,105.834279 61.4997224,108.439539 L61.4997224,108.439539 Z M57.5004164,109.269267 C56.1902606,109.451979 54.86234,109.578803 53.5011103,109.578803 C52.13766,109.578803 50.8097394,109.451979 49.4995836,109.269267 L49.4995836,97.4510183 C50.7808716,97.7713018 52.1176746,97.9604626 53.5011103,97.9604626 C54.884546,97.9604626 56.2191284,97.7713018 57.5004164,97.4531678 L57.5004164,109.269267 Z M45.5002776,108.439539 C36.4801881,105.834279 29.387582,98.9471079 26.7006523,90.2177687 L39.6734152,90.2177687 C41.0746157,92.554334 43.0842615,94.5104283 45.5002776,95.8689465 L45.5002776,108.439539 Z M25.5192915,82.483673 C25.5192915,81.1659963 25.6369834,79.8719647 25.8235141,78.6037278 L38.0479338,78.6037278 C37.7126227,79.8440205 37.5216509,81.1423512 37.5216509,82.483673 C37.5216509,83.8206957 37.7126227,85.1125777 38.0434926,86.3485713 L25.8212935,86.3485713 C25.6347628,85.0846335 25.5192915,83.7970506 25.5192915,82.483673 L25.5192915,82.483673 Z M45.5002776,56.5278071 L45.5002776,69.0983995 C43.0909233,70.4547682 41.0857187,72.4022642 39.6822976,74.7302313 L26.7050935,74.7302313 C29.3964644,66.0094903 36.4890705,59.1309171 45.5002776,56.5278071 L45.5002776,56.5278071 Z M65.4768225,82.4858225 C65.4768225,88.8957929 60.1140661,94.0912652 53.5011103,94.0912652 C46.8881545,94.0912652 41.5231775,88.8957929 41.5231775,82.4858225 C41.5231775,76.0758522 46.8881545,70.8803799 53.5011103,70.8803799 C60.1140661,70.8803799 65.4768225,76.0758522 65.4768225,82.4858225 L65.4768225,82.4858225 Z M49.4995836,55.6980792 C50.8097394,55.5153671 52.13766,55.3885434 53.5011103,55.3885434 C54.86234,55.3885434 56.1902606,55.5153671 57.5004164,55.6980792 L57.5004164,67.5141781 C56.2191284,67.1960441 54.884546,67.0068834 53.5011103,67.0068834 C52.1176746,67.0068834 50.7808716,67.1960441 49.4995836,67.5163277 L49.4995836,55.6980792 Z M53.5011103,51.5 C35.8273308,51.5 21.5,65.3689231 21.5,82.4750748 C21.5,99.583376 35.8273308,113.448 53.5011103,113.448 C71.1726692,113.448 85.5,99.583376 85.5,82.4750748 C85.5,65.3689231 71.1726692,51.5 53.5011103,51.5 L53.5011103,51.5 Z" id="path-1"></path>
        <filter x="-50%" y="-50%" width="200%" height="200%" filterUnits="objectBoundingBox" id="filter-2">
            <feOffset dx="0" dy="2" in="SourceAlpha" result="shadowOffsetOuter1"></feOffset>
            <feGaussianBlur stdDeviation="2" in="shadowOffsetOuter1" result="shadowBlurOuter1"></feGaussianBlur>
            <feColorMatrix values="0 0 0 0 0   0 0 0 0 0   0 0 0 0 0  0 0 0 0.144786005 0" type="matrix" in="shadowBlurOuter1"></feColorMatrix>
        </filter>
    </defs>
    <g id="Welcome" stroke="none" stroke-width="1" fill="none" fill-rule="evenodd">
        <g id="Energy-and-Minerals-Split-View" transform="translate(-1102.000000, -2941.000000)">
            <g id="Energy-and-Minerals-Data" transform="translate(761.000000, 186.000000)">
                <g id="Hydrokinetic-Leases" transform="translate(324.000000, 2706.000000)">
                    <g id="Buoy-Icon">
                        <use fill="black" fill-opacity="1" filter="url(#filter-2)" xlink:href="#path-1"></use>
                        <use fill="#F3C152" fill-rule="evenodd" xlink:href="#path-1"></use>
                    </g>
                </g>
            </g>
        </g>
    </g>
</svg>