<?xml version="1.0" encoding="utf-8"?>
<!-- Generator: oPie -->
<svg version="1.1" id="Layer_1" xmlns="http://www.w3.org/2000/svg" xmlns:xlink="http://www.w3.org/1999/xlink" x="0px" y="0px" width="20px" height="20px"
	 viewBox="0 0 20 20" style="enable-background:new 0 0 20 20;" xml:space="preserve">
<style type="text/css">
	.st0{fill-rule:evenodd;clip-rule:evenodd;fill:#4B4B4B;}
</style>
<path class="st0" d="M12.6,15.2c0,0.4-0.2,0.5-0.5,0.5H7.6c-0.4,0-0.5-0.2-0.5-0.5v-1.1c0-0.4,0.2-0.5,0.5-0.5h0.8V8.8H7.6
	c-0.4,0-0.5-0.2-0.5-0.5V7.1c0-0.4,0.2-0.5,0.5-0.5h3.1c0.4,0,0.5,0.2,0.5,0.5v6.5h0.8c0.4,0,0.5,0.2,0.5,0.5V15.2z M9.9,2.6
	c1,0,1.7,0.8,1.7,1.7c0,1-0.8,1.7-1.7,1.7S8.1,5.2,8.1,4.3C8.1,3.3,8.9,2.6,9.9,2.6z M16.4,3.6c-3.5-3.5-9.2-3.5-12.7,0
	c-3.5,3.5-3.5,9.2,0,12.7c3.5,3.5,9.2,3.5,12.7,0C19.9,12.9,19.9,7.2,16.4,3.6z"/>
</svg>
