<?xml version="1.0" encoding="UTF-8" standalone="no"?>
<svg class="infobutton" version="1.1" id="Layer_1"
	 xmlns="http://www.w3.org/2000/svg" xmlns:xlink="http://www.w3.org/1999/xlink" x="0px" y="0px" width="36.221px"
	 height="37.008px" viewBox="0 0 36.221 37.008" enable-background="new 0 0 36.221 37.008" xml:space="preserve">
    <!-- Generator: oPiE -->
    <title>Information</title>
    <desc>Created with Sketch.</desc>
    <defs></defs>
    <g>
    		<g class="infoicon-1">
    			<path class="infoicon-2" fill="none" stroke="#231F20" stroke-width="2" stroke-linecap="round" stroke-linejoin="round" stroke-miterlimit="10" d="
    				M33.157,17.736c0.147,8.371-6.783,15.278-15.156,15.422C9.63,33.305,2.988,26.636,2.843,18.263
    				C2.697,9.892,9.63,2.985,18.001,2.841C26.373,2.695,33.012,9.364,33.157,17.736z"/>

    				<line style="fill:none;stroke:#231F20;stroke-width:2;stroke-linecap:round;stroke-linejoin:round;stroke-miterlimit:10;" x1="18.001" y1="16.618" x2="18.001" y2="26.266"/>
    			<g>
    				<path style="fill:#231F20;" d="M18,13.173c0.009,0,0.019,0,0.025,0c0.761-0.014,1.367-0.641,1.354-1.401
						c-0.014-0.753-0.627-1.354-1.378-1.354c-0.008,0-0.017,0-0.023,0c-0.761,0.015-1.367,0.642-1.354,1.4
						C16.639,12.571,17.25,13.173,18,13.173L18,13.173z"/>
    			</g>
    		</g>
    	</g>
</svg>