<?xml version="1.0" encoding="UTF-8" standalone="no"?>
<svg width="15px" height="16px" viewBox="0 0 15 16" version="1.1" xmlns="http://www.w3.org/2000/svg" xmlns:xlink="http://www.w3.org/1999/xlink">
    <!-- Generator: Sketch 3.6.1 (26313) - http://www.bohemiancoding.com/sketch -->
    <title>Untitled</title>
    <desc>Created with Sketch.</desc>
    <defs>
        <path id="path-1" d="M0,0.42688 L14.6502222,0.42688 L14.6502222,15.36 L0,15.36 L0,0.42688 Z"></path>
    </defs>
    <g id="Page-1" stroke="none" stroke-width="1" fill="none" fill-rule="evenodd">
        <g id="Known-Areas-Icon">
            <path d="M14.0279378,2.77376 L5.62793778,2.77376 C5.28447111,2.77376 5.00571556,2.48768 5.00571556,2.13376 C5.00571556,1.77984 5.28447111,1.49376 5.62793778,1.49376 L14.0279378,1.49376 C14.3714044,1.49376 14.65016,1.77984 14.65016,2.13376 C14.65016,2.48768 14.3714044,2.77376 14.0279378,2.77376" id="Fill-1" fill="#FFFFFF"></path>
            <mask id="mask-2" fill="white">
                <use xlink:href="#path-1"></use>
            </mask>
            <g id="Clip-4"></g>
            <path d="M1.24444444,2.56 L2.07448889,2.56 L2.07448889,1.70688 L1.24444444,1.70688 L1.24444444,2.56 Z M2.69671111,3.84 L0.622222222,3.84 C0.278755556,3.84 0,3.55392 0,3.2 L0,1.06688 C0,0.71296 0.278755556,0.42688 0.622222222,0.42688 L2.69671111,0.42688 C3.04017778,0.42688 3.31893333,0.71296 3.31893333,1.06688 L3.31893333,3.2 C3.31893333,3.55392 3.04017778,3.84 2.69671111,3.84 L2.69671111,3.84 Z" id="Fill-3" fill="#FFFFFF" mask="url(#mask-2)"></path>
            <path d="M14.0279378,8.53376 L5.62793778,8.53376 C5.28447111,8.53376 5.00571556,8.24768 5.00571556,7.89376 C5.00571556,7.53984 5.28447111,7.25376 5.62793778,7.25376 L14.0279378,7.25376 C14.3714044,7.25376 14.65016,7.53984 14.65016,7.89376 C14.65016,8.24768 14.3714044,8.53376 14.0279378,8.53376" id="Fill-5" fill="#FFFFFF" mask="url(#mask-2)"></path>
            <path d="M1.24444444,8.32 L2.07448889,8.32 L2.07448889,7.46688 L1.24444444,7.46688 L1.24444444,8.32 Z M2.69671111,9.6 L0.622222222,9.6 C0.278755556,9.6 0,9.31392 0,8.96 L0,6.82688 C0,6.47296 0.278755556,6.18688 0.622222222,6.18688 L2.69671111,6.18688 C3.04017778,6.18688 3.31893333,6.47296 3.31893333,6.82688 L3.31893333,8.96 C3.31893333,9.31392 3.04017778,9.6 2.69671111,9.6 L2.69671111,9.6 Z" id="Fill-6" fill="#FFFFFF" mask="url(#mask-2)"></path>
            <path d="M14.0279378,14.29376 L5.62793778,14.29376 C5.28447111,14.29376 5.00571556,14.00768 5.00571556,13.65376 C5.00571556,13.29984 5.28447111,13.01376 5.62793778,13.01376 L14.0279378,13.01376 C14.3714044,13.01376 14.65016,13.29984 14.65016,13.65376 C14.65016,14.00768 14.3714044,14.29376 14.0279378,14.29376" id="Fill-7" fill="#FFFFFF" mask="url(#mask-2)"></path>
            <path d="M1.24444444,14.08 L2.07448889,14.08 L2.07448889,13.22688 L1.24444444,13.22688 L1.24444444,14.08 Z M2.69671111,15.36 L0.622222222,15.36 C0.278755556,15.36 0,15.07392 0,14.72 L0,12.58688 C0,12.23296 0.278755556,11.94688 0.622222222,11.94688 L2.69671111,11.94688 C3.04017778,11.94688 3.31893333,12.23296 3.31893333,12.58688 L3.31893333,14.72 C3.31893333,15.07392 3.04017778,15.36 2.69671111,15.36 L2.69671111,15.36 Z" id="Fill-8" fill="#FFFFFF" mask="url(#mask-2)"></path>
        </g>
    </g>
</svg>