<?xml version="1.0" encoding="UTF-8" standalone="no"?>
<svg width="24px" height="23px" viewBox="0 0 24 23" version="1.1" xmlns="http://www.w3.org/2000/svg" xmlns:xlink="http://www.w3.org/1999/xlink">
    <!-- Generator: Sketch 3.6.1 (26313) - http://www.bohemiancoding.com/sketch -->
    <title>Untitled</title>
    <desc>Created with Sketch.</desc>
    <defs>
        <path id="path-1" d="M0,0.531 L23.477,0.531 L23.477,23 L0,23 L0,0.531 Z"></path>
    </defs>
    <g id="Page-1" stroke="none" stroke-width="1" fill="none" fill-rule="evenodd">
        <g id="Print">
            <path d="M9.8008,6.8955 L4.4398,6.8955 C4.1628,6.8955 3.9398,6.6715 3.9398,6.3955 C3.9398,6.1195 4.1628,5.8955 4.4398,5.8955 L9.3008,5.8955 L9.3008,1.0315 C9.3008,0.7545 9.5248,0.5315 9.8008,0.5315 C10.0768,0.5315 10.3008,0.7545 10.3008,1.0315 L10.3008,6.3955 C10.3008,6.6715 10.0768,6.8955 9.8008,6.8955" id="Fill-1" fill="#424953"></path>
            <path d="M4.9395,10.3887 L18.5415,10.3887 L18.5415,1.5317 L10.0075,1.5317 L4.9395,6.6027 L4.9395,10.3887 Z M19.0415,11.3887 L4.4395,11.3887 C4.1635,11.3887 3.9395,11.1647 3.9395,10.8887 L3.9395,6.3957 C3.9395,6.2627 3.9925,6.1357 4.0855,6.0417 L9.4475,0.6777 C9.5415,0.5837 9.6685,0.5317 9.8005,0.5317 L19.0415,0.5317 C19.3175,0.5317 19.5415,0.7547 19.5415,1.0317 L19.5415,10.8887 C19.5415,11.1647 19.3175,11.3887 19.0415,11.3887 L19.0415,11.3887 Z" id="Fill-3" fill="#424953"></path>
            <mask id="mask-2" fill="white">
                <use xlink:href="#path-1"></use>
            </mask>
            <g id="Clip-6"></g>
            <path d="M4.939,22 L18.541,22 L18.541,18.058 L4.939,18.058 L4.939,22 Z M19.041,23 L4.439,23 C4.163,23 3.939,22.776 3.939,22.5 L3.939,17.558 C3.939,17.281 4.163,17.058 4.439,17.058 L19.041,17.058 C19.317,17.058 19.541,17.281 19.541,17.558 L19.541,22.5 C19.541,22.776 19.317,23 19.041,23 L19.041,23 Z" id="Fill-5" fill="#424953" mask="url(#mask-2)"></path>
            <path d="M23.4766,21.2744 L20.3476,21.2744 L20.3476,19.2744 L21.4766,19.2744 L21.4766,12.0194 L1.9996,12.0194 L1.9996,19.2744 L3.1306,19.2744 L3.1306,21.2744 L-0.0004,21.2744 L-0.0004,10.0194 L23.4766,10.0194 L23.4766,21.2744 Z" id="Fill-7" fill="#424953" mask="url(#mask-2)"></path>
            <path d="M17.6016,13.5039 C16.9516,13.5039 16.4256,14.0309 16.4256,14.6809 C16.4256,15.3299 16.9516,15.8579 17.6016,15.8579 C18.2516,15.8579 18.7796,15.3299 18.7796,14.6809 C18.7796,14.0309 18.2516,13.5039 17.6016,13.5039" id="Fill-8" fill="#424953" mask="url(#mask-2)"></path>
            <path d="M14.7246,14.9199 L8.5786,14.9199 C8.3016,14.9199 8.0786,14.6959 8.0786,14.4199 C8.0786,14.1439 8.3016,13.9199 8.5786,13.9199 L14.7246,13.9199 C15.0006,13.9199 15.2246,14.1439 15.2246,14.4199 C15.2246,14.6959 15.0006,14.9199 14.7246,14.9199" id="Fill-9" fill="#424953" mask="url(#mask-2)"></path>
        </g>
    </g>
</svg>