<?xml version="1.0" encoding="iso-8859-1"?>
<!-- Generator: Adobe Illustrator 16.0.4, SVG Export Plug-In . SVG Version: 6.00 Build 0)  -->
<!DOCTYPE svg PUBLIC "-//W3C//DTD SVG 1.1//EN" "http://www.w3.org/Graphics/SVG/1.1/DTD/svg11.dtd">
<svg version="1.1" id="Layer_1" xmlns="http://www.w3.org/2000/svg" xmlns:xlink="http://www.w3.org/1999/xlink" x="0px" y="0px"
	 width="73px" height="73px" viewBox="0 0 100 100" style="enable-background:new 0 0 100 100;" xml:space="preserve">
<polyline style="fill:#EA660C;" points="77.962,25.538 76.033,25.217 74.587,21.521 70.408,19.592 65.267,19.271 58.104,17.895 
	56.016,19.983 54.408,21.59 52.089,21.521 50.159,23.449 47.91,25.699 44.214,23.609 43.089,24.734 43.344,27.239 44.214,30.038 
	43.641,32.357 39.784,36.214 38.589,41.447 38.107,45.465 38.611,49.184 35.296,52.617 27.822,57.679 22.038,63.465 22.681,67.643 
	26.376,76.48 28.305,81.303 34.894,82.105 41.643,79.213 50.481,73.267 58.517,65.231 61.73,57.196 66.713,51.894 76.354,47.394 "/>
</svg>
