<?xml version="1.0" encoding="utf-8"?>
<!-- Generator: Adobe Illustrator 16.0.4, SVG Export Plug-In . SVG Version: 6.00 Build 0)  -->
<!DOCTYPE svg PUBLIC "-//W3C//DTD SVG 1.1//EN" "http://www.w3.org/Graphics/SVG/1.1/DTD/svg11.dtd">
<svg version="1.1" id="Layer_1" xmlns="http://www.w3.org/2000/svg" xmlns:xlink="http://www.w3.org/1999/xlink" x="0px" y="0px"
	 width="200px" height="200px" viewBox="0 0 200 200" enable-background="new 0 0 200 200" xml:space="preserve">
<path fill="#4B4B4B" d="M123.326,78.725c4.246,0.653,5.91,1.782,8.451,2.236c1.185,0.211,5.522,1.628,6.597,2.015
	c2.135,0.769,4.21,0.39,6.321,1.479c1.897,0.977,4.002,1.303,5.889,2.346c0.916,0.506,1.828,1.019,2.741,1.528
	c2.458,1.366,5.263,2.646,7.393,4.509c1.727,1.512,3.023,2.161,4.75,1.08c1.728-1.08,6.264-4.319,9.288-3.456
	c3.021,0.863,3.24,2.16,1.509,2.592c-1.728,0.431-1.728,1.295-1.509,2.592c-0.219,0.864-0.219,2.161-2.594,3.022
	c3.239,1.081,5.834,3.24,7.556,7.128c0.653,1.941,1.731,2.59,3.028,2.807c1.295,0.215,1.941,0.865,0.216,2.158
	c-1.73,0.865-9.721,1.297-17.277-8.205c-0.646-0.432-2.996-2.781-3.024-2.807c-0.481-0.461-6.055,1.342-7.017,1.418
	c-4.545,0.371-9.152-0.029-13.631,0.979c-2.104,0.471-4.18,0.9-6.344,0.75c-3.309-0.229-6.355-0.561-9.485,0.514
	c-2.124,0.729-4.416,0.941-6.616,1.393c-7.329,1.508-14.959,6.477-22.429,6.602c-5.957,0.102-11.896-0.053-17.841-0.51
	c-4.314-0.646-7.557-1.295-8.854-0.863c3.026,6.91,1.434,3.953,4.025,7.623c2.587,3.672,3.901,4.334,3.601,6.9
	c-3.252,0.326-4.963-0.537-6.337-1.127c-4.82-2.059-6.293-2.604-9.769-6.389c-1.164-1.268-1.754-2.863-2.612-4.326
	c-0.848-1.453-2.072-2.461-3.097-3.77c0.023,0.139,0.049,0.326,0.07,0.482c-1.617-1.24-3.415-2.332-5.321-3.064
	c-4.814-1.85-9.996-6.807-15.054-7.615c-2.539-0.407-5.078-0.873-7.543-1.627c-1.097-0.338-2.141-0.852-3.163-0.774
	c-0.784,0.057-1.583,0.644-2.404,0.578c-1.796-0.144-3.103-1.383-4.538-2.188c-1.176-0.662-3.234-1.847-1.849-3.406
	c1.079-1.943,8.204-5.184,14.036-6.695c5.831-1.512,19.131-5.333,22.03-5.615c1.505-0.146,3.673-1.079,6.263-1.727
	c2.592-0.649,17.708-3.023,39.305-1.295"/>
</svg>
