<?xml version="1.0" encoding="utf-8"?>
<!-- Generator: Adobe Illustrator 21.0.0, SVG Export Plug-In . SVG Version: 6.00 Build 0)  -->
<svg version="1.1" id="Layer_1" xmlns="http://www.w3.org/2000/svg" xmlns:xlink="http://www.w3.org/1999/xlink" x="0px" y="0px"
	 viewBox="0 0 400 117.2" style="enable-background:new 0 0 400 117.2;" xml:space="preserve">
<style type="text/css">
	.st0{fill:#4B4B4B;}
</style>
<path class="st0" d="M195.9,1.3c9,1,69,12,79.6,12c2.9,0.5,13.1,3.8,15.7,4.8c5,1.9,10,1,15,3.6c4.5,2.4,9.5,3.1,14.1,5.5
	c2.1,1.2,4.3,2.4,6.4,3.6c6,3.3,12.6,6.2,17.6,10.7c4.1,3.6,7.2,5.2,11.4,2.6c4.1-2.6,15-10.2,22.2-8.3c7.2,2.1,7.6,5.2,3.6,6.2
	s-4.1,3.1-3.6,6.2c-0.5,2.1-0.5,5.2-6.2,7.2c7.6,2.6,13.8,7.6,18.1,16.9c1.7,4.5,4.1,6.2,7.2,6.7s4.5,2.1,0.5,5.2
	c-4.1,2.1-23.1,3.1-41.2-19.5c-1.4-1-7.2-6.7-7.2-6.7c-1.2-1.2-14.5,3.1-16.7,3.3c-10.7,1-21.9,0-32.4,2.4c-5,1.2-10,2.1-15,1.9
	c-7.9-0.5-15.3-1.4-22.6,1.2c-5,1.7-10.5,2.1-15.7,3.3c-17.4,3.6-35.8,15.5-53.4,15.7c-14.3,0.2-28.4-0.2-42.4-1.2
	c-10.2-1.4-18.1-3.1-21.2-2.1c7.2,16.4,3.3,9.5,9.5,18.1c6.2,8.8,9.3,10.2,8.6,16.4c-7.9,0.7-11.9-1.2-15-2.6
	c-11.4-5-15-6.2-23.4-15.3c-2.9-3.1-4.3-6.9-6.2-10.2c-1.9-3.6-5-6-7.4-9.1c0,0.2,0,0.7,0.2,1.2c-3.8-2.9-8.1-5.5-12.6-7.4
	c-11.4-4.3-23.8-16.2-36-18.1c-6-1-12.2-2.1-17.9-3.8c-2.6-0.7-5-2.1-7.6-1.9c-1.9,0.2-3.8,1.4-5.7,1.4C11.9,51,8.8,47.9,5.4,46
	c-2.9-1.7-7.6-4.3-4.3-8.1c2.6-4.5,19.5-12.4,33.4-16S80,9.3,86.9,8.6c3.6-0.2,8.8-2.6,15-4.1s42.2-7.2,93.7-3.1"/>
</svg>
