<?xml version="1.0" encoding="utf-8"?>
<!-- Generator: Adobe Illustrator 16.0.4, SVG Export Plug-In . SVG Version: 6.00 Build 0)  -->
<!DOCTYPE svg PUBLIC "-//W3C//DTD SVG 1.1//EN" "http://www.w3.org/Graphics/SVG/1.1/DTD/svg11.dtd">
<svg version="1.1" id="Layer_1" xmlns="http://www.w3.org/2000/svg" xmlns:xlink="http://www.w3.org/1999/xlink" x="0px" y="0px"
	 width="200px" height="200px" viewBox="0 0 200 200" enable-background="new 0 0 200 200" xml:space="preserve">
<path fill="#4B4B4B" d="M100.011,40.875c-7.553,0-13.691,5.922-13.691,13.236c0,5.39,3.332,10.027,8.094,12.096l-0.141,6.863H57.536
	v7.252h36.571l-1.103,52.582c-0.021,1.066,0.008,11.746-14.668,4.365c-14.719-7.408-6.406-15.797-5.419-16.047
	c-8.646-2.666-16.481-10.07-22.815-17.669c-6.208,13.546,4.911,28.007,5.449,30.071c1.339-1.432,3.332-1.203,4.557-1.002
	c14.984,22.844,34.627,20.109,39.902,26.502c5.262-6.393,24.896-3.658,39.875-26.502c1.226-0.201,3.224-0.43,4.562,1.002
	c0.538-2.061,11.657-16.525,5.449-30.071c-6.334,7.599-14.17,15.003-22.815,17.669c0.981,0.25,9.3,8.639-5.413,16.047
	c-14.679,7.381-14.652-3.299-14.674-4.365l-1.108-52.582h36.577V73.07h-36.736l-0.146-6.863c4.768-2.071,8.1-6.715,8.1-12.096
	C113.681,46.797,107.556,40.875,100.011,40.875z M100.011,49.269c2.672,0,4.838,2.17,4.838,4.843c0,2.675-2.166,4.843-4.838,4.843
	c-2.68,0-4.87-2.168-4.87-4.843C95.141,51.438,97.331,49.269,100.011,49.269z"/>
</svg>
