<?xml version="1.0" encoding="utf-8"?>
<!-- Generator: Adobe Illustrator 21.0.0, SVG Export Plug-In . SVG Version: 6.00 Build 0)  -->
<svg version="1.1" id="Layer_1" xmlns="http://www.w3.org/2000/svg" xmlns:xlink="http://www.w3.org/1999/xlink" x="0px" y="0px"
	 viewBox="0 0 168 49.2" style="enable-background:new 0 0 168 49.2;" xml:space="preserve">
<style type="text/css">
	.st0{fill:#4B4B4B;}
</style>
<path class="st0" d="M107.3,3.3c4.2,0.7,5.9,1.8,8.5,2.2c1.2,0.2,5.5,1.6,6.6,2c2.1,0.8,4.2,0.4,6.3,1.5c1.9,1,4,1.3,5.9,2.3
	c0.9,0.5,1.8,1,2.7,1.5c2.5,1.4,5.3,2.6,7.4,4.5c1.7,1.5,3,2.2,4.8,1.1c1.7-1.1,6.3-4.3,9.3-3.5c3,0.9,3.2,2.2,1.5,2.6
	c-1.7,0.4-1.7,1.3-1.5,2.6c-0.2,0.9-0.2,2.2-2.6,3c3.2,1.1,5.8,3.2,7.6,7.1c0.7,1.9,1.7,2.6,3,2.8c1.3,0.2,1.9,0.9,0.2,2.2
	c-1.7,0.9-9.7,1.3-17.3-8.2c-0.6-0.4-3-2.8-3-2.8c-0.5-0.5-6.1,1.3-7,1.4c-4.5,0.4-9.2,0-13.6,1c-2.1,0.5-4.2,0.9-6.3,0.8
	c-3.3-0.2-6.4-0.6-9.5,0.5c-2.1,0.7-4.4,0.9-6.6,1.4c-7.3,1.5-15,6.5-22.4,6.6c-6,0.1-11.9-0.1-17.8-0.5c-4.3-0.6-7.6-1.3-8.9-0.9
	c3,6.9,1.4,4,4,7.6c2.6,3.7,3.9,4.3,3.6,6.9c-3.3,0.3-5-0.5-6.3-1.1c-4.8-2.1-6.3-2.6-9.8-6.4c-1.2-1.3-1.8-2.9-2.6-4.3
	c-0.8-1.5-2.1-2.5-3.1-3.8c0,0.1,0,0.3,0.1,0.5c-1.6-1.2-3.4-2.3-5.3-3.1c-4.8-1.8-10-6.8-15.1-7.6c-2.5-0.4-5.1-0.9-7.5-1.6
	c-1.1-0.3-2.1-0.9-3.2-0.8c-0.8,0.1-1.6,0.6-2.4,0.6c-1.8-0.1-3.1-1.4-4.5-2.2c-1.2-0.7-3.2-1.8-1.8-3.4c1.1-1.9,8.2-5.2,14-6.7
	c5.8-1.5,19.1-5.3,22-5.6c1.5-0.1,3.7-1.1,6.3-1.7c2.6-0.6,17.7-3,39.3-1.3"/>
</svg>
