<?xml version="1.0" encoding="utf-8"?>
<!-- Generator: Adobe Illustrator 21.0.0, SVG Export Plug-In . SVG Version: 6.00 Build 0)  -->
<svg version="1.1" id="Layer_1" xmlns="http://www.w3.org/2000/svg" xmlns:xlink="http://www.w3.org/1999/xlink" x="0px" y="0px"
	 viewBox="0 0 500 177" style="enable-background:new 0 0 500 177;" xml:space="preserve">
<style type="text/css">
	.st0{fill:#45596F;}
</style>
<title>wind-resources-2</title>
<path class="st0" d="M358.8,164.4h-18.6v-14.6h18.6L358.8,164.4z M322.7,55.3h-18.6V40.7h18.6V55.3z M322.7,91.6h-18.6V77.1h18.6
	V91.6z M322.7,128h-18.6v-14.6h18.6V128z M322.7,164.4h-18.6v-14.6h18.6V164.4z M260.8,33.4h-16.1V18.9h16.1L260.8,33.4z
	 M260.8,69.8h-16.1V55.3h16.1L260.8,69.8z M260.8,106.2h-16.1V91.6h16.1L260.8,106.2z M260.8,142.5h-16.1V128h16.1L260.8,142.5z
	 M229.5,33.4h-16.1V18.9h16.1V33.4z M229.5,69.8h-16.1V55.3h16.1V69.8z M229.5,106.2h-16.1V91.6h16.1V106.2z M229.5,142.6h-16.1V128
	h16.1V142.6z M195.8,128h-18.6v-14.5h18.6V128z M195.8,164.4h-18.6v-14.5h18.6V164.4z M159.7,128h-18.6v-14.5h18.6L159.7,128z
	 M159.7,164.4h-18.6v-14.5h18.6L159.7,164.4z M369.1,128h-28.9V26.2h-50.6v43.6H268V4.3h-65v36.4h-36v58.2h-36.1v72.8h238.2V128z"/>
</svg>
