<?xml version="1.0" encoding="utf-8"?>
<!-- Generator: Adobe Illustrator 21.0.0, SVG Export Plug-In . SVG Version: 6.00 Build 0)  -->
<svg version="1.1" id="Layer_1" xmlns="http://www.w3.org/2000/svg" xmlns:xlink="http://www.w3.org/1999/xlink" x="0px" y="0px"
	 viewBox="0 0 500 177" style="enable-background:new 0 0 500 177;" xml:space="preserve">
<style type="text/css">
	.st0{fill:#44596F;}
</style>
<title>wind-resources-4</title>
<path class="st0" d="M352.8,96.2h-14.1V82h14.1L352.8,96.2z M352.8,127.1h-14.1V113h14.1L352.8,127.1z M329.3,157.2h-16.8v-33.6
	h16.8V157.2z M303.1,96.2H289V82h14.1L303.1,96.2z M303.1,127.2H289V113h14.1L303.1,127.2z M313.8,82H328v14.1h-14.2V82z
	 M313.8,51.1H328v14.1h-14.2V51.1z M368,61.1h14.3l-61.3-44.4l-21,15.3v-9.3h-14V42l-26.3,19.1h14.3v95.5h-9.3v11.1h112.6v-11.1
	h-9.3L368,61.1z"/>
<path class="st0" d="M251.3,141.8h-9.2v-9.2h9.2L251.3,141.8z M231.2,141.8H222v-9.2h9.2L231.2,141.8z M211.1,141.8h-9.2v-9.2h9.2
	V141.8z M182.7,141.8h-9.2v-9.2h9.2L182.7,141.8z M165.3,161.3h-10.9v-21.8h10.9L165.3,161.3z M146.1,141.8h-9.2v-9.2h9.2V141.8z
	 M265.7,126.8h6.5l-6.5-10.5h-78.5l-5-3.7V98.6h-9.1v7.3l-15.4-11.2l-39.8,28.9h9.3V161h-6v7.2h149.5V161h-4.9L265.7,126.8z"/>
</svg>
