<?xml version="1.0" encoding="utf-8"?>
<!-- Generator: Adobe Illustrator 16.0.4, SVG Export Plug-In . SVG Version: 6.00 Build 0)  -->
<!DOCTYPE svg PUBLIC "-//W3C//DTD SVG 1.1//EN" "http://www.w3.org/Graphics/SVG/1.1/DTD/svg11.dtd">
<svg version="1.1" id="Layer_1" xmlns="http://www.w3.org/2000/svg" xmlns:xlink="http://www.w3.org/1999/xlink" x="0px" y="0px"
	 width="73px" height="66px" viewBox="0 0 73 66" enable-background="new 0 0 73 66" xml:space="preserve">
<g>
	<defs>
		<rect id="SVGID_1_" x="4.5" y="2.5" width="64.625" height="57.625"/>
	</defs>
	<clipPath id="SVGID_2_">
		<use xlink:href="#SVGID_1_"  overflow="visible"/>
	</clipPath>
	<path clip-path="url(#SVGID_2_)" fill="none" d="M-6.409,73.631c-1.711-1.822-0.051-11.491,1.14-10.733
		c3.807,2.43,8.009,3.688,12.382,4.562c3.483,0.697,5.684,2.881,6.669,6.269c0.511,1.757,1.001,3.528,1.379,5.317
		c0.869,4.104,93.52-3.02,100.531-0.781c2.728,0.869,5.64,0.474,8.125-1.362c1.743-1.287,2.851-2.96,2.63-5.152
		c-0.219-2.172-1.904-3.305-3.656-4.272c-0.272-0.148-0.599-0.198-0.896-0.31c-2.657-0.989-3.502-2.536-2.879-5.252
		c0.596-2.584-0.098-4.704-1.921-5.867c-1.757-1.121-3.443-0.875-5.728,0.833c-0.81,0.604-1.599,1.243-2.439,1.801
		c-1.897,1.264-3.565,0.766-4.411-1.345c-0.254-0.63-0.422-1.354-0.399-2.026c0.084-2.408-0.666-4.608-1.493-6.807
		c-0.423-1.125-0.852-2.252-1.157-3.411c-0.73-2.77,1.034-5.021,3.927-5.065c2.585-0.04,4.974,0.835,7.349,1.698
		c3.09,1.119,5.961,0.87,8.535-1.285c2.292-1.918,1.89-4.508,1.674-7.038c-0.016-0.186-0.122-0.365-0.137-0.551
		c-0.159-2.191-0.944-4.383-0.253-6.581c1.671-5.325,5.349-8.88,10.228-11.314c1.05-0.522,2.221-0.452,3.362-0.336
		C142.225,15.245-4.282,75.893-6.409,73.631z M129.004,23.704c-3.877,3.421-4.131,7.403-0.988,11.592
		c1.685,2.246,4.047,3.789,5.918,5.848c2.716,2.985,1.992,6.047-1.864,7.31c-0.653,0.214-1.362,0.246-2.041,0.384
		c-2.274,0.461-4.149,2.436-3.839,4.486c0.695,4.57,0.43,9.368,3.208,13.491c0.903,1.341,1.391,3.033,1.181,4.712
		C130.078,75.501,131.691,21.332,129.004,23.704z M5.941,72.327c-2.61-0.025-4.759,2.104-4.826,4.782
		c-0.069,2.771,9.733,2.901,9.702,0.458C10.779,74.661,8.633,72.352,5.941,72.327z"/>
	<path clip-path="url(#SVGID_2_)" fill-rule="evenodd" clip-rule="evenodd" fill="none" d="M128.492-16.244
		c-0.848,2.346-2.968,3.838-5.655,3.793c-4.23-0.072-7.927,1.309-11.331,3.706c-1.396,0.983-2.784,2.003-4.276,2.818
		c-3.161,1.726-5.212,4.391-7.248,7.295c-3.807,5.425-4.624,11.146-3.231,17.484c0.825,3.758,1.821,7.491,2.229,11.338
		c0.468,4.4,0.544,8.656-3.469,11.729c-1.302,0.999-2.601,2.009-3.842,3.083c-4.094,3.539-8.465,5.577-14.058,3.581
		c-2.011-0.719-4.259-0.322-6.256,0.768c-1.334,0.727-2.684,1.438-4.082,2.024c-2.156,0.903-4.394,1.894-6.767,1.362
		c-3.631-0.816-5.39-3.473-6.177-6.943c-0.546-2.413-0.38-4.898-0.947-7.32c-0.894-3.824-3.077-7.052-4.58-10.587
		c-3.182-7.484-2.452-8.455,2.436-13.119c1.983-1.892,2.688-4.253,2.139-6.931c-0.586-2.871,0.174-5.398,1.868-7.674
		c1.354-1.823,2.768-3.612,4.254-5.329c2.142-2.473,3.996-5.185,6.664-7.221c2.031-1.552-72.195,2.751-74.064,6.578
		c-2.969,6.079,86.805-12.127,90.929-9.405c4.807,3.174,7.605,3.468,10.392-2.045c0.056-0.113,7.472,0.682,8.486,1.72
		c1.547,1.58,3.405,2.286,5.603,2.376c4.413,0.18,8.41-1.628,12.595-2.522C122.996-16.302,130.438-21.615,128.492-16.244z
		 M71.699-8.644c-2.561,0.021-3.703,0.396-5.859,1.845c-1.333,0.895-2.376,2.093-3.453,3.238c-2.908,3.092-4.755,6.522-3.323,10.978
		c1.021,3.172,0.066,5.832-2.389,8.002c-0.614,0.545-1.229,1.089-1.876,1.59c-4.387,3.392-5.665,6.583-3.678,10.756
		c2.223,4.668,4.665,9.256,7.615,13.524c1.855,2.683,4.323,2.844,6.751,0.661c0.985-0.885,1.963-1.786,3.014-2.592
		c2.009-1.546,3.054-1.568,5.176-0.237c1.354,0.849,2.444,1.962,3.462,3.197c3.988,4.846,6.918,4.9,11.034,0.901
		c2.139-2.08,4.167-4.265,5.648-6.856c1.364-2.388,2.233-4.986,1.786-7.8c-0.536-3.365-1.252-6.704-1.773-10.071
		c-1.2-7.771-4.036-14.712-9.939-20.157c-0.319-0.295-0.523-0.71-0.813-1.042C80.062-6.178,76.461-8.53,71.699-8.644z"/>
	<path clip-path="url(#SVGID_2_)" fill-rule="evenodd" clip-rule="evenodd" fill="none" d="M-6.503-8.438
		c0.968-6.422,77.013-8.47,75.886-7.47c-2.171,1.929-4.533,3.682-6.477,5.82c-2.756,3.031-5.198,6.347-7.783,9.536
		c-2.085,2.574-2.757,5.496-2.119,8.723c0.443,2.24-0.3,4.126-1.724,5.773c-0.865,1.006-1.895,1.868-2.796,2.845
		c-1.575,1.703-2.393,3.577-1.857,6.037c0.612,2.816,1.621,5.422,3.008,7.932c1.655,2.996,3.063,6.094,3.619,9.532
		c0.43,2.669,0.288,5.417,1.337,8.005c1.452,3.587,4.862,5.466,8.657,4.803c2.678-0.466,5.094-1.531,7.4-2.846
		c2.633-1.495,5.307-1.887,8.207-0.981c4.072,1.272,7.723,0.407,10.994-2.288c1.608-1.325,3.199-2.692,4.923-3.849
		c3.62-2.426,4.963-5.726,4.817-10.044c-0.172-5.182-1.507-10.12-2.578-15.107c-2.032-9.479,2.106-16.448,8.82-22.333
		c2.163-1.897,4.854-3.187,7.28-4.792c3.051-2.017,6.386-2.923,10.039-2.925c2.837-0.001,5.093-1.805,6.09-4.602
		c1.615-4.535,6.526,30.098,3.644,31.164c-5.117,1.891-8.595,5.697-10.521,10.762c-1.052,2.757-0.364,5.657,0.219,8.431
		c1.213,5.781-3.407,8.831-7.749,8.165c-1.354-0.208-2.639-0.843-3.956-1.28c-1.999-0.662-4.037-1.046-6.154-0.924
		c-2.568,0.149-4.446,2.513-3.831,4.982c1.032,4.146,2.905,8.03,3.122,12.451c0.128,2.63,2.931,3.505,5.205,2.03
		c1.271-0.825,2.42-1.849,3.732-2.588c2.237-1.261,4.071-0.583,5.36,1.663c0.775,1.354,0.532,2.659,0.195,4.034
		c-0.619,2.514,0.324,4.271,2.755,5.228c0.471,0.187,1.002,0.269,1.419,0.532c3.908,2.466,4.508,4.656,1.536,7.889
		c-1.166,1.27-2.759,1.953-4.536,2.163c-1.921,0.226-3.779-0.15-5.651-0.424c-4.648-0.672-97.847,6.746-98.593,0.493
		c-0.191-1.614-0.809-3.181-1.272-4.758c-1.021-3.469-3.305-5.593-6.859-6.317c-3.541-0.727-7.044-1.561-10.22-3.385
		c-1.041-0.598-2.027-1.281-3.199-1.639c-2.426-0.737-3.834,8.341-2.122,10.245c2.618,2.912,0.69-17.193,1.809-15.944
		c3.988,4.452,8.919,6.868,14.799,7.731c4.082,0.6,6.942,2.874,7.982,7.087c0.424,1.716,1.001,3.395,1.488,5.097
		c1.525,5.322,20.083,2.99,22.461,4.143c2.508,1.214,63.486-2.687,65.692-5.994c2.135-3.2,2.106-5.868-0.206-8.09
		c-2.888-2.775-4.968-6.009-6.42-9.724c-1.056-2.703-3.472-4.097-6.331-3.623c-5.224,0.867-10.541,1.243-15.633,2.866
		c-0.953,0.305-1.975,0.509-2.972,0.535c-3.327,0.09-6.511,0.623-9.473,2.273c-1.949,1.084-4.049,1.165-5.998,0.032
		c-3.478-2.022-5.918-4.934-6.86-8.91c-0.406-1.717-0.716-3.478-0.828-5.235c-0.472-7.269-3.375-13.661-6.844-19.903
		c-2.218-3.988-4.838-7.704-7.319-11.516c-2.377-3.653-1.618-6.681,2.092-8.981c1.879-1.166,4.088-1.273,6.095-1.998
		c4.74-1.713,8.392-5.023,11.274-8.964c3.462-4.732-60.603-8.892-60.222-5.804c0.413,3.356,1.067,6.792-0.7,10.014
		C-7.077,2.312-6.811-6.397-6.503-8.438z M136.1-14.456c0.746,0.936,0.974,8.41-0.727,8.226c-2.67-0.287-5.151-1.251-7.679-2.053
		c-3.334-1.056-6.82-1.728-9.929,0.13c-5.767,3.444-11.199,7.385-13.992,13.87c-1.539,3.569-3.728,6.968-3.104,11.156
		c0.734,4.958,1.925,9.83,3.751,14.465c1.635,4.154,7.668,5.599,11.129,2.917c2.605-2.021,2.968-4.958,2.446-7.921
		c-0.388-2.188-0.006-4.159,0.786-6.098c0.834-2.048,1.798-4.046,2.785-6.026c2.39-4.783,6.75-6.619,11.863-5.138
		C135.269,9.604,134.239-16.787,136.1-14.456z"/>
	<path clip-path="url(#SVGID_2_)" fill-rule="evenodd" clip-rule="evenodd" fill="none" d="M-8.423,4.192
		c4.779-5.046,6.5-10.754,5.189-17.722c-0.821-4.372,63.836-1.372,62.527,1.386c-2.284,4.81-5.877,8.471-10.09,11.62
		c-2.193,1.639-4.689,2.35-7.287,3.004c-5.712,1.44-8.892,5.948-4.639,11.841c2.516,3.485,4.885,7.074,6.896,10.881
		c2.987,5.648,5.917,11.271,6.454,17.873c0.298,3.669,0.508,7.528,2.635,10.766c3.277,4.987,7.652,7.874,13.36,4.568
		c1.407-0.815,2.994-1.201,4.682-1.389c1.631-0.186,3.34,0.041,4.889-0.464c5.084-1.655,10.403-2.048,15.597-3.102
		c3.735-0.758,5.963,0.538,7.448,4.122c1.293,3.118,3.001,5.965,5.458,8.348c2.998,2.905,3.171,4.68,0.857,8.163
		c-2.421,3.641-84.031,8.197-86.325,4.067c-1.059-1.907-1.649-4.001-2.088-6.078c-1.062-5.027-3.999-7.825-9.066-8.578
		c-4.058-0.602-7.873-1.896-11.035-4.656C-4.865,57.179-10.025,5.881-8.423,4.192z M-0.127-10.853
		c1.07,4.866,0.772,9.208-2.502,13.182C-5.258,5.521-6.511,27.7-4.643,27.227c1.642-0.419,3.305-0.042,4.86,0.46
		c2.804,0.905,3.25,3.144,1.074,5.096c-1.326,1.19-2.931,1.973-4.521,2.748c-3.022,1.475-4.714,3.738-4.411,7.237
		c0.046,0.502-0.013,1.012,0.012,1.518c0.288,5.833,2.383,10.643,7.565,13.844c2.996,1.851,6.336,2.519,9.688,3.082
		c5.583,0.938,8.962,4.017,10.116,9.58c0.4,1.927,1.115,3.749,2.286,5.376c1.932,2.681,4.78,3.374,7.666,1.777
		c0.994-0.551,1.975-1.141,2.896-1.803c2.131-1.535,4.232-1.42,6.343-0.005c2.375,1.594,4.902,2.909,7.576,3.895
		c6.5,2.394,53.896-1.607,55.458-4.604c1.643-3.149,1.555-6.172-0.591-9.074c-0.412-0.558-0.756-1.167-1.152-1.737
		c-4.68-6.732-6.773-8.141-16.859-5.839c-2.645,0.604-5.19,1.669-7.921,1.873c-3.491,0.262-6.352,1.641-8.911,4.068
		c-2.375,2.254-4.944,2.596-7.104,1.175c-3.36-2.208-6.115-5.032-8.235-8.501c-2.214-3.626-1.623-7.72-2.18-11.616
		c-0.815-5.72-1.883-11.312-4.91-16.392c-3.142-5.271-6.388-10.45-10.169-15.299c-3.755-4.814-2.922-9.394,2.21-12.714
		c2.554-1.651,5.453-2.642,8.194-3.934c3.188-1.505,6.621-2.612,8.819-5.659C55.694-11.738-0.999-14.815-0.127-10.853z"/>
	<path clip-path="url(#SVGID_2_)" fill-rule="evenodd" fill="#3283BB" clip-rule="evenodd" d="M-8.234,72.249
		c-1.713-1.904-0.304-10.982,2.122-10.245c1.172,0.357,2.158,1.041,3.199,1.639c3.175,1.824,6.679,2.658,10.22,3.385
		c3.554,0.725,5.838,2.849,6.859,6.317c0.464,1.577,1.081,3.144,1.272,4.758c0.746,6.253,93.944-1.165,98.593-0.493
		c1.872,0.273,3.73,0.649,5.651,0.424c1.777-0.21,3.37-0.894,4.536-2.163c2.972-3.232,2.372-5.423-1.536-7.889
		c-0.417-0.264-0.948-0.346-1.419-0.532c-2.431-0.957-3.374-2.714-2.755-5.228c0.337-1.375,0.58-2.68-0.195-4.034
		c-1.289-2.246-3.123-2.924-5.36-1.663c-1.312,0.739-2.462,1.763-3.732,2.588c-2.274,1.475-5.077,0.6-5.205-2.03
		c-0.217-4.421-2.09-8.306-3.122-12.451c-0.615-2.47,1.263-4.833,3.831-4.982c2.117-0.122,4.155,0.262,6.154,0.924
		c1.317,0.438,2.603,1.072,3.956,1.28c4.342,0.666,8.962-2.384,7.749-8.165c-0.583-2.773-1.271-5.674-0.219-8.431
		c1.926-5.064,5.403-8.871,10.521-10.762c2.883-1.066,9.34,0.75,3.268,0.126c-1.142-0.116-2.312-0.187-3.362,0.336
		c-4.879,2.435-8.557,5.989-10.228,11.314c-0.691,2.198,0.094,4.39,0.253,6.581c0.015,0.186,0.121,0.365,0.137,0.551
		c0.216,2.53,0.618,5.12-1.674,7.038c-2.574,2.155-5.445,2.404-8.535,1.285c-2.375-0.863-4.764-1.738-7.349-1.698
		c-2.893,0.044-4.657,2.296-3.927,5.065c0.306,1.159,0.734,2.286,1.157,3.411c0.827,2.198,1.577,4.398,1.493,6.807
		c-0.022,0.672,0.146,1.396,0.399,2.026c0.846,2.11,2.514,2.608,4.411,1.345c0.841-0.558,1.63-1.196,2.439-1.801
		c2.284-1.708,3.971-1.954,5.728-0.833c1.823,1.163,2.517,3.283,1.921,5.867c-0.623,2.716,0.222,4.263,2.879,5.252
		c0.297,0.111,0.623,0.161,0.896,0.31c1.752,0.968,3.438,2.101,3.656,4.272c0.221,2.192-0.887,3.865-2.63,5.152
		c-2.485,1.836-5.397,2.231-8.125,1.362c-7.011-2.238-99.662,4.886-100.531,0.781c-0.378-1.789-0.868-3.561-1.379-5.317
		c-0.985-3.388-3.186-5.571-6.669-6.269c-4.373-0.874-8.576-2.133-12.382-4.562c-1.191-0.758-2.852,8.911-1.14,10.733
		C-4.282,75.893-5.616,75.161-8.234,72.249z"/>
	<path clip-path="url(#SVGID_2_)" fill-rule="evenodd" fill="#3283BB" clip-rule="evenodd" d="M129.241-16.669c-0.997,2.797-3.253,4.6-6.09,4.602
		c-3.653,0.002-6.988,0.909-10.039,2.925c-2.426,1.604-5.117,2.895-7.28,4.792c-6.714,5.885-10.853,12.854-8.82,22.333
		c1.071,4.987,2.406,9.926,2.578,15.107c0.146,4.318-1.197,7.618-4.817,10.044c-1.724,1.156-3.314,2.523-4.923,3.849
		c-3.271,2.695-6.922,3.561-10.994,2.288c-2.9-0.905-5.574-0.514-8.207,0.981c-2.307,1.314-4.723,2.38-7.4,2.846
		c-3.795,0.663-7.205-1.216-8.657-4.803c-1.049-2.588-0.907-5.336-1.337-8.005c-0.556-3.438-1.964-6.536-3.619-9.532
		c-1.387-2.51-2.396-5.115-3.008-7.932c-0.535-2.46,0.282-4.334,1.857-6.037c0.901-0.977,1.931-1.839,2.796-2.845
		c1.424-1.647,2.167-3.533,1.724-5.773c-0.638-3.227,0.034-6.148,2.119-8.723c2.585-3.189,5.027-6.505,7.783-9.536
		c1.943-2.138,4.306-3.891,6.477-5.82c1.127-1-74.918,1.048-75.886,7.47c-0.308,2.04-4.368,8.708-1.398,2.629
		c1.869-3.827,76.095-8.13,74.064-6.578c-2.668,2.036-4.522,4.748-6.664,7.221c-1.486,1.717-2.9,3.506-4.254,5.329
		c-1.694,2.275-2.454,4.803-1.868,7.674c0.549,2.678-0.155,5.039-2.139,6.931c-4.888,4.664-5.617,5.635-2.436,13.119
		c1.503,3.535,3.687,6.763,4.58,10.587c0.567,2.422,0.401,4.907,0.947,7.32c0.787,3.471,2.546,6.127,6.177,6.943
		c2.373,0.531,4.61-0.459,6.767-1.362c1.398-0.586,2.748-1.298,4.082-2.024c1.997-1.09,4.245-1.486,6.256-0.768
		c5.593,1.996,9.964-0.042,14.058-3.581c1.241-1.074,2.54-2.084,3.842-3.083c4.013-3.072,3.937-7.328,3.469-11.729
		c-0.407-3.847-1.403-7.58-2.229-11.338c-1.393-6.339-0.575-12.06,3.231-17.484c2.036-2.904,4.087-5.569,7.248-7.295
		c1.492-0.815,2.88-1.835,4.276-2.818c3.404-2.396,7.101-3.777,11.331-3.706c2.688,0.044,4.808-1.447,5.655-3.793
		C130.438-21.615,130.856-21.204,129.241-16.669z"/>
	<path clip-path="url(#SVGID_2_)" fill-rule="evenodd" fill="#3283BB"  clip-rule="evenodd" d="M-2.961,58.843c3.162,2.76,6.977,4.055,11.035,4.656
		c5.067,0.753,8.005,3.551,9.066,8.578c0.439,2.077,1.029,4.171,2.088,6.078c2.294,4.13,83.904-0.427,86.325-4.067
		c2.313-3.483,2.141-5.258-0.857-8.163c-2.457-2.383-4.165-5.229-5.458-8.348c-1.485-3.584-3.713-4.88-7.448-4.122
		c-5.193,1.054-10.513,1.446-15.597,3.102c-1.549,0.505-3.258,0.278-4.889,0.464c-1.688,0.188-3.274,0.573-4.682,1.389
		c-5.708,3.306-10.083,0.419-13.36-4.568c-2.127-3.237-2.337-7.097-2.635-10.766c-0.537-6.602-3.467-12.225-6.454-17.873
		c-2.012-3.807-4.381-7.396-6.896-10.881c-4.253-5.893-1.073-10.4,4.639-11.841c2.598-0.654,5.094-1.365,7.287-3.004
		c4.213-3.148,7.806-6.81,10.09-11.62c1.31-2.758-63.348-5.758-62.527-1.386C-1.923-6.562-3.645-0.854-8.423,4.192
		c-1.602,1.688,1.346-1.88,4.077-6.852c1.767-3.221,1.113-6.657,0.7-10.014c-0.38-3.087,63.684,1.072,60.222,5.804
		c-2.883,3.941-6.534,7.251-11.274,8.964c-2.007,0.725-4.216,0.832-6.095,1.998c-3.71,2.301-4.469,5.328-2.092,8.981
		c2.481,3.812,5.102,7.527,7.319,11.516c3.469,6.242,6.372,12.635,6.844,19.903c0.112,1.758,0.422,3.519,0.828,5.235
		c0.942,3.977,3.383,6.888,6.86,8.91c1.949,1.133,4.049,1.052,5.998-0.032c2.962-1.65,6.146-2.184,9.473-2.273
		c0.997-0.026,2.019-0.23,2.972-0.535c5.092-1.623,10.409-1.999,15.633-2.866c2.859-0.474,5.275,0.92,6.331,3.623
		c1.452,3.715,3.532,6.948,6.42,9.724c2.312,2.222,2.341,4.89,0.206,8.09c-2.206,3.308-63.185,7.208-65.692,5.994
		c-2.379-1.152-20.937,1.18-22.461-4.143c-0.487-1.702-1.064-3.381-1.488-5.097c-1.041-4.213-3.901-6.487-7.982-7.087
		c-5.879-0.863-10.811-3.279-14.799-7.731C-7.544,55.056-4.865,57.179-2.961,58.843z"/>
	<path clip-path="url(#SVGID_2_)" fill-rule="evenodd"  fill="#3283BB" clip-rule="evenodd" d="M71.699-8.644c4.762,0.114,8.363,2.466,11.382,5.937
		c0.29,0.332,0.494,0.747,0.813,1.042c5.903,5.445,8.739,12.386,9.939,20.157c0.521,3.367,1.237,6.706,1.773,10.071
		c0.447,2.813-0.422,5.412-1.786,7.8c-1.481,2.592-3.51,4.776-5.648,6.856c-4.116,3.999-7.046,3.944-11.034-0.901
		c-1.018-1.235-2.108-2.349-3.462-3.197c-2.122-1.331-3.167-1.309-5.176,0.237c-1.051,0.806-2.028,1.707-3.014,2.592
		c-2.428,2.183-4.896,2.021-6.751-0.661c-2.95-4.269-5.393-8.856-7.615-13.524c-1.987-4.173-0.709-7.364,3.678-10.756
		c0.647-0.501,1.262-1.045,1.876-1.59c2.455-2.17,3.409-4.83,2.389-8.002c-1.432-4.455,0.415-7.886,3.323-10.978
		c1.077-1.146,2.12-2.344,3.453-3.238C67.996-8.247,69.139-8.623,71.699-8.644z M71.568-8.257c-1.597-0.104-3.031,0.395-4.346,1.192
		c-2.412,1.466-4.291,3.508-5.985,5.735c-1.944,2.552-2.762,5.277-1.8,8.509c0.377,1.272,0.693,2.65,0.363,4.101
		c-0.607,2.665-2.377,4.411-4.408,5.958c-4.415,3.365-5.749,6.269-3.909,10.105c2.264,4.72,4.718,9.37,7.712,13.687
		c1.732,2.494,3.603,2.604,5.879,0.573c0.941-0.841,1.87-1.702,2.865-2.474c2.362-1.829,3.852-1.845,6.389-0.198
		c1.344,0.873,2.401,2.009,3.371,3.285c2.862,3.768,5.578,4.377,8.777,1.783c2.958-2.4,5.52-5.251,7.313-8.631
		c1.025-1.933,1.812-4.089,1.447-6.377c-0.558-3.489-1.27-6.954-1.832-10.443c-1.241-7.697-4.117-14.556-9.984-19.93
		c-0.275-0.252-0.443-0.615-0.689-0.901C79.78-5.721,76.235-8.049,71.568-8.257z"/>
	<path clip-path="url(#SVGID_2_)" fill-rule="evenodd"  fill="#3283BB" clip-rule="evenodd" d="M53.156-8.222c-2.198,3.047-5.632,4.153-8.819,5.659
		c-2.741,1.292-5.641,2.283-8.194,3.934c-5.132,3.32-5.965,7.899-2.21,12.714c3.781,4.849,7.027,10.028,10.169,15.299
		c3.027,5.079,4.095,10.672,4.91,16.392c0.557,3.896-0.034,7.99,2.18,11.616c2.12,3.469,4.875,6.293,8.235,8.501
		c2.16,1.421,4.729,1.079,7.104-1.175c2.56-2.428,5.42-3.807,8.911-4.068c2.73-0.204,5.276-1.27,7.921-1.873
		c10.086-2.302,12.18-0.894,16.859,5.839c0.396,0.57,0.74,1.18,1.152,1.737c2.146,2.902,2.233,5.925,0.591,9.074
		c-1.562,2.997-48.958,6.998-55.458,4.604c-2.674-0.985-5.201-2.301-7.576-3.895c-2.111-1.415-4.212-1.53-6.343,0.005
		c-0.921,0.662-1.902,1.252-2.896,1.803c-2.885,1.597-5.733,0.903-7.666-1.777c-1.171-1.627-1.886-3.449-2.286-5.376
		c-1.153-5.563-4.532-8.642-10.116-9.58c-3.352-0.563-6.692-1.231-9.688-3.082c-5.183-3.201-7.277-8.011-7.565-13.844
		c-0.025-0.506,0.034-1.016-0.012-1.518c-0.303-3.499,1.388-5.763,4.411-7.237c1.59-0.775,3.194-1.558,4.521-2.748
		c2.176-1.952,1.729-4.19-1.074-5.096c-1.555-0.502-3.218-0.879-4.86-0.46C-6.511,27.7-5.258,5.521-2.629,2.329
		c3.275-3.974,3.573-8.316,2.502-13.182C-0.999-14.815,55.694-11.738,53.156-8.222z M0.211-11.298
		C1.438-6.064,1.169-1.318-2.411,2.97c-2.326,2.783-3.972,6.002-5.577,9.239c-2.687,5.418,1.573,14.976,2.936,14.656
		c1.886-0.44,3.811-0.151,5.621,0.428c2.899,0.924,3.46,3.587,1.295,5.697c-1.151,1.119-2.544,1.912-3.986,2.527
		c-3.893,1.659-5.529,4.475-5.155,8.707c0.501,5.67,2.499,10.364,7.543,13.494c2.995,1.857,6.331,2.543,9.684,3.101
		c5.579,0.929,8.994,3.973,10.157,9.542c0.417,1.994,1.153,3.876,2.376,5.543c1.911,2.603,4.364,3.132,7.116,1.493
		c0.869-0.52,1.739-1.037,2.573-1.61c2.441-1.673,4.85-1.533,7.257,0.054c2.333,1.54,4.802,2.83,7.42,3.795
		c6.492,2.39,53.386-1.969,55.036-5.279c1.083-2.168,1.076-4.365-0.219-6.521c-1.438-2.392-3.062-4.65-4.873-6.76
		c-1.309-1.52-2.979-2.61-5.038-2.766c-2.594-0.194-5.169-0.052-7.701,0.717c-2.718,0.825-5.424,1.798-8.277,2.012
		c-3.505,0.263-6.338,1.686-8.906,4.09c-2.427,2.275-5.581,2.647-7.871,1.12c-3.394-2.266-6.214-5.117-8.306-8.694
		c-2.104-3.598-1.513-7.623-2.062-11.459c-0.775-5.405-1.688-10.761-4.462-15.569c-3.253-5.643-6.771-11.102-10.766-16.273
		C29.565,9.28,30.599,4.124,35.99,0.867c2.528-1.528,5.329-2.613,8.039-3.829c4.053-1.819,8.202-3.45,10.135-7.991
		C55.303-13.628-1.113-16.932,0.211-11.298z"/>
	<path clip-path="url(#SVGID_2_)" fill-rule="evenodd" clip-rule="evenodd" fill="none" d="M71.568-8.257
		c4.667,0.208,8.212,2.537,11.163,5.975c0.246,0.286,0.414,0.648,0.689,0.901c5.867,5.374,8.743,12.232,9.984,19.93
		c0.562,3.489,1.274,6.954,1.832,10.443c0.364,2.288-0.422,4.444-1.447,6.377c-1.794,3.38-4.355,6.23-7.313,8.631
		c-3.199,2.594-5.915,1.984-8.777-1.783c-0.97-1.276-2.027-2.412-3.371-3.285c-2.537-1.646-4.026-1.631-6.389,0.198
		c-0.995,0.771-1.924,1.633-2.865,2.474c-2.276,2.03-4.146,1.921-5.879-0.573c-2.994-4.316-5.448-8.967-7.712-13.687
		c-1.84-3.837-0.506-6.74,3.909-10.105c2.031-1.547,3.801-3.293,4.408-5.958c0.33-1.45,0.014-2.828-0.363-4.101
		c-0.962-3.232-0.145-5.957,1.8-8.509c1.694-2.227,3.573-4.269,5.985-5.735C68.537-7.862,69.972-8.361,71.568-8.257z M91.167,26.985
		c0-1.329,0.047-2.66-0.009-3.987c-0.255-6.206-2.495-11.424-7.703-15.093c-1.988-1.399-3.641-3.078-4.976-5.111
		c-1.153-1.76-2.633-3.241-4.391-4.399c-2.026-1.332-4.566-1.273-6.423,0.043c-1.946,1.381-2.934,4.051-2.399,6.338
		c0.661,2.818,2.789,4.582,4.624,6.565c0.761,0.819,1.83,1.581,1.223,2.91c-0.575,1.263-1.696,1.744-3.069,1.842
		c-4.281,0.304-8.1,1.875-11.492,4.467c-2.76,2.109-3.432,5.144-1.816,8.075c0.549,0.993,1.187,1.954,1.902,2.83
		c3.199,3.922,5.665,4.239,9.954,1.395c0.946-0.629,1.901-1.277,2.934-1.728c3.179-1.386,5.831-0.601,7.715,2.312
		c0.89,1.375,1.564,2.885,2.361,4.323c2.312,4.182,5.562,4.397,8.392,0.563c0.074-0.101,0.118-0.225,0.198-0.322
		C90.854,34.785,91.708,31.072,91.167,26.985z"/>
	<path clip-path="url(#SVGID_2_)" fill-rule="evenodd" clip-rule="evenodd" fill="none" d="M54.164-10.953
		c-1.933,4.541-6.082,6.172-10.135,7.991c-2.71,1.216-5.511,2.3-8.039,3.829c-5.392,3.257-6.425,8.413-2.586,13.385
		c3.994,5.172,7.513,10.631,10.766,16.273c2.773,4.809,3.687,10.164,4.462,15.569c0.55,3.836-0.042,7.861,2.062,11.459
		c2.092,3.577,4.912,6.429,8.306,8.694c2.29,1.527,5.444,1.155,7.871-1.12c2.568-2.404,5.401-3.827,8.906-4.09
		c2.854-0.214,5.56-1.187,8.277-2.012c2.532-0.769,5.107-0.911,7.701-0.717c2.059,0.155,3.729,1.246,5.038,2.766
		c1.811,2.109,3.436,4.368,4.873,6.76c1.295,2.156,1.302,4.354,0.219,6.521c-1.65,3.311-48.544,7.669-55.036,5.279
		c-2.618-0.965-5.087-2.255-7.42-3.795c-2.407-1.587-4.816-1.727-7.257-0.054c-0.834,0.573-1.704,1.091-2.573,1.61
		c-2.751,1.639-5.205,1.109-7.116-1.493c-1.223-1.667-1.959-3.549-2.376-5.543c-1.164-5.569-4.579-8.613-10.157-9.542
		c-3.354-0.558-6.689-1.243-9.684-3.101c-5.044-3.13-7.042-7.824-7.543-13.494c-0.375-4.232,1.262-7.048,5.155-8.707
		c1.442-0.615,2.835-1.408,3.986-2.527c2.166-2.11,1.604-4.773-1.295-5.697c-1.811-0.579-3.735-0.868-5.621-0.428
		c-1.363,0.319-8.26-5.572-5.573-10.99C-9.02,12.638-4.737,5.753-2.411,2.97c3.581-4.288,3.85-9.034,2.623-14.268
		C-1.113-16.932,55.303-13.628,54.164-10.953z M8.339,18.36c5.089-0.004,8.618,3.755,7.371,7.911
		c-1.303,4.341-4.062,7.68-7.941,10.016c-2.957,1.78-6.301,2.85-8.738,5.558c-3.603,4.001-3.13,10.251,1.262,13.335
		c2.254,1.583,4.729,2.711,7.478,3.073c6.366,0.84,11.896,3.26,16.188,8.204c1.569,1.811,3.583,1.982,5.704,1.078
		c2.397-1.022,4.424-0.237,6.38,1.147c1.248,0.883,2.343,1.925,3.396,3.021c2.348,2.444,5.139,3.984,8.527,4.572
		c2.068,0.359,3.855,0.05,5.15-1.541c1.333-1.637,1.039-3.562,0.264-5.39c-0.927-2.188-2.372-4.012-4.08-5.647
		c-2.517-2.414-3.622-5.392-2.853-8.788c1.283-5.646,0.414-11.099-1.36-16.412c-2.744-8.22-7.621-15.22-13.38-21.581
		c-3.216-3.553-5.07-7.496-4.225-12.242c0.761-4.266-0.607-7.349-3.945-9.908c-2.255-1.73-4.314-3.715-5.668-6.301
		c-1.314-2.51-14.744-2.845-14.256-0.165c0.559,3.072,1.474,6.161,0.514,9.366C3.346,0.279,1.715,2.376,0.265,4.586
		c-1.755,2.674-3.158,5.466-3.49,8.712c-0.345,3.386,1.667,6.045,4.959,5.88C4.023,19.063,6.188,18.158,8.339,18.36z M88.255,60.903
		c-0.324,0.044-1.012,0.129-1.698,0.226c-3.342,0.479-6.414,1.918-9.66,2.731c-3.149,0.786-5.657,2.514-7.374,5.27
		c-2.11,3.392-4.422,6.553-7.55,9.156c-2.663,2.217,36.736-1.026,37.949-4.352c0.715-1.957,0.549-3.937-0.59-5.648
		c-1.321-1.987-2.744-3.896-4.721-5.379C92.789,61.54,90.837,60.933,88.255,60.903z"/>
	<path clip-path="url(#SVGID_2_)" fill-rule="evenodd"  fill="#3283BB" clip-rule="evenodd" d="M91.167,26.985c0.541,4.087-0.313,7.8-2.976,11.024
		c-0.08,0.098-0.124,0.222-0.198,0.322c-2.829,3.834-6.079,3.618-8.392-0.563c-0.797-1.438-1.472-2.948-2.361-4.323
		c-1.884-2.913-4.536-3.698-7.715-2.312c-1.032,0.45-1.987,1.099-2.934,1.728c-4.289,2.845-6.755,2.527-9.954-1.395
		c-0.716-0.876-1.354-1.837-1.902-2.83c-1.615-2.932-0.943-5.966,1.816-8.075c3.393-2.592,7.211-4.163,11.492-4.467
		c1.373-0.098,2.494-0.579,3.069-1.842c0.607-1.329-0.462-2.091-1.223-2.91c-1.835-1.983-3.963-3.747-4.624-6.565
		c-0.534-2.287,0.453-4.957,2.399-6.338c1.856-1.316,4.396-1.375,6.423-0.043c1.758,1.158,3.237,2.639,4.391,4.399
		c1.335,2.033,2.987,3.712,4.976,5.111c5.208,3.669,7.448,8.887,7.703,15.093C91.214,24.325,91.167,25.656,91.167,26.985z
		 M90.787,26.891c0-1.141,0.036-2.281-0.006-3.417c-0.237-6.282-2.498-11.548-7.782-15.243c-1.938-1.357-3.601-2.957-4.828-4.989
		c-0.9-1.485-2.195-2.621-3.461-3.752c-2.34-2.09-4.913-2.174-7.028-0.368c-2.266,1.935-2.81,4.769-1.242,7.306
		c1.028,1.664,2.344,3.129,3.776,4.478c1.046,0.987,2.004,2.076,1.323,3.639c-0.625,1.437-1.893,1.811-3.395,1.953
		c-4.589,0.443-8.712,2.104-12.101,5.291c-1.979,1.86-2.269,4.005-0.966,6.377c0.729,1.321,1.556,2.596,2.64,3.688
		c3.026,3.056,4.534,3.225,8.098,0.898c1.109-0.724,2.206-1.515,3.413-2.03c3.617-1.545,6.587-0.594,8.667,2.724
		c0.737,1.175,1.211,2.514,1.961,3.679c3.056,4.744,4.744,4.537,7.909,0.589C90.313,34.532,91.387,30.945,90.787,26.891z"/>
	<path clip-path="url(#SVGID_2_)" fill-rule="evenodd" clip-rule="evenodd" fill="#3283BB" d="M8.339,18.36
		c-2.151-0.202-4.316,0.703-6.604,0.817c-3.292,0.165-5.305-2.494-4.959-5.88c0.332-3.246,1.734-6.038,3.49-8.712
		c1.45-2.21,3.081-4.307,3.863-6.919c0.959-3.206,0.045-6.294-0.514-9.366c-0.488-2.681,12.942-2.346,14.256,0.165
		c1.354,2.586,3.413,4.571,5.668,6.301c3.338,2.56,4.706,5.643,3.945,9.908c-0.846,4.746,1.008,8.689,4.225,12.242
		c5.759,6.361,10.636,13.361,13.38,21.581c1.774,5.313,2.644,10.767,1.36,16.412c-0.77,3.396,0.336,6.374,2.853,8.788
		c1.708,1.636,3.153,3.46,4.08,5.647c0.775,1.827,1.069,3.753-0.264,5.39c-1.295,1.591-3.082,1.9-5.15,1.541
		c-3.389-0.588-6.18-2.128-8.527-4.572c-1.053-1.097-2.147-2.139-3.396-3.021c-1.956-1.385-3.982-2.17-6.38-1.147
		c-2.121,0.904-4.135,0.732-5.704-1.078c-4.292-4.944-9.823-7.364-16.188-8.204c-2.748-0.362-5.224-1.49-7.478-3.073
		c-4.392-3.084-4.864-9.334-1.262-13.335c2.437-2.708,5.781-3.777,8.738-5.558c3.879-2.336,6.638-5.675,7.941-10.016
		C16.957,22.115,13.428,18.356,8.339,18.36z M8.199,17.982c0.529,0,0.845-0.004,1.162,0c4.171,0.05,7.328,3.147,6.882,7.274
		c-0.549,5.077-3.788,8.588-7.856,11.269c-2.927,1.931-6.418,2.888-8.909,5.633c-3.582,3.948-3.119,9.639,1.278,12.691
		c2.264,1.573,4.741,2.672,7.489,3.038c6.292,0.843,11.787,3.221,16.014,8.127c1.483,1.723,3.274,1.885,5.314,1.065
		c2.473-0.995,4.702-0.298,6.784,1.169c1.299,0.915,2.438,2.004,3.534,3.146c2.353,2.449,5.165,3.982,8.553,4.512
		c1.824,0.284,3.275-0.268,4.372-1.622c1.058-1.306,0.943-2.828,0.308-4.31c-0.909-2.117-2.172-4.008-3.881-5.557
		c-3.006-2.724-3.95-6.167-3.147-9.982c0.855-4.072,0.506-8.011-0.403-11.995c-2.239-9.804-7.828-17.729-14.312-25.052
		c-3.344-3.777-5.149-7.911-4.298-12.797c0.736-4.226-0.852-7.023-3.991-9.486c-2.234-1.753-4.292-3.734-5.639-6.327
		c-1.306-2.513-3.123-4.621-5.537-6.104c-1.708-1.048-3.671-1.335-5.39-0.16c-1.844,1.259-3.057,2.97-2.483,5.479
		c0.395,1.719,0.645,3.48,0.833,5.235c0.376,3.491-0.666,6.593-2.67,9.448c-1.89,2.688-3.75,5.403-4.631,8.65
		c-1.328,4.897,0.998,8.543,6.522,7.152C5.495,18.128,6.935,17.811,8.199,17.982z"/>
	<path clip-path="url(#SVGID_2_)" fill-rule="evenodd"  fill="#3283BB" clip-rule="evenodd" d="M88.255,60.903c2.582,0.029,4.534,0.637,6.356,2.004
		c1.977,1.483,3.399,3.392,4.721,5.379c1.139,1.712,1.305,3.691,0.59,5.648c-1.213,3.325-40.612,6.568-37.949,4.352
		c3.128-2.604,5.439-5.765,7.55-9.156c1.717-2.756,4.225-4.483,7.374-5.27c3.246-0.813,6.318-2.252,9.66-2.731
		C87.243,61.032,87.931,60.947,88.255,60.903z M88.491,61.274c-0.446,0.068-1.009,0.154-1.567,0.238
		c-3.465,0.513-6.656,1.979-10.021,2.842c-3.453,0.887-5.85,3.104-7.621,6.117c-1.575,2.684-3.39,5.209-5.787,7.215
		c-3.857,3.228,34.772-0.713,36.016-3.958c0.719-1.877,0.422-3.646-0.661-5.24c-1.382-2.034-2.86-3.98-4.929-5.443
		C92.292,61.895,90.543,61.391,88.491,61.274z"/>
	<path clip-path="url(#SVGID_2_)" fill-rule="evenodd" clip-rule="evenodd" fill="none" d="M90.787,26.891
		c0.6,4.055-0.474,7.642-3.021,10.82c-3.165,3.948-4.854,4.155-7.909-0.589c-0.75-1.165-1.224-2.504-1.961-3.679
		c-2.08-3.317-5.05-4.269-8.667-2.724c-1.207,0.516-2.304,1.307-3.413,2.03c-3.563,2.326-5.071,2.157-8.098-0.898
		c-1.084-1.092-1.91-2.366-2.64-3.688c-1.303-2.372-1.013-4.517,0.966-6.377c3.389-3.187,7.512-4.848,12.101-5.291
		c1.502-0.143,2.77-0.517,3.395-1.953c0.681-1.562-0.277-2.651-1.323-3.639c-1.433-1.349-2.748-2.813-3.776-4.478
		c-1.567-2.537-1.023-5.371,1.242-7.306c2.115-1.806,4.688-1.722,7.028,0.368c1.266,1.131,2.561,2.267,3.461,3.752
		c1.228,2.032,2.89,3.632,4.828,4.989c5.284,3.695,7.545,8.961,7.782,15.243C90.823,24.609,90.787,25.75,90.787,26.891z"/>
	<path clip-path="url(#SVGID_2_)" fill-rule="evenodd" clip-rule="evenodd" fill="none" d="M8.199,17.982
		c-1.264-0.172-2.704,0.146-4.104,0.496c-5.525,1.391-7.85-2.255-6.522-7.152c0.881-3.247,2.741-5.962,4.631-8.65
		c2.004-2.854,3.046-5.957,2.67-9.448c-0.188-1.755-0.438-3.516-0.833-5.235c-0.574-2.509,0.639-4.219,2.483-5.479
		c1.719-1.176,3.682-0.889,5.39,0.16c2.415,1.484,4.231,3.592,5.537,6.104c1.348,2.593,3.405,4.574,5.639,6.327
		c3.139,2.463,4.727,5.261,3.991,9.486c-0.851,4.886,0.955,9.02,4.298,12.797c6.483,7.322,12.072,15.248,14.312,25.052
		c0.909,3.984,1.259,7.923,0.403,11.995c-0.803,3.815,0.142,7.259,3.147,9.982c1.709,1.549,2.972,3.439,3.881,5.557
		c0.636,1.481,0.75,3.004-0.308,4.31c-1.097,1.354-2.548,1.906-4.372,1.622c-3.388-0.529-6.2-2.062-8.553-4.512
		c-1.096-1.142-2.235-2.23-3.534-3.146c-2.082-1.467-4.311-2.164-6.784-1.169c-2.04,0.819-3.831,0.657-5.314-1.065
		c-4.227-4.906-9.722-7.284-16.014-8.127c-2.748-0.366-5.225-1.465-7.489-3.038c-4.397-3.053-4.86-8.743-1.278-12.691
		c2.49-2.745,5.981-3.702,8.909-5.633c4.069-2.681,7.307-6.191,7.856-11.269c0.446-4.127-2.711-7.225-6.882-7.274
		C9.044,17.979,8.728,17.982,8.199,17.982z M31.382,62.416c2.356,0.142,4.716,0.142,6.465-1.353
		c4.241-3.619,8.459-8.89,6.364-16.643c-2.234-8.266-7.253-14.82-12.854-20.927c-2.932-3.195-6.899-1.967-8.553,2.188
		c-1.228,3.08-2.814,5.888-5.162,8.3c-3.103,3.19-6.857,5.355-10.763,7.317c-2.193,1.102-4.078,2.519-5.4,4.624
		c-1.708,2.718-1.443,4.881,0.739,7.202c2.008,2.137,4.692,2.656,7.342,3.2c3.601,0.743,7.125,1.645,10.485,3.191
		C23.669,61.183,27.345,62.766,31.382,62.416z M23.204,9.555C23.01,3.41,20.688-0.859,15.62-3.436
		c-2.276-1.157-4.549-0.812-6.174,1.169C7.315,0.328,5.513,3.179,4.444,6.395c-0.935,2.815,0.061,5.051,2.797,6.185
		c3.216,1.334,6.577,2.271,9.971,3.021c2.463,0.545,4.956-0.999,5.491-3.239C22.966,11.264,23.287,10.15,23.204,9.555z"/>
	<path clip-path="url(#SVGID_2_)" fill-rule="evenodd" clip-rule="evenodd" fill="none" d="M88.491,61.274
		c2.052,0.116,3.801,0.62,5.429,1.771c2.068,1.463,3.547,3.409,4.929,5.443c1.083,1.595,1.38,3.363,0.661,5.24
		c-1.243,3.245-39.873,7.186-36.016,3.958c2.397-2.006,4.212-4.531,5.787-7.215c1.771-3.014,4.168-5.23,7.621-6.117
		c3.365-0.862,6.557-2.329,10.021-2.842C87.482,61.429,88.045,61.343,88.491,61.274z M97.594,73.402
		c0.125-1.095-0.005-2.172-0.486-3.147c-1.431-2.905-3.581-5.159-6.786-5.883c-5.016-1.13-9.674,0.292-13.411,3.541
		C72.588,71.67,96.874,79.741,97.594,73.402z"/>
	<path clip-path="url(#SVGID_2_)" fill-rule="evenodd"  fill="#3283BB" clip-rule="evenodd" d="M31.382,62.416c-4.037,0.35-7.712-1.233-11.335-2.899
		c-3.361-1.547-6.885-2.448-10.485-3.191c-2.65-0.544-5.334-1.063-7.342-3.2c-2.182-2.321-2.447-4.484-0.739-7.202
		c1.323-2.105,3.207-3.522,5.4-4.624c3.905-1.962,7.66-4.127,10.763-7.317c2.348-2.412,3.934-5.22,5.162-8.3
		c1.653-4.154,5.621-5.383,8.553-2.188c5.601,6.106,10.619,12.661,12.854,20.927c2.095,7.753-2.123,13.023-6.364,16.643
		C36.098,62.558,33.738,62.558,31.382,62.416z M31.362,62.057c1.067-0.043,2.135,0.047,3.208-0.185
		c4.173-0.897,6.113-4.25,8.123-7.447c1.22-1.941,1.969-4.161,1.663-6.507c-0.532-4.11-1.711-8.039-4.019-11.535
		c-2.226-3.373-4.469-6.738-6.832-10.016c-0.951-1.318-2.153-2.487-3.586-3.351c-2.081-1.255-3.6-1.063-5.231,0.725
		c-0.682,0.746-1.232,1.563-1.604,2.543c-1.179,3.099-2.861,5.861-5.232,8.251c-3.086,3.111-6.789,5.241-10.638,7.166
		c-2.262,1.133-4.169,2.625-5.489,4.802c-1.381,2.279-1.122,4.022,0.648,6.017c2.047,2.307,4.847,2.868,7.627,3.439
		c3.537,0.726,7.004,1.608,10.308,3.122C23.814,60.686,27.354,62.266,31.362,62.057z"/>
	<path clip-path="url(#SVGID_2_)" fill-rule="evenodd" clip-rule="evenodd" fill="#3283BB" d="M23.204,9.555
		c0.083,0.596-0.238,1.709-0.5,2.807c-0.536,2.24-3.028,3.784-5.491,3.239c-3.394-0.75-6.755-1.688-9.971-3.021
		C4.504,11.445,3.509,9.21,4.444,6.395c1.069-3.216,2.872-6.066,5.002-8.661c1.625-1.981,3.897-2.327,6.174-1.169
		C20.688-0.859,23.01,3.41,23.204,9.555z M22.794,8.779c-0.321-5.095-2.516-9.068-7.051-11.586C13.231-4.203,11.16-3.786,9.43-1.469
		C7.765,0.763,6.304,3.143,5.187,5.704C3.829,8.81,4.664,10.977,7.805,12.27c3.103,1.276,6.353,2.132,9.605,2.928
		c1.904,0.469,3.299-0.584,4.349-2.045C22.685,11.865,22.665,10.301,22.794,8.779z"/>
	<path clip-path="url(#SVGID_2_)" fill-rule="evenodd" clip-rule="evenodd" fill="none" d="M31.362,62.057
		c-4.008,0.209-7.548-1.371-11.054-2.976c-3.304-1.514-6.771-2.396-10.308-3.122c-2.781-0.571-5.58-1.133-7.627-3.439
		c-1.77-1.994-2.029-3.737-0.648-6.017c1.32-2.177,3.227-3.669,5.489-4.802c3.849-1.925,7.551-4.055,10.638-7.166
		c2.371-2.39,4.054-5.152,5.232-8.251c0.372-0.979,0.923-1.797,1.604-2.543c1.631-1.788,3.15-1.979,5.231-0.725
		c1.433,0.863,2.635,2.032,3.586,3.351c2.363,3.277,4.606,6.643,6.832,10.016c2.308,3.496,3.486,7.425,4.019,11.535
		c0.306,2.346-0.443,4.565-1.663,6.507c-2.01,3.197-3.95,6.55-8.123,7.447C33.497,62.104,32.429,62.014,31.362,62.057z
		 M42.152,47.322c-0.231-3.575-2.444-7.236-6.2-10.012c-3.425-2.526-6.955-3.189-10.648-0.46c-2.982,2.205-6.488,3.352-9.847,4.809
		c-3.285,1.425-6.785,2.521-9.322,5.299c-1.766,1.933-1.678,4.067,0.308,5.79c1.195,1.037,2.699,1.398,4.178,1.672
		c4.363,0.802,8.566,2.057,12.719,3.647c4.012,1.535,8.247,2.357,12.237-0.176C39.034,55.695,42.307,53.266,42.152,47.322z"/>
	<path clip-path="url(#SVGID_2_)" fill-rule="evenodd" clip-rule="evenodd" fill="none" d="M22.794,8.779
		c-0.13,1.521-0.109,3.086-1.036,4.373c-1.049,1.461-2.444,2.514-4.349,2.045c-3.252-0.796-6.502-1.651-9.605-2.928
		c-3.141-1.293-3.976-3.46-2.618-6.565C6.304,3.143,7.765,0.763,9.43-1.469c1.73-2.316,3.802-2.734,6.314-1.337
		C20.278-0.289,22.474,3.685,22.794,8.779z"/>
	<path clip-path="url(#SVGID_2_)" fill-rule="evenodd"  fill="#3283BB" clip-rule="evenodd" d="M42.152,47.322c0.154,5.943-3.118,8.373-6.575,10.569
		c-3.99,2.533-8.225,1.711-12.237,0.176c-4.152-1.591-8.356-2.846-12.719-3.647c-1.479-0.273-2.983-0.635-4.178-1.672
		c-1.985-1.723-2.073-3.857-0.308-5.79c2.537-2.777,6.037-3.874,9.322-5.299c3.359-1.457,6.865-2.604,9.847-4.809
		c3.693-2.729,7.223-2.066,10.648,0.46C39.708,40.086,41.921,43.747,42.152,47.322z M41.786,48.635
		c-0.009-5.562-5.308-12.063-10.689-13.091c-1.373-0.262-2.729-0.006-3.825,0.761c-4.455,3.107-9.532,4.895-14.455,7.022
		c-2.378,1.027-4.724,2.152-6.477,4.19c-1.384,1.609-1.359,2.947,0.114,4.501c1.258,1.328,2.945,1.714,4.608,2.026
		c4.296,0.812,8.459,1.985,12.534,3.61c4.395,1.751,8.858,2.246,12.942-0.973C39.189,54.595,41.802,52.462,41.786,48.635z"/>
	<path clip-path="url(#SVGID_2_)" fill-rule="evenodd" clip-rule="evenodd" fill="none" d="M41.786,48.635
		c0.016,3.827-2.597,5.96-5.248,8.048c-4.084,3.219-8.547,2.724-12.942,0.973c-4.074-1.625-8.237-2.798-12.534-3.61
		c-1.663-0.312-3.35-0.698-4.608-2.026c-1.473-1.554-1.498-2.892-0.114-4.501c1.752-2.038,4.099-3.163,6.477-4.19
		c4.923-2.128,10-3.915,14.455-7.022c1.097-0.767,2.452-1.022,3.825-0.761C36.479,36.571,41.777,43.073,41.786,48.635z
		 M28.626,56.752c3.177,0.011,5.464-0.709,7.528-1.999c4.256-2.656,4.656-8.015,0.928-11.226c-2.961-2.55-6.128-2.302-9.346-0.655
		c-3.358,1.721-6.913,2.72-10.626,3.281c-1.364,0.206-2.712,0.585-4.034,0.997c-1.415,0.443-2.488,1.283-2.433,2.963
		c0.053,1.633,1.167,2.321,2.563,2.59c3.737,0.716,7.3,2.003,10.918,3.126C25.803,56.349,27.54,56.749,28.626,56.752z"/>
	<path clip-path="url(#SVGID_2_)" fill-rule="evenodd"  fill="#3283BB" clip-rule="evenodd" d="M28.626,56.752c-1.087-0.003-2.824-0.403-4.502-0.923
		c-3.618-1.123-7.181-2.41-10.918-3.126c-1.396-0.269-2.51-0.957-2.563-2.59c-0.055-1.68,1.018-2.52,2.433-2.963
		c1.322-0.412,2.67-0.791,4.034-0.997c3.713-0.562,7.268-1.561,10.626-3.281c3.218-1.646,6.385-1.895,9.346,0.655
		c3.729,3.211,3.328,8.569-0.928,11.226C34.091,56.043,31.804,56.763,28.626,56.752z M28.878,56.402
		c2.869-0.133,5.164-0.833,7.169-2.216c2.977-2.055,3.883-5.103,2.518-7.894c-1.575-3.218-5.026-4.9-8.318-3.843
		c-2.093,0.67-4.079,1.671-6.122,2.5c-3.363,1.365-7.056,1.349-10.472,2.487c-1.302,0.435-2.583,1.075-2.549,2.648
		c0.033,1.553,1.378,2.054,2.638,2.284c3.618,0.666,7.051,1.938,10.547,3.009C25.908,55.875,27.603,56.125,28.878,56.402z"/>
	<path clip-path="url(#SVGID_2_)" fill-rule="evenodd" clip-rule="evenodd" fill="none" d="M28.878,56.402
		c-1.276-0.277-2.971-0.527-4.589-1.023c-3.496-1.07-6.929-2.343-10.547-3.009c-1.26-0.23-2.605-0.731-2.638-2.284
		c-0.034-1.573,1.247-2.214,2.549-2.648c3.416-1.139,7.109-1.122,10.472-2.487c2.043-0.829,4.029-1.83,6.122-2.5
		c3.292-1.058,6.743,0.625,8.318,3.843c1.365,2.791,0.459,5.839-2.518,7.894C34.042,55.569,31.748,56.27,28.878,56.402z
		 M31.023,48.771c-1.975,0.021-2.907,0.8-2.934,2.364c-0.025,1.43,0.705,2.106,2.057,2.103c1.861-0.006,3.205-1.075,3.228-2.496
		C33.401,49.133,32.405,48.717,31.023,48.771z"/>
	<path clip-path="url(#SVGID_2_)" fill-rule="evenodd"  fill="#3283BB" clip-rule="evenodd" d="M31.022,48.771c1.383-0.055,2.379,0.361,2.353,1.97
		c-0.023,1.421-1.367,2.49-3.228,2.496c-1.353,0.004-2.082-0.673-2.057-2.103C28.116,49.57,29.049,48.791,31.022,48.771z
		 M31.006,49.154c-1.002,0.236-2.323,0.244-2.492,1.837c-0.114,1.068,0.482,1.664,1.501,1.767c1.392,0.14,2.967-0.987,2.919-2.079
		C32.885,49.584,32.141,49.212,31.006,49.154z"/>
	<path clip-path="url(#SVGID_2_)" fill-rule="evenodd" clip-rule="evenodd" fill="none" d="M31.006,49.154
		c1.135,0.058,1.878,0.43,1.928,1.524c0.048,1.092-1.527,2.219-2.919,2.079c-1.02-0.103-1.615-0.698-1.501-1.767
		C28.684,49.398,30.004,49.391,31.006,49.154z"/>
</g>
<rect x="4.5" y="2.5" fill="none" stroke="#000000" stroke-miterlimit="10" width="64.625" height="57.625"/>
</svg>
