<?xml version="1.0" encoding="UTF-8" standalone="no"?>
<svg width="16px" height="16px" viewBox="0 0 16 16" version="1.1" xmlns="http://www.w3.org/2000/svg" xmlns:xlink="http://www.w3.org/1999/xlink">
    <!-- Generator: Sketch 3.6.1 (26313) - http://www.bohemiancoding.com/sketch -->
    <title>Untitled</title>
    <desc>Created with Sketch.</desc>
    <defs></defs>
    <g id="Page-1" stroke="none" stroke-width="1" fill="none" fill-rule="evenodd">
        <g id="Main-Draw-Icon" fill="#FFFFFF">
            <path d="M1.49446667,14.5065333 C2.8278,14.5212 4.20046667,14.5505333 5.48246667,14.6452 L14.5311333,5.59653333 C14.1691333,4.66386667 13.6111333,3.80653333 12.9031333,3.09786667 C12.1944667,2.38853333 11.3378,1.8312 10.4058,1.4692 L1.3558,10.5185333 C1.44846667,11.7798667 1.47846667,13.1238667 1.49446667,14.5065333 M5.73713333,15.9998667 C5.71846667,15.9998667 5.70046667,15.9992 5.6818,15.9978667 C4.1498,15.8712 2.44446667,15.8472 0.828466667,15.8332 C0.4658,15.8298667 0.1718,15.5365333 0.1678,15.1732 C0.1518,13.4718667 0.1278,11.8212 0.00246666667,10.3198667 C-0.0142,10.1245333 0.0564666667,9.93186667 0.195133333,9.7932 L9.76046667,0.2292 C9.9378,0.0525333333 10.1998,-0.0114666667 10.4371333,0.0665333333 C11.7151333,0.480533333 12.8938,1.20253333 13.8464667,2.1552 C14.7978,3.1072 15.5198,4.28586667 15.9351333,5.5632 C16.0124667,5.80186667 15.9498,6.06386667 15.7724667,6.2412 L6.20846667,15.8045333 C6.08313333,15.9305333 5.91313333,15.9998667 5.73713333,15.9998667" id="Fill-1"></path>
            <path d="M13.6979333,7.19273333 C13.6126,7.19273333 13.5272667,7.16006667 13.4619333,7.0954 L8.90526667,2.5394 C8.7746,2.40873333 8.7746,2.19806667 8.90526667,2.06806667 C9.03526667,1.9374 9.24593333,1.9374 9.3766,2.06806667 L13.9339333,6.6234 C14.0639333,6.75406667 14.0639333,6.96473333 13.9339333,7.0954 C13.8686,7.16006667 13.7832667,7.19273333 13.6979333,7.19273333" id="Fill-3"></path>
            <path d="M5.77346667,15.1132667 C5.6328,15.1132667 5.50213333,15.0232667 5.45613333,14.8826 C4.7908,12.8319333 3.16946667,11.2106 1.1188,10.5446 C0.943466667,10.4886 0.847466667,10.2999333 0.904133333,10.1252667 C0.961466667,9.9506 1.14946667,9.8546 1.32413333,9.9106 C3.57746667,10.6419333 5.35946667,12.4239333 6.0908,14.6772667 C6.14746667,14.8519333 6.05146667,15.0406 5.87613333,15.0972667 C5.84213333,15.1079333 5.80746667,15.1132667 5.77346667,15.1132667" id="Fill-5"></path>
            <path d="M1.15693333,14.8444 L2.8096,14.9010667 C2.76893333,13.9577333 2.0296,13.1917333 1.0976,13.1110667 L1.15693333,14.8444 Z M3.11426667,15.5784 L3.1056,15.5784 L0.8236,15.4997333 C0.648266667,15.4937333 0.5076,15.3537333 0.5016,15.1784 L0.4196,12.7997333 C0.4136,12.6217333 0.5476,12.4704 0.724266667,12.4557333 C0.8276,12.4430667 0.878933333,12.4377333 0.9336,12.4377333 C2.33693333,12.4377333 3.4776,13.5790667 3.4776,14.9817333 C3.4776,15.0697333 3.46693333,15.1544 3.45426667,15.2397333 C3.43093333,15.4050667 3.28093333,15.5784 3.11426667,15.5784 L3.11426667,15.5784 Z" id="Fill-7"></path>
        </g>
    </g>
</svg>