<?xml version="1.0" encoding="UTF-8" standalone="no"?>
<svg width="19px" height="23px" viewBox="0 0 19 23" version="1.1" xmlns="http://www.w3.org/2000/svg" xmlns:xlink="http://www.w3.org/1999/xlink">
    <!-- Generator: Sketch 3.6.1 (26313) - http://www.bohemiancoding.com/sketch -->
    <title>Untitled</title>
    <desc>Created with Sketch.</desc>
    <defs></defs>
    <g id="Page-1" stroke="none" stroke-width="1" fill="none" fill-rule="evenodd">
        <g id="PDF" fill="#424953">
            <path d="M11.332,22.5 C11.056,22.5 10.832,22.276 10.832,22 L10.832,16 C10.832,15.724 11.056,15.5 11.332,15.5 L17.332,15.5 C17.608,15.5 17.832,15.724 17.832,16 C17.832,16.276 17.608,16.5 17.332,16.5 L11.832,16.5 L11.832,22 C11.832,22.276 11.608,22.5 11.332,22.5" id="Fill-1"></path>
            <path d="M11.332,23 L1,23 C0.447,23 0,22.553 0,22 L0,16 C0,15.447 0.447,15 1,15 C1.553,15 2,15.447 2,16 L2,21 L10.918,21 L16.332,15.586 L16.332,2.472 L1,2.472 C0.447,2.472 0,2.024 0,1.472 C0,0.919 0.447,0.472 1,0.472 L17.332,0.472 C17.885,0.472 18.332,0.919 18.332,1.472 L18.332,16 C18.332,16.266 18.227,16.52 18.039,16.707 L12.039,22.707 C11.852,22.895 11.598,23 11.332,23" id="Fill-3"></path>
            <path d="M1.8311,5.3838 L1.8311,8.4648 L2.5071,8.4648 C2.9621,8.4648 3.2091,8.2568 3.2091,7.6068 L3.2091,6.2408 C3.2091,5.5908 2.9621,5.3838 2.5071,5.3838 L1.8311,5.3838 Z M4.6391,6.3318 L4.6391,7.5158 C4.6391,8.9718 3.9371,9.7648 2.5071,9.7648 L1.8311,9.7648 L1.8311,13.1838 L0.4001,13.1838 L0.4001,4.0828 L2.5071,4.0828 C3.9371,4.0828 4.6391,4.8758 4.6391,6.3318 L4.6391,6.3318 Z" id="Fill-5"></path>
            <path d="M6.7324,5.3838 L6.7324,11.8838 L7.5384,11.8838 C7.9934,11.8838 8.2664,11.6498 8.2664,10.9988 L8.2664,6.2678 C8.2664,5.6168 7.9934,5.3838 7.5384,5.3838 L6.7324,5.3838 Z M5.3024,4.0828 L7.5644,4.0828 C8.9944,4.0828 9.6964,4.8758 9.6964,6.3318 L9.6964,10.9348 C9.6964,12.3908 8.9944,13.1838 7.5644,13.1838 L5.3024,13.1838 L5.3024,4.0828 Z" id="Fill-7"></path>
            <path d="M12.0361,8.126 L13.8821,8.126 L13.8821,9.427 L12.0361,9.427 L12.0361,13.184 L10.6051,13.184 L10.6051,4.083 L14.3891,4.083 L14.3891,5.384 L12.0361,5.384 L12.0361,8.126 Z" id="Fill-9"></path>
        </g>
    </g>
</svg>