<?xml version="1.0" encoding="UTF-8" standalone="no"?>
<svg width="23px" height="23px" viewBox="0 0 23 23" version="1.1" xmlns="http://www.w3.org/2000/svg" xmlns:xlink="http://www.w3.org/1999/xlink">
    <!-- Generator: Sketch 3.6.1 (26313) - http://www.bohemiancoding.com/sketch -->
    <title>Plus Close</title>
    <desc>Created with Sketch.</desc>
    <defs>
        <path id="path-1" d="M21.8012414,21.7997241 L21.8012414,0.000227586207 L7.58620672e-05,0.000227586207 L7.58620672e-05,21.7997241 L21.8012414,21.7997241 L21.8012414,21.7997241 Z"></path>
    </defs>
    <g id="Welcome" stroke="none" stroke-width="1" fill="none" fill-rule="evenodd">
        <g id="Known-Areas-High-Priority-Expanded" transform="translate(-779.000000, -195.000000)">
            <g id="High-Priority" transform="translate(766.000000, 193.000000)">
                <g id="Plus-Close" transform="translate(13.556349, 2.556349)">
                    <mask id="mask-2" fill="white">
                        <use xlink:href="#path-1"></use>
                    </mask>
                    <g id="Clip-2"></g>
                    <path d="M10.9006966,0 C4.88028276,0 7.58620672e-05,4.8802069 7.58620672e-05,10.8998621 C7.58620672e-05,16.9202759 4.88028276,21.7997241 10.9006966,21.7997241 C16.9211103,21.7997241 21.8013172,16.9202759 21.8013172,10.8998621 C21.8013172,4.8802069 16.9211103,0 10.9006966,0 M10.9006966,1.36248276 C16.1594552,1.36248276 20.4380759,5.64110345 20.4380759,10.8998621 C20.4380759,16.1593793 16.1594552,20.4584828 10.9006966,20.4584828 C5.64193793,20.4584828 1.36331724,16.1593793 1.36331724,10.8998621 C1.36331724,5.64110345 5.64193793,1.36248276 10.9006966,1.36248276" id="Fill-1" fill="#4A4A4A" mask="url(#mask-2)"></path>
                    <path d="M8.00997241,7.04644828 L14.754869,13.7905862 C15.0211448,14.0561034 15.0211448,14.4877586 14.754869,14.7540345 C14.4878345,15.0195517 14.0569379,15.0195517 13.7914207,14.7540345 L7.04652414,8.00989655 C6.78024828,7.74362069 6.78024828,7.31272414 7.04652414,7.04644828 C7.31355862,6.78017241 7.74445517,6.78017241 8.00997241,7.04644828" id="Fill-4" fill="#4A4A4A" mask="url(#mask-2)"></path>
                    <path d="M14.7545655,8.0095931 L8.00966897,14.753731 C7.74491034,15.0200069 7.31325517,15.0200069 7.04697931,14.753731 C6.77994483,14.4882138 6.77994483,14.0565586 7.04697931,13.7902828 L13.7911172,7.04614483 C14.0566345,6.77986897 14.487531,6.77986897 14.7545655,7.04614483 C15.0216,7.31242069 15.0216,7.74331724 14.7545655,8.0095931" id="Fill-6" fill="#4A4A4A" mask="url(#mask-2)"></path>
                </g>
            </g>
        </g>
    </g>
</svg>