<?xml version="1.0" encoding="UTF-8" standalone="no"?>
<svg width="14px" height="16px" viewBox="0 0 14 16" version="1.1" xmlns="http://www.w3.org/2000/svg" xmlns:xlink="http://www.w3.org/1999/xlink">
    <!-- Generator: Sketch 3.6.1 (26313) - http://www.bohemiancoding.com/sketch -->
    <title>Untitled</title>
    <desc>Created with Sketch.</desc>
    <defs>
        <path id="path-1" d="M0,0.44288 L13.5685455,0.44288 L13.5685455,16 L0,16"></path>
    </defs>
    <g id="Page-1" stroke="none" stroke-width="1" fill="none" fill-rule="evenodd">
        <g id="Reset-Icon">
            <mask id="mask-2" fill="white">
                <use xlink:href="#path-1"></use>
            </mask>
            <g id="Clip-2"></g>
            <path d="M6.78497273,16 C3.04379091,16 6.36363638e-05,12.93952 6.36363638e-05,9.17696 C6.36363638e-05,8.82304 0.284518182,8.53696 0.636427273,8.53696 C0.988336364,8.53696 1.27279091,8.82304 1.27279091,9.17696 C1.27279091,12.23296 3.74506364,14.72 6.78497273,14.72 C9.82360909,14.72 12.2958818,12.23296 12.2958818,9.17696 C12.2958818,6.11968 9.82360909,3.63264 6.78497273,3.63264 C6.43306364,3.63264 6.14860909,3.34656 6.14860909,2.99264 C6.14860909,2.63872 6.43306364,2.35264 6.78497273,2.35264 C10.5248818,2.35264 13.5686091,5.41376 13.5686091,9.17696 C13.5686091,12.93952 10.5248818,16 6.78497273,16" id="Fill-1" fill="#FFFFFF" mask="url(#mask-2)"></path>
            <path d="M7.65125455,5.610624 C7.47752727,5.610624 7.30316364,5.538944 7.1778,5.398144 L5.44370909,3.454464 C5.22607273,3.211264 5.22607273,2.842624 5.44370909,2.599424 L7.1778,0.655744 C7.41261818,0.393344 7.81543636,0.370304 8.07634545,0.607104 C8.33725455,0.842624 8.35952727,1.247744 8.12470909,1.510784 L6.77243636,3.026944 L8.12470909,4.543104 C8.35952727,4.806144 8.33725455,5.211264 8.07634545,5.446784 C7.9548,5.556864 7.80270909,5.610624 7.65125455,5.610624" id="Fill-4" fill="#FFFFFF" mask="url(#mask-2)"></path>
        </g>
    </g>
</svg>