<?xml version="1.0" encoding="UTF-8" standalone="no"?>
<svg width="16px" height="18px" viewBox="0 0 16 18" version="1.1" xmlns="http://www.w3.org/2000/svg" xmlns:xlink="http://www.w3.org/1999/xlink">
    <!-- Generator: Sketch 3.6.1 (26313) - http://www.bohemiancoding.com/sketch -->
    <title>Untitled</title>
    <desc>Created with Sketch.</desc>
    <defs>
        <path id="path-1" d="M0,0.544 L15.8928696,0.544 L15.8928696,17 L0,17"></path>
    </defs>
    <g id="Page-1" stroke="none" stroke-width="1" fill="none" fill-rule="evenodd">
        <g id="Search-Icon">
            <path d="M3.03394783,7.60353333 L2.33829565,7.60353333 C2.33968696,5.023075 4.4016,2.92428333 6.93446957,2.92428333 L6.93446957,3.63261667 C4.78490435,3.63261667 3.03533913,5.414075 3.03394783,7.60353333" id="Fill-4" fill="#FFFFFF"></path>
            <path d="M15.1970087,17 C15.0189217,17 14.8408348,16.9305833 14.7051826,16.7924583 L10.8317913,12.8491667 C10.5597913,12.5722083 10.5597913,12.1238333 10.8317913,11.8475833 C11.1030957,11.570625 11.5434435,11.570625 11.8154435,11.8475833 L15.6888348,15.790875 C15.9608348,16.0678333 15.9608348,16.5155 15.6888348,16.7924583 C15.5531826,16.9305833 15.3750957,17 15.1970087,17" id="Fill-6" fill="#FFFFFF"></path>
            <mask id="mask-2" fill="white">
                <use xlink:href="#path-1"></use>
            </mask>
            <g id="Clip-2"></g>
            <path d="M6.93474783,1.96038333 C3.87944348,1.96109167 1.39248696,4.49409167 1.39109565,7.60721667 C1.39248696,10.7175083 3.87874783,13.2490917 6.93335652,13.2490917 C9.99074783,13.2490917 12.4784,10.7168 12.4784,7.6058 C12.4770087,4.492675 9.99005217,1.96038333 6.93474783,1.96038333 M6.93335652,14.6657583 C3.11144348,14.6657583 0.0011826087,11.4995083 -0.000208695652,7.60721667 C0.0011826087,3.71350833 3.11213913,0.544425 6.93474783,0.543716667 C10.7573565,0.543716667 13.868313,3.71209167 13.8697043,7.6058 C13.8697043,11.4988 10.7580522,14.6657583 6.93335652,14.6657583" id="Fill-1" fill="#FFFFFF" mask="url(#mask-2)"></path>
        </g>
    </g>
</svg>