<?xml version="1.0" encoding="iso-8859-1"?>
<!-- Generator: Adobe Illustrator 16.0.4, SVG Export Plug-In . SVG Version: 6.00 Build 0)  -->
<!DOCTYPE svg PUBLIC "-//W3C//DTD SVG 1.1//EN" "http://www.w3.org/Graphics/SVG/1.1/DTD/svg11.dtd">
<svg version="1.1" id="Layer_1" xmlns="http://www.w3.org/2000/svg" xmlns:xlink="http://www.w3.org/1999/xlink" x="0px" y="0px"
	 width="100px" height="100px" viewBox="0 0 100 100" style="enable-background:new 0 0 100 100;" xml:space="preserve">
<path style="fill:#4A4A4A;" d="M53.04,81.857c0.061,0.016,0.117,0.047,0.18,0.051c0.034,0.004,0.062,0.006,0.094,0.006
	c0.1,0,0.196-0.031,0.291-0.057h0.048V81.85c0.441-0.137,0.783-0.52,0.819-1.008c0.004-0.025,0.191-6.197,0.866-10.518
	c0.492-3.17,1.94-7.133,6.04-8.027c1.076-0.236,2.055-0.465,2.972-0.676c2.585-0.6,4.632-1.07,6.774-1.258
	c1.094-0.094,1.981-0.758,2.438-1.812c0.677-1.582,0.307-3.881-0.865-5.344c-0.911-1.141-2.215-1.65-3.578-1.398
	c-1.225,0.227-2.531,0.604-3.792,0.967c-0.996,0.287-2.399,0.691-3.171,0.791c0.122-0.695,0.825-1.73,4.008-5.309
	c4.13-4.646,5.872-4.996,8.6-5.215c2.676-0.209,4.759-3.488,4.588-6.027c-0.107-1.641-1.198-3.344-3.962-3.193
	c-4.856,0.262-5.938,0.916-8.357,2.764l-0.103,0.076c-0.236,0.184-0.387,0.234-0.416,0.266c-0.137-0.262-0.182-1.408,1.094-2.873
	c1.383-1.59,2.502-3.631,3.59-5.604c1.027-1.869,2.089-3.801,3.31-5.205c0.812-0.932,0.979-2.082,0.459-3.162
	c-0.84-1.75-3.459-3.049-5.955-2.934c-2.331,0.096-4.131,1.369-4.934,3.484c-0.819,2.146-1.747,4.178-2.55,5.734
	c0.213-2.596,0.105-5.68-1.278-7.215c-0.609-0.676-1.406-1.006-2.309-0.961c-0.239,0.012-0.501,0.018-0.771,0.023
	c-1.671,0.043-3.96,0.098-5.195,1.734c-0.843,1.123-0.987,2.688-0.438,4.779c1.347,5.141,1.708,7.867,1.492,11.219
	c-0.028,0.424-0.057,0.902-0.086,1.414c-0.06,1.064-0.159,2.814-0.31,4.201c-1.022-2.16-1.979-4.367-3.043-7.244
	c-0.519-1.395-1.646-2.336-3.092-2.584c-1.534-0.258-3.151,0.33-4.124,1.506c-0.59,0.711-1.449,2.256-0.57,4.623l0.191,0.518
	c1.514,4.072,1.708,4.598,3.105,7.523c1.124,2.354,2.178,6.732,2.511,8.191c-0.037,0.02-0.077,0.029-0.117,0.049
	c-1.494,0.883-1.805,2.906-2.175,5.707c-0.228-0.641-0.461-1.477-0.641-2.467c-0.73-4.072-2.203-7.602-4.5-10.787
	c-1.207-1.682-1.133-2.939-1.036-4.533c0.06-1.043,0.131-2.227-0.214-3.547c-0.128-0.492-0.222-0.924-0.307-1.307
	c-0.492-2.246-0.9-3.438-4.039-3.893c-1.515-0.219-2.812,0.252-3.652,1.324c-0.441,0.57-0.727,1.287-0.84,2.064
	c-0.467-0.576-0.957-1.184-1.406-1.748c-0.996-1.246-2.295-1.812-3.655-1.611c-1.378,0.211-2.618,1.24-3.157,2.623
	c-0.521,1.332-0.315,2.729,0.567,3.828c0.626,0.787,1.366,1.889,2.22,3.168c1.922,2.881,4.312,6.465,7.516,9.572
	c2.018,1.959,2.567,3.609,2.413,4.5c-0.048,0.268-0.147,0.367-0.168,0.375c-0.009,0.01-0.077-0.002-0.185-0.066
	c-2.32-1.393-5.084-2.984-8.531-4.262c-1.995-0.744-3.939,0.17-4.734,2.215c-0.842,2.168-0.127,5.127,2.853,6.336
	c4.754,1.934,10.578,5.27,11.688,7.289c1.099,2,2.539,9.078,3,11.639c0.103,0.562,0.592,0.959,1.145,0.959"/>
</svg>
