<?xml version="1.0" encoding="iso-8859-1"?>
<!-- Generator: Adobe Illustrator 16.0.4, SVG Export Plug-In . SVG Version: 6.00 Build 0)  -->
<!DOCTYPE svg PUBLIC "-//W3C//DTD SVG 1.1//EN" "http://www.w3.org/Graphics/SVG/1.1/DTD/svg11.dtd">
<svg version="1.1" id="Layer_1" xmlns="http://www.w3.org/2000/svg" xmlns:xlink="http://www.w3.org/1999/xlink" x="0px" y="0px"
	 width="100px" height="100px" viewBox="0 0 100 100" style="enable-background:new 0 0 100 100;" xml:space="preserve">
<g>
	<path style="fill:#FFFFFF;" d="M69.369,74.108c0,0.492-0.398,0.891-0.892,0.891H31.523c-0.492,0-0.893-0.398-0.893-0.891V25.892
		c0-0.492,0.4-0.891,0.893-0.891h36.954c0.493,0,0.892,0.398,0.892,0.891V74.108z"/>
	<path style="fill:none;stroke:#005189;stroke-width:0.7422;" d="M69.369,74.108c0,0.492-0.398,0.891-0.892,0.891H31.523
		c-0.492,0-0.893-0.398-0.893-0.891V25.892c0-0.492,0.4-0.891,0.893-0.891h36.954c0.493,0,0.892,0.398,0.892,0.891V74.108z"/>
	<path style="fill:#005189;" d="M52.54,42.304c-0.176,0.316-0.129,0.556-0.244,0.747c-0.207,0.344-0.521,0.993-0.373,1.229
		c0.722,1.153,0.871,2.788,0.896,3.005c0.076,0.724-0.036,2.062-0.077,2.373c-0.173,1.289-0.573,1.763-0.713,1.911
		c-0.373,0.392-0.829,0.061-1.039-0.114c-0.238-0.202-0.507-0.575-0.89-1.575c-0.154-0.403-0.742-1.384-0.848-1.547
		c-0.375-0.579-1.497-2.632-1.871-3.774c-0.44-1.346-0.345-3.18-0.314-4.045c0.014-0.447-0.143-1.22-0.437-1.459
		c-1.746-1.422-2.585-2.494-2.585-2.494s-4.146-0.456-5.694,0.384c-0.23,0.124-0.573,0.239-0.948,0.449
		c-0.185,0.104-0.711,0.222-1.124,0.201c-0.933-0.045-1.957-0.556-2.153-0.737c-0.288-0.096-1.234-0.105-1.421-0.144
		c-0.259-0.053-0.471-0.155-0.471-0.329c-0.01-0.309,0.306-0.414,0.44-0.432c0.379-0.048,0.742-0.096,0.867-0.153
		c0.479-0.221,0.885-0.599,0.962-0.664c1.079-0.945,1.526-0.767,1.526-0.767c0.719,0,1.843,0.779,1.843,0.779h29.686
		c0.483,0.049-1.44,1.322-2.947,1.509c-0.277,0.162-0.935,0.794-1.068,0.88c-0.652,0.419-1.469,0.617-1.842,0.866l-0.056,0.038
		c0.078,0.083,0.154,0.172,0.334,0.172c0.127,0,0.56-0.172,0.76-0.009c0.097,0.078,0.624,0.223,0.804,0.223
		c0.517,0,0.479,0.085,1.02-0.051c0.133-0.033,0.183,0.02,0.192,0.105c0.01,0.097-0.163,0.144-0.431,0.287
		c-0.241,0.129-0.526,0.254-0.981,0.359c-0.119,0.027-0.431-0.038-0.556-0.115c-0.287-0.178-0.527,0.019-0.942,0.019
		c-0.36,0-0.417,0.063-0.736-0.09c-0.161-0.076-0.31-0.043-0.481,0.039c-0.631,0.527-1.271,0.922-1.941,1.258
		c-0.191,0.216,0.038,0.627,0.038,0.627c0.981,1.487,2.122,3.966,2.231,4.206c1.507,3.331,1.67,5.541,1.688,5.972
		c0.022,0.508-0.096,0.666-0.211,0.752c-0.33,0.246-0.778-0.009-0.875-0.058c-0.263-0.131-2.496-2.306-2.748-2.497
		c-1.755-1.345-3.366-3.153-3.366-3.153c-0.744-0.898-1.204-1.709-1.204-1.709c-0.479-0.797-0.938-2.133-1.028-2.427
		C53.124,42.068,52.686,42.042,52.54,42.304"/>
	<path style="fill:#FFFFFF;" d="M52.359,37.976c-0.239-0.038-2.277-0.709-3.062-1.278c-0.054-0.038-0.402-0.2-0.666,0.109
		c-0.217,0.258-0.909,0.91-1.344,1.14c-0.238,0.126-0.278,0.35-0.125,0.465c0,0,1.547,2.282,5.218,3.244
		c0,0,0.524-0.019,0.664-0.095c-0.009-0.202-0.259-0.97-0.312-1.078C52.57,40.149,52.33,39.756,52.359,37.976"/>
	<path style="fill:#FFFFFF;" d="M63.615,36.305c0.105-0.125,0.202-0.249-0.028-0.335c0,0-0.327,0.02-0.546,0.02
		c0,0-0.096,0.048-0.182,0.066c0,0-0.607,0.307-0.733,0.431c0,0-0.697,0.561-1.603,0.522c0,0-1.127-0.243-1.016,0.633
		c0,0,0.11,1.469-0.22,2.147c-0.014,0.11-0.118,0.225,0.12,0.225c0.154,0,0.514-0.036,0.915-0.531
		c0.163-0.201,0.621-0.43,0.43-0.679c0,0-0.095-0.221-0.497-0.23c-0.427-0.2-0.291-0.461-0.277-0.56
		c0.023-0.173,0.217-0.081,0.277-0.153c0.105-0.124,0.507-0.123,0.642-0.019c0.123,0.096,0.306,0.239,0.383,0.33
		c0.56,0.028,1.693-0.378,1.248-0.483c-0.12-0.029-0.163-0.145-0.067-0.269c0,0,0.499-0.375,0.609-0.594
		C63.07,36.826,63.463,36.485,63.615,36.305"/>
	<path style="fill:none;stroke:#005189;stroke-width:0.3304;" d="M63.615,36.305c0.105-0.125,0.202-0.249-0.028-0.335
		c0,0-0.327,0.02-0.546,0.02c0,0-0.096,0.048-0.182,0.066c0,0-0.607,0.307-0.733,0.431c0,0-0.697,0.561-1.603,0.522
		c0,0-1.127-0.243-1.016,0.633c0,0,0.11,1.469-0.22,2.147c-0.014,0.11-0.118,0.225,0.12,0.225c0.154,0,0.514-0.036,0.915-0.531
		c0.163-0.201,0.621-0.43,0.43-0.679c0,0-0.095-0.221-0.497-0.23c-0.427-0.2-0.291-0.461-0.277-0.56
		c0.023-0.173,0.217-0.081,0.277-0.153c0.105-0.124,0.507-0.123,0.642-0.019c0.123,0.096,0.306,0.239,0.383,0.33
		c0.56,0.028,1.693-0.378,1.248-0.483c-0.12-0.029-0.163-0.145-0.067-0.269c0,0,0.499-0.375,0.609-0.594
		C63.07,36.826,63.463,36.485,63.615,36.305z"/>
	<path style="fill:#005189;" d="M38.668,56.175h0.01c0.025-0.31,0.086-1.527,0.086-2.095h0.962c-0.03,0.329-0.173,2.386-0.187,3.235
		h-1.229c-0.389-0.703-0.851-1.373-1.208-2.058h-0.011c-0.015,0.291-0.075,1.573-0.075,2.058H36.05
		c0.065-0.514,0.172-2.305,0.172-3.235h1.259L38.668,56.175z"/>
	<path style="fill:#005189;" d="M41.314,56.384l-0.442,0.933h-1.158c0.359-0.568,1.496-2.668,1.771-3.237h1.271
		c0.387,1.087,0.804,2.164,1.232,3.237h-1.117c-0.086-0.316-0.201-0.622-0.317-0.933H41.314z M42.378,55.705l-0.311-0.928
		l-0.454,0.928H42.378z"/>
	<path style="fill:#005189;" d="M47.069,54.08l-0.03,0.718c-0.041-0.006-0.655-0.024-1.042-0.024
		c-0.061,0.772-0.105,1.936-0.11,2.542h-1.083c0.08-0.776,0.136-1.562,0.146-2.542c-0.348,0-0.693,0.015-1.047,0.024l0.026-0.718
		H47.069z"/>
	<path style="fill:#005189;" d="M47.333,57.315c0.065-0.956,0.146-1.917,0.146-3.235h1.093c-0.091,1.076-0.132,2.159-0.136,3.235
		H47.333z"/>
	<path style="fill:#005189;" d="M52.947,55.622c0,1.179-0.905,1.752-2.048,1.752c-1.032,0-1.979-0.476-1.979-1.582
		c0-1.339,1.118-1.771,2.089-1.771C52.037,54.021,52.947,54.541,52.947,55.622 M49.979,55.759c0,0.533,0.388,0.907,0.941,0.907
		c0.604,0,0.972-0.466,0.972-1.02c0-0.523-0.363-0.917-0.916-0.917C50.361,54.729,49.979,55.186,49.979,55.759"/>
	<path style="fill:#005189;" d="M55.974,56.175h0.01c0.025-0.31,0.086-1.527,0.086-2.095h0.962c-0.03,0.329-0.172,2.386-0.187,3.235
		h-1.229c-0.388-0.703-0.85-1.373-1.206-2.058h-0.012c-0.015,0.291-0.075,1.573-0.075,2.058h-0.967
		c0.065-0.514,0.172-2.305,0.172-3.235h1.258L55.974,56.175z"/>
	<path style="fill:#005189;" d="M58.621,56.384l-0.442,0.933h-1.158c0.357-0.568,1.496-2.668,1.772-3.237h1.268
		c0.388,1.087,0.805,2.164,1.233,3.237h-1.117c-0.086-0.316-0.202-0.622-0.317-0.933H58.621z M59.684,55.705l-0.312-0.928
		l-0.454,0.928H59.684z"/>
	<path style="fill:#005189;" d="M61.451,57.315c0.125-1.072,0.181-2.154,0.189-3.235h1.088c-0.025,0.324-0.125,1.78-0.141,2.542
		h0.563c0.322,0,0.645,0,0.967-0.014l-0.055,0.707H61.451z"/>
	<path style="fill:#005189;" d="M39.131,62.101c-0.127-0.749-0.32-1.482-0.39-2.218H38.73c-0.153,0.735-0.409,1.469-0.609,2.218
		h-1.395c-0.245-1.211-0.524-2.418-0.815-3.622h1.134c0.137,0.857,0.376,1.695,0.514,2.525h0.012
		c0.198-0.83,0.455-1.668,0.642-2.525h1.289c0.112,0.852,0.273,1.695,0.414,2.52h0.013c0.215-0.836,0.552-1.668,0.796-2.52h1.11
		c-0.433,1.204-0.853,2.411-1.252,3.622H39.131z"/>
	<path style="fill:#005189;" d="M41.847,62.101c0.072-1.068,0.166-2.145,0.166-3.622h1.234c-0.103,1.204-0.148,2.416-0.153,3.622
		H41.847z"/>
	<path style="fill:#005189;" d="M43.839,62.101c0.144-1.2,0.205-2.411,0.217-3.622h1.229c-0.028,0.363-0.141,1.994-0.159,2.847
		h0.637c0.365,0,0.729,0,1.095-0.017l-0.062,0.792H43.839z"/>
	<path style="fill:#005189;" d="M47.187,62.102c0.074-0.571,0.178-2.31,0.178-3.623h2.026c0.935,0,1.743,0.374,1.743,1.684
		c0,1.939-1.8,1.939-2.004,1.939H47.187z M48.384,61.325h0.494c0.74,0,1.06-0.528,1.06-1.18c0-0.663-0.387-0.891-0.841-0.891H48.48
		L48.384,61.325z"/>
	<path style="fill:#005189;" d="M51.595,62.101c0.143-1.2,0.205-2.411,0.217-3.622h1.229c-0.028,0.363-0.142,1.994-0.158,2.847
		h0.637c0.364,0,0.729,0,1.095-0.017l-0.063,0.792H51.595z"/>
	<path style="fill:#005189;" d="M54.943,62.101c0.074-1.068,0.165-2.145,0.165-3.622h1.235c-0.103,1.204-0.147,2.416-0.153,3.622
		H54.943z"/>
	<path style="fill:#005189;" d="M58.258,59.89h1.446l-0.028,0.789c-0.245-0.012-0.495-0.012-0.74-0.012h-0.724l-0.034,1.435h-1.242
		c0.075-0.571,0.178-2.281,0.178-3.623h2.942l-0.04,0.788c-0.317-0.012-0.637-0.012-0.955-0.012h-0.78L58.258,59.89z"/>
	<path style="fill:#005189;" d="M63.752,58.479l-0.039,0.81c-0.347-0.017-0.694-0.033-1.035-0.033h-0.845l-0.039,0.635h0.649
		c0.318,0,0.631-0.005,0.951-0.016l-0.058,0.793h-1.594l-0.04,0.658h0.376c0.512,0,1.024-0.019,1.536-0.045l-0.051,0.821h-3.103
		c0.068-0.599,0.192-1.874,0.192-3.623H63.752z"/>
	<path style="fill:#005189;" d="M38.232,64.03c-0.07,1.049-0.102,2.104-0.113,3.159H36.8c0.146-1.24,0.198-2.397,0.204-3.997h2.247
		c0.306,0,1.528,0.03,1.528,1.061c0,0.628-0.396,0.97-0.994,1.168c0.249,0.599,0.562,1.174,0.829,1.769h-1.415
		c-0.229-0.762-0.526-1.499-0.82-2.241c0.103,0.018,0.209,0.029,0.312,0.029c0.369,0,0.809-0.132,0.809-0.545
		c0-0.402-0.427-0.402-0.72-0.402H38.232z"/>
	<path style="fill:#005189;" d="M44.955,63.192l-0.045,0.892c-0.387-0.017-0.776-0.035-1.157-0.035h-0.942l-0.046,0.701h0.728
		c0.356,0,0.705-0.005,1.062-0.019l-0.064,0.875h-1.782l-0.044,0.727h0.421c0.572,0,1.145-0.02,1.717-0.049l-0.057,0.904h-3.469
		c0.076-0.659,0.216-2.067,0.216-3.996H44.955z"/>
	<path style="fill:#005189;" d="M47.031,64.749h1.618l-0.033,0.87c-0.273-0.013-0.555-0.013-0.827-0.013h-0.808l-0.04,1.583h-1.388
		c0.084-0.631,0.198-2.518,0.198-3.998h3.291l-0.045,0.869c-0.356-0.012-0.712-0.012-1.068-0.012h-0.872L47.031,64.749z"/>
	<path style="fill:#005189;" d="M51.042,63.192c-0.043,0.666-0.159,1.84-0.159,2.336c0,0.541,0.211,0.857,0.72,0.857
		c0.803,0,0.827-0.594,0.886-1.287c0.05-0.637,0.088-1.272,0.103-1.906h1.361c-0.02,0.245-0.153,1.9-0.19,2.822
		c-0.026,0.61-0.606,1.246-2.159,1.246c-1.592,0-2.057-0.636-2.057-1.187c0-0.899,0.134-1.821,0.159-2.882H51.042z"/>
	<path style="fill:#005189;" d="M57.562,65.691h-0.573l0.037-0.84h1.834c-0.063,0.755-0.102,1.504-0.126,2.253
		c-0.567,0.096-1.147,0.156-1.86,0.156c-2.196,0-2.426-1.295-2.426-1.936c0-1.12,0.828-2.205,2.693-2.205
		c0.535,0,1.045,0.059,1.547,0.156l0.046,0.94c-0.428-0.126-0.881-0.223-1.331-0.223c-0.931,0-1.618,0.456-1.618,1.391
		c0,0.666,0.433,1.038,1.127,1.038c0.211,0,0.414-0.044,0.61-0.084L57.562,65.691z"/>
	<path style="fill:#005189;" d="M63.158,63.192l-0.045,0.892c-0.389-0.017-0.776-0.035-1.159-0.035h-0.941l-0.045,0.701h0.727
		c0.356,0,0.705-0.005,1.062-0.019l-0.063,0.875H60.91l-0.045,0.727h0.422c0.573,0,1.146-0.02,1.718-0.049l-0.058,0.904h-3.47
		c0.077-0.659,0.218-2.067,0.218-3.996H63.158z"/>
	<path style="fill:#005189;" d="M40.549,69.153c-0.29-0.099-0.619-0.182-0.936-0.182c-0.2,0-0.581,0.061-0.581,0.291
		c0,0.434,1.529,0.841,1.529,1.654c0,0.376-0.309,1.068-1.69,1.068c-0.433,0-0.865-0.055-1.284-0.122l-0.097-0.906
		c0.335,0.127,0.736,0.241,1.109,0.241c0.213,0,0.607-0.032,0.607-0.284c0-0.424-1.53-0.865-1.53-1.724
		c0-0.252,0.175-1.005,1.64-1.005c0.388,0,0.774,0.044,1.148,0.104L40.549,69.153z"/>
	<path style="fill:#005189;" d="M42.258,70.446c-0.464-0.743-0.961-1.464-1.444-2.194c0.246,0.005,0.496,0.005,0.741,0.005
		c0.252,0,0.497,0,0.742-0.005c0.206,0.45,0.49,0.868,0.697,1.312c0.29-0.444,0.612-0.867,0.902-1.312
		c0.239,0.005,0.479,0.005,0.716,0.005c0.279,0,0.576,0,0.757-0.005c-0.607,0.758-1.221,1.506-1.8,2.275
		c-0.026,0.463-0.053,0.93-0.059,1.393c-0.232,0-0.458-0.008-0.685-0.008c-0.232,0-0.459,0-0.689,0.008
		C42.2,71.43,42.245,70.935,42.258,70.446"/>
	<path style="fill:#005189;" d="M48.394,69.153c-0.29-0.099-0.618-0.182-0.936-0.182c-0.198,0-0.58,0.061-0.58,0.291
		c0,0.434,1.528,0.841,1.528,1.654c0,0.376-0.309,1.068-1.689,1.068c-0.432,0-0.865-0.055-1.284-0.122l-0.096-0.906
		c0.335,0.127,0.735,0.241,1.108,0.241c0.214,0,0.607-0.032,0.607-0.284c0-0.424-1.529-0.865-1.529-1.724
		c0-0.252,0.174-1.005,1.638-1.005c0.389,0,0.774,0.044,1.149,0.104L48.394,69.153z"/>
	<path style="fill:#005189;" d="M52.827,68.252l-0.038,0.813c-0.053-0.005-0.839-0.028-1.336-0.028
		c-0.078,0.875-0.137,2.194-0.143,2.883h-1.388c0.104-0.881,0.174-1.771,0.188-2.883c-0.446,0-0.892,0.018-1.343,0.028l0.032-0.813
		H52.827z"/>
	<path style="fill:#005189;" d="M56.756,68.252l-0.045,0.818c-0.393-0.016-0.787-0.033-1.174-0.033h-0.955l-0.045,0.644h0.735
		c0.361,0,0.717-0.006,1.078-0.016l-0.065,0.803h-1.808l-0.045,0.665h0.427c0.582,0,1.162-0.017,1.741-0.043l-0.057,0.83h-3.517
		c0.077-0.606,0.22-1.897,0.22-3.668H56.756z"/>
	<path style="fill:#005189;" d="M57.285,71.919c0.143-0.979,0.323-2.756,0.374-3.668h1.743c0.044,0.313,0.445,1.513,0.593,2.276
		h0.013c0.479-1.479,0.762-1.853,0.872-2.276h1.773c-0.039,0.533-0.115,2.155-0.115,3.668H61.37
		c0.025-0.324,0.097-1.237,0.091-2.601h-0.014c-0.311,0.852-0.664,1.721-1.001,2.601h-1.153c-0.316-1.348-0.575-1.996-0.69-2.596
		H58.59c-0.098,0.753-0.181,2.129-0.188,2.596H57.285z"/>
	<path style="fill:#FFFFFF;" d="M36.104,36.701c0,0-0.469,0.133-0.046,0.337c0,0,0.832,0.392,1.426-0.145c0,0,0.5-0.407,0.474-1.039
		c-0.008-0.208-0.185-0.468-0.508-0.203C37.45,35.651,36.72,36.309,36.104,36.701"/>
	<path style="fill:none;stroke:#005189;stroke-width:0.3304;" d="M36.104,36.701c0,0-0.469,0.133-0.046,0.337
		c0,0,0.832,0.392,1.426-0.145c0,0,0.5-0.407,0.474-1.039c-0.008-0.208-0.185-0.468-0.508-0.203
		C37.45,35.651,36.72,36.309,36.104,36.701z"/>
	<path style="fill:#005189;" d="M35.034,27.676h0.577c0.453,0,0.538,0.298,0.538,0.804c0,0.251,0.039,0.822-0.552,0.822h-0.563
		V27.676z M35.38,29.053h0.167c0.211,0,0.252-0.156,0.252-0.563c0-0.299,0-0.563-0.24-0.563H35.38V29.053z"/>
	<polygon style="fill:#005189;" points="36.427,29.303 36.427,27.676 37.329,27.676 37.329,27.926 36.774,27.926 36.774,28.327 
		37.286,28.327 37.286,28.576 36.774,28.576 36.774,29.053 37.348,29.053 37.348,29.303 	"/>
	<path style="fill:#005189;" d="M37.574,27.676h0.624c0.315,0,0.439,0.189,0.439,0.487c0,0.184-0.055,0.477-0.461,0.477H37.92v0.663
		h-0.346V27.676z M37.92,28.391h0.193c0.103,0,0.174-0.111,0.174-0.219c0-0.134-0.035-0.246-0.193-0.246H37.92V28.391z"/>
	<path style="fill:#005189;" d="M38.64,29.302l0.459-1.626h0.454l0.45,1.626h-0.365l-0.092-0.36h-0.472l-0.094,0.36H38.64z
		 M39.307,27.988h-0.006l-0.157,0.703h0.33L39.307,27.988z"/>
	<path style="fill:#005189;" d="M40.504,29.302h-0.347v-1.626h0.64c0.236,0,0.388,0.148,0.388,0.426
		c0,0.207-0.082,0.362-0.308,0.398v0.005c0.076,0.009,0.302,0.027,0.302,0.32c0,0.104,0.006,0.408,0.038,0.477h-0.34
		c-0.045-0.098-0.035-0.209-0.035-0.314c0-0.193,0.018-0.358-0.247-0.358h-0.091V29.302z M40.504,28.379h0.154
		c0.137,0,0.177-0.137,0.177-0.24c0-0.154-0.067-0.213-0.177-0.213h-0.154V28.379z"/>
	<polygon style="fill:#005189;" points="42.425,27.676 42.425,27.946 42.041,27.946 42.041,29.302 41.693,29.302 41.693,27.946 
		41.308,27.946 41.308,27.676 	"/>
	<polygon style="fill:#005189;" points="42.578,29.303 42.578,27.676 43.134,27.676 43.394,28.782 43.397,28.782 43.672,27.676 
		44.211,27.676 44.211,29.303 43.874,29.303 43.874,28.048 43.87,28.048 43.551,29.303 43.221,29.303 42.918,28.048 42.914,28.048 
		42.914,29.303 	"/>
	<polygon style="fill:#005189;" points="44.493,29.303 44.493,27.676 45.396,27.676 45.396,27.926 44.839,27.926 44.839,28.327 
		45.352,28.327 45.352,28.576 44.839,28.576 44.839,29.053 45.415,29.053 45.415,29.303 	"/>
	<polygon style="fill:#005189;" points="45.642,29.303 45.642,27.676 46.107,27.676 46.549,28.803 46.553,28.803 46.553,27.676 
		46.876,27.676 46.876,29.303 46.42,29.303 45.969,28.112 45.964,28.112 45.964,29.303 	"/>
	<polygon style="fill:#005189;" points="48.152,27.676 48.152,27.946 47.767,27.946 47.767,29.302 47.421,29.302 47.421,27.946 
		47.036,27.946 47.036,27.676 	"/>
	<path style="fill:#005189;" d="M48.805,28.489c0-0.431,0-0.841,0.57-0.841s0.57,0.41,0.57,0.841c0,0.426,0,0.84-0.57,0.84
		S48.805,28.915,48.805,28.489 M49.594,28.489c0-0.417-0.024-0.597-0.219-0.597s-0.219,0.18-0.219,0.597
		c0,0.416,0.024,0.597,0.219,0.597S49.594,28.905,49.594,28.489"/>
	<polygon style="fill:#005189;" points="50.213,29.303 50.213,27.676 51.072,27.676 51.072,27.926 50.561,27.926 50.561,28.343 
		51.049,28.343 51.049,28.593 50.561,28.593 50.561,29.303 	"/>
	<polygon style="fill:#005189;" points="52.813,27.676 52.813,27.946 52.428,27.946 52.428,29.302 52.081,29.302 52.081,27.946 
		51.698,27.946 51.698,27.676 	"/>
	<polygon style="fill:#005189;" points="53.726,28.327 53.726,27.676 54.072,27.676 54.072,29.302 53.726,29.302 53.726,28.577 
		53.329,28.577 53.329,29.302 52.984,29.302 52.984,27.676 53.329,27.676 53.329,28.327 	"/>
	<polygon style="fill:#005189;" points="54.373,29.303 54.373,27.676 55.275,27.676 55.275,27.926 54.719,27.926 54.719,28.327 
		55.231,28.327 55.231,28.576 54.719,28.576 54.719,29.053 55.293,29.053 55.293,29.303 	"/>
	<rect x="56.109" y="27.676" style="fill:#005189;" width="0.345" height="1.626"/>
	<polygon style="fill:#005189;" points="56.747,29.303 56.747,27.676 57.215,27.676 57.653,28.803 57.658,28.803 57.658,27.676 
		57.982,27.676 57.982,29.303 57.527,29.303 57.075,28.112 57.07,28.112 57.07,29.303 	"/>
	<polygon style="fill:#005189;" points="59.258,27.676 59.258,27.946 58.873,27.946 58.873,29.302 58.527,29.302 58.527,27.946 
		58.143,27.946 58.143,27.676 	"/>
	<polygon style="fill:#005189;" points="59.418,29.303 59.418,27.676 60.321,27.676 60.321,27.926 59.765,27.926 59.765,28.327 
		60.276,28.327 60.276,28.576 59.765,28.576 59.765,29.053 60.34,29.053 60.34,29.303 	"/>
	<path style="fill:#005189;" d="M60.902,29.302h-0.346v-1.626h0.639c0.237,0,0.388,0.148,0.388,0.426
		c0,0.207-0.081,0.362-0.307,0.398v0.005c0.075,0.009,0.3,0.027,0.3,0.32c0,0.104,0.007,0.408,0.039,0.477h-0.339
		c-0.046-0.098-0.037-0.209-0.037-0.314c0-0.193,0.02-0.358-0.247-0.358h-0.09V29.302z M60.902,28.379h0.153
		c0.138,0,0.178-0.137,0.178-0.24c0-0.154-0.067-0.213-0.178-0.213h-0.153V28.379z"/>
	<rect x="61.838" y="27.676" style="fill:#005189;" width="0.347" height="1.626"/>
	<path style="fill:#005189;" d="M62.459,28.489c0-0.431,0-0.841,0.57-0.841s0.57,0.41,0.57,0.841c0,0.426,0,0.84-0.57,0.84
		S62.459,28.915,62.459,28.489 M63.248,28.489c0-0.417-0.024-0.597-0.219-0.597c-0.195,0-0.221,0.18-0.221,0.597
		c0,0.416,0.025,0.597,0.221,0.597C63.224,29.086,63.248,28.905,63.248,28.489"/>
	<path style="fill:#005189;" d="M64.214,29.302h-0.347v-1.626h0.639c0.236,0,0.389,0.148,0.389,0.426
		c0,0.207-0.084,0.362-0.308,0.398v0.005c0.076,0.009,0.301,0.027,0.301,0.32c0,0.104,0.007,0.408,0.039,0.477h-0.34
		c-0.045-0.098-0.036-0.209-0.036-0.314c0-0.193,0.018-0.358-0.247-0.358h-0.09V29.302z M64.214,28.379h0.153
		c0.137,0,0.177-0.137,0.177-0.24c0-0.154-0.067-0.213-0.177-0.213h-0.153V28.379z"/>
	<path style="fill:#005189;" d="M37.46,30.233v1.154c0,0.242-0.139,0.5-0.56,0.5c-0.381,0-0.564-0.195-0.564-0.5v-1.154h0.346v1.131
		c0,0.2,0.087,0.278,0.212,0.278c0.152,0,0.221-0.098,0.221-0.278v-1.131H37.46z"/>
	<rect x="37.642" y="31.562" style="fill:#005189;" width="0.275" height="0.298"/>
	<path style="fill:#005189;" d="M38.7,31.887c-0.428,0-0.509-0.248-0.489-0.53h0.346c0,0.157,0.005,0.287,0.196,0.287
		c0.117,0,0.174-0.074,0.174-0.185c0-0.293-0.695-0.312-0.695-0.796c0-0.254,0.122-0.457,0.545-0.457
		c0.338,0,0.504,0.148,0.48,0.488h-0.336c0-0.12-0.021-0.245-0.161-0.245c-0.112,0-0.179,0.062-0.179,0.174
		c0,0.309,0.697,0.281,0.697,0.793C39.278,31.837,38.965,31.887,38.7,31.887"/>
	<rect x="39.498" y="31.562" style="fill:#005189;" width="0.275" height="0.298"/>
	<polygon style="fill:#005189;" points="40.535,31.86 40.535,30.233 41.395,30.233 41.395,30.483 40.881,30.483 40.881,30.899 
		41.371,30.899 41.371,31.149 40.881,31.149 40.881,31.86 	"/>
	<path style="fill:#005189;" d="M41.895,30.483h-0.323v-0.25h0.323V30.483z M41.895,31.859h-0.323v-1.138h0.323V31.859z"/>
	<path style="fill:#005189;" d="M42.434,31.495c-0.001,0.051,0,0.101,0.018,0.138c0.019,0.035,0.052,0.054,0.116,0.054
		s0.119-0.041,0.119-0.117c0-0.241-0.568-0.187-0.568-0.55c0-0.247,0.249-0.32,0.456-0.32c0.219,0,0.419,0.104,0.401,0.349h-0.316
		c0-0.077-0.009-0.125-0.032-0.146c-0.021-0.02-0.048-0.024-0.083-0.024c-0.07,0-0.11,0.045-0.11,0.121
		c0,0.181,0.569,0.171,0.569,0.537c0,0.198-0.165,0.346-0.434,0.346c-0.28,0-0.47-0.07-0.451-0.387H42.434z"/>
	<path style="fill:#005189;" d="M43.764,31.86v-0.784c0-0.102-0.019-0.181-0.121-0.181c-0.104,0-0.122,0.079-0.122,0.181v0.784
		h-0.323v-1.627h0.323v0.603h0.004c0.032-0.051,0.071-0.084,0.115-0.104c0.047-0.023,0.099-0.032,0.158-0.032
		c0.153,0,0.288,0.091,0.288,0.249v0.912H43.764z"/>
	<path style="fill:#005189;" d="M45.729,31.648c0,0.069,0.008,0.141,0.016,0.212h-0.3l-0.015-0.151h-0.004
		c-0.069,0.117-0.162,0.174-0.304,0.174c-0.225,0-0.306-0.165-0.306-0.363c0-0.376,0.295-0.392,0.596-0.388v-0.087
		c0-0.097-0.015-0.167-0.13-0.167c-0.113,0-0.122,0.084-0.122,0.173h-0.316c0-0.138,0.043-0.225,0.119-0.277
		c0.072-0.054,0.18-0.073,0.303-0.073c0.409,0,0.463,0.173,0.463,0.381V31.648z M45.133,31.506c0,0.081,0.015,0.181,0.12,0.181
		c0.19,0,0.16-0.253,0.16-0.377C45.253,31.316,45.133,31.303,45.133,31.506"/>
	<path style="fill:#005189;" d="M46.32,30.837h0.004c0.032-0.052,0.071-0.085,0.114-0.105c0.047-0.023,0.1-0.031,0.159-0.031
		c0.153,0,0.288,0.09,0.288,0.246v0.914h-0.323v-0.785c0-0.101-0.019-0.18-0.12-0.18c-0.104,0-0.122,0.079-0.122,0.18v0.785h-0.323
		v-1.138h0.323V30.837z"/>
	<path style="fill:#005189;" d="M47.72,31.86v-0.126h-0.005c-0.059,0.109-0.148,0.148-0.272,0.148c-0.335,0-0.322-0.365-0.322-0.6
		c0-0.23-0.009-0.584,0.315-0.584c0.117,0,0.197,0.034,0.264,0.131h0.005v-0.597h0.322v1.627H47.72z M47.704,31.28
		c0-0.228,0.002-0.385-0.131-0.385c-0.14,0-0.138,0.157-0.138,0.385c0,0.286,0.021,0.406,0.138,0.406
		C47.684,31.687,47.704,31.566,47.704,31.28"/>
	<polygon style="fill:#005189;" points="48.666,30.233 49.021,30.233 49.237,31.376 49.241,31.376 49.502,30.233 49.91,30.233 
		50.156,31.376 50.162,31.376 50.368,30.233 50.708,30.233 50.341,31.859 49.958,31.859 49.698,30.67 49.695,30.67 49.409,31.859 
		49.033,31.859 	"/>
	<path style="fill:#005189;" d="M51.184,30.483h-0.322v-0.25h0.322V30.483z M51.184,31.859h-0.322v-1.138h0.322V31.859z"/>
	<rect x="51.498" y="30.233" style="fill:#005189;" width="0.322" height="1.626"/>
	<path style="fill:#005189;" d="M52.685,31.86v-0.126h-0.004c-0.061,0.109-0.149,0.148-0.273,0.148c-0.333,0-0.323-0.365-0.323-0.6
		c0-0.23-0.008-0.584,0.316-0.584c0.117,0,0.198,0.034,0.263,0.131h0.005v-0.597h0.324v1.627H52.685z M52.668,31.28
		c0-0.228,0.003-0.385-0.13-0.385c-0.141,0-0.138,0.157-0.138,0.385c0,0.286,0.021,0.406,0.138,0.406
		C52.648,31.687,52.668,31.566,52.668,31.28"/>
	<rect x="53.28" y="30.233" style="fill:#005189;" width="0.322" height="1.626"/>
	<path style="fill:#005189;" d="M54.24,30.483h-0.321v-0.25h0.321V30.483z M54.24,31.859h-0.321v-1.138h0.321V31.859z"/>
	<path style="fill:#005189;" d="M55.024,30.43c-0.132-0.009-0.159,0.04-0.159,0.155v0.138h0.151v0.195h-0.151v0.941h-0.323v-0.941
		h-0.143v-0.195h0.146c-0.003-0.326-0.029-0.5,0.365-0.5c0.037,0,0.074,0.002,0.114,0.004V30.43z"/>
	<path style="fill:#005189;" d="M55.462,31.342c0,0.135,0.005,0.338,0.146,0.338c0.115,0,0.137-0.107,0.137-0.203h0.328
		c-0.005,0.124-0.046,0.225-0.124,0.296c-0.076,0.069-0.189,0.109-0.341,0.109c-0.417,0-0.473-0.25-0.473-0.605
		c0-0.312,0.046-0.576,0.473-0.576c0.435,0,0.483,0.276,0.473,0.642H55.462z M55.757,31.163c0-0.109,0.005-0.268-0.148-0.268
		c-0.149,0-0.146,0.172-0.146,0.268H55.757z"/>
	<path style="fill:#005189;" d="M57.282,31.887c-0.429,0-0.509-0.248-0.49-0.53h0.346c0,0.157,0.008,0.287,0.197,0.287
		c0.117,0,0.175-0.074,0.175-0.185c0-0.293-0.696-0.312-0.696-0.796c0-0.254,0.123-0.457,0.545-0.457
		c0.337,0,0.505,0.148,0.481,0.488h-0.338c0-0.12-0.02-0.245-0.16-0.245c-0.112,0-0.178,0.062-0.178,0.174
		c0,0.309,0.696,0.281,0.696,0.793C57.86,31.837,57.545,31.887,57.282,31.887"/>
	<path style="fill:#005189;" d="M58.389,31.342c0,0.135,0.005,0.338,0.146,0.338c0.115,0,0.138-0.107,0.138-0.203h0.328
		c-0.005,0.124-0.046,0.225-0.124,0.296c-0.074,0.069-0.19,0.109-0.342,0.109c-0.417,0-0.471-0.25-0.471-0.605
		c0-0.312,0.046-0.576,0.471-0.576c0.436,0,0.485,0.276,0.473,0.642H58.389z M58.685,31.163c0-0.109,0.006-0.268-0.149-0.268
		c-0.148,0-0.146,0.172-0.146,0.268H58.685z"/>
	<path style="fill:#005189;" d="M59.544,30.723v0.146h0.005c0.06-0.13,0.17-0.168,0.3-0.168v0.283
		c-0.285-0.019-0.289,0.145-0.289,0.257v0.62h-0.323v-1.138H59.544z"/>
	<polygon style="fill:#005189;" points="59.936,30.738 60.264,30.738 60.427,31.593 60.432,31.593 60.602,30.738 60.918,30.738 
		60.598,31.876 60.245,31.876 	"/>
	<path style="fill:#005189;" d="M61.413,30.499h-0.322v-0.25h0.322V30.499z M61.413,31.875h-0.322v-1.138h0.322V31.875z"/>
	<path style="fill:#005189;" d="M62.234,31.145c0-0.17-0.043-0.226-0.144-0.226c-0.138,0-0.149,0.119-0.149,0.355
		c0,0.347,0.029,0.422,0.149,0.422c0.101,0,0.149-0.091,0.149-0.239h0.323c0,0.309-0.171,0.441-0.473,0.441
		c-0.417,0-0.474-0.25-0.474-0.606c0-0.31,0.047-0.576,0.474-0.576c0.298,0,0.468,0.131,0.468,0.429H62.234z"/>
	<path style="fill:#005189;" d="M63.035,31.357c0,0.136,0.004,0.339,0.146,0.339c0.116,0,0.139-0.108,0.139-0.203h0.328
		c-0.006,0.123-0.048,0.225-0.124,0.294c-0.077,0.071-0.191,0.111-0.343,0.111c-0.416,0-0.471-0.25-0.471-0.605
		c0-0.312,0.047-0.576,0.471-0.576c0.437,0,0.484,0.276,0.473,0.641H63.035z M63.331,31.18c0-0.11,0.005-0.269-0.15-0.269
		c-0.147,0-0.146,0.172-0.146,0.269H63.331z"/>
</g>
</svg>
