<?xml version="1.0" encoding="iso-8859-1"?>
<!-- Generator: Adobe Illustrator 16.0.4, SVG Export Plug-In . SVG Version: 6.00 Build 0)  -->
<!DOCTYPE svg PUBLIC "-//W3C//DTD SVG 1.1//EN" "http://www.w3.org/Graphics/SVG/1.1/DTD/svg11.dtd">
<svg version="1.1" id="Layer_1" xmlns="http://www.w3.org/2000/svg" xmlns:xlink="http://www.w3.org/1999/xlink" x="0px" y="0px"
	 width="100px" height="100px" viewBox="0 0 100 100" style="enable-background:new 0 0 100 100;" xml:space="preserve">
<g>
	<path style="fill:none;" d="M52.293,75.304c-5.479,0-10.959,0-16.438,0c0.005-0.029,0.027-0.021,0.046-0.024
		c0.732-0.104,1.122-0.787,0.926-1.458c-0.102-0.346-0.361-0.578-0.623-0.8c-0.254-0.215-0.521-0.412-0.743-0.66
		c-0.289-0.32-0.207-0.83,0.163-1.007c0.17-0.081,0.351-0.061,0.524-0.046c0.137,0.012,0.267,0.076,0.381,0.166
		c0.123,0.098,0.116,0.244,0.16,0.372c0.008,0.022-0.012,0.063,0.038,0.058c0.033-0.004,0.025-0.033,0.03-0.056
		c0.033-0.157,0.009-0.316,0.025-0.474c0.013-0.124-0.005-0.192-0.16-0.214c-0.301-0.042-0.601-0.081-0.903-0.026
		c-0.197,0.035-0.381,0.109-0.521,0.256c-0.286,0.298-0.339,0.72-0.188,1.093c0.161,0.402,0.496,0.65,0.813,0.911
		c0.19,0.158,0.386,0.312,0.525,0.518c0.25,0.367,0.16,0.855-0.181,1.067c-0.328,0.204-0.815,0.162-1.068-0.1
		c-0.132-0.136-0.181-0.302-0.177-0.486c0.001-0.035,0.003-0.083-0.045-0.083c-0.049,0-0.036,0.049-0.044,0.083
		c-0.041,0.195-0.011,0.394-0.025,0.59c-0.01,0.138,0.061,0.19,0.175,0.223c0.104,0.029,0.207,0.064,0.31,0.098
		c-3.19,0-6.382,0-9.572,0.002c-0.092,0-0.112-0.021-0.112-0.112c0.003-7.824,0.003-15.649,0.003-23.474
		c0.488,0.615,1.125,0.991,1.885,1.165c0.706,0.162,1.42,0.158,2.135,0.093c0.765-0.07,1.517-0.224,2.265-0.396
		c1.252-0.287,2.515-0.359,3.788-0.174c1.822,0.266,3.527,0.904,5.195,1.658c0.349,0.158,0.706,0.297,1.065,0.429
		c0.319,0.117,0.644,0.223,0.972,0.314c0.397,0.111,0.797,0.22,1.202,0.296c0.303,0.057,0.606,0.107,0.911,0.151
		c0.291,0.041,0.585,0.08,0.877,0.088c0.268,0.008,0.535,0.027,0.806,0.014c0.404-0.02,0.811-0.025,1.213-0.08
		c0.39-0.054,0.777-0.117,1.161-0.206c0.9-0.207,1.756-0.535,2.591-0.926c0.52-0.243,1.053-0.449,1.591-0.645
		c0.511-0.186,1.031-0.338,1.559-0.465c0.345-0.083,0.689-0.154,1.042-0.203c0.19-0.025,0.38-0.048,0.57-0.07
		c0.187-0.021,0.372-0.052,0.562-0.045c0.069,0.003,0.141,0.013,0.207-0.002c0.298-0.067,0.595,0.005,0.892,0.007
		c0.243,0.002,0.487,0.048,0.729,0.09c0.264,0.046,0.525,0.104,0.782,0.185c0.518,0.159,1.014,0.378,1.533,0.535
		c0.5,0.151,1.011,0.252,1.525,0.325c0.31,0.045,0.624,0.081,0.941,0.075c0.357-0.007,0.716,0.022,1.071-0.001
		c0.302-0.02,0.604-0.047,0.903-0.092c0.342-0.05,0.683-0.108,1.019-0.185c0.486-0.109,0.967-0.249,1.435-0.428
		c0.231-0.088,0.472-0.162,0.688-0.28c0.332-0.181,0.643-0.398,0.968-0.59c0.67-0.396,1.274-0.868,1.776-1.467
		c0.113-0.136,0.232-0.269,0.308-0.432c0.014-0.027,0.045-0.062,0.014-0.101c-0.033-0.039-0.074-0.028-0.113-0.019
		c-0.167,0.042-0.314,0.125-0.455,0.219c-0.43,0.285-0.835,0.602-1.269,0.881c-0.512,0.329-1.033,0.641-1.597,0.868
		c-1.151,0.465-2.357,0.692-3.591,0.772c-0.582,0.038-1.167,0.029-1.75-0.04c-0.566-0.067-1.113-0.193-1.633-0.434
		c-1.267-0.587-2.607-0.834-3.995-0.859c-0.486-0.009-0.972,0.023-1.457,0.066c-0.371,0.031-0.739,0.08-1.106,0.138
		c-0.49,0.076-0.978,0.172-1.462,0.281c-0.326,0.073-0.659,0.12-0.973,0.235c-0.873,0.322-1.731,0.682-2.622,0.954
		c-0.845,0.258-1.709,0.421-2.59,0.463c-0.475,0.022-0.949,0.016-1.425-0.013c-0.497-0.028-0.989-0.084-1.479-0.158
		c-0.666-0.1-1.324-0.243-1.979-0.403c-1.408-0.344-2.789-0.777-4.152-1.268c-1.163-0.417-2.357-0.635-3.594-0.608
		c-1.077,0.022-2.13,0.221-3.175,0.466c-0.868,0.203-1.729,0.45-2.625,0.515c-0.59,0.042-1.156-0.028-1.693-0.298
		c-0.352-0.176-0.711-0.337-1.089-0.454c-0.116-0.036-0.232-0.07-0.355-0.042c0-8.938,0-17.877-0.003-26.816
		c0-0.091,0.021-0.112,0.112-0.111c2.752,0.003,5.504,0.002,8.256,0.002c-0.269,0.151-0.325,0.412-0.146,0.665
		c0.028,0.04,0.062,0.075,0.098,0.109c0.089,0.089,0.181,0.175,0.271,0.264c0.761,0.749,1.413,1.591,2.059,2.438
		c0.795,1.042,1.641,2.038,2.663,2.87c0.381,0.311,0.757,0.636,1.188,0.869c1.275,0.692,2.578,1.332,3.91,1.91
		c1.433,0.621,2.905,1.116,4.419,1.495c0.83,0.209,1.652,0.445,2.428,0.815c0.528,0.252,1.059,0.502,1.523,0.86
		c0.607,0.468,1.181,0.979,1.85,1.365c0.251,0.146,0.565,0.166,0.719-0.021c0.137-0.165,0.147-0.458,0.003-0.56
		c-0.381-0.271-0.733-0.576-1.089-0.878c-0.625-0.53-1.242-1.07-1.93-1.523c-0.85-0.56-1.753-1.02-2.654-1.484
		c-0.273-0.142-0.538-0.302-0.819-0.426c-0.449-0.196-0.91-0.365-1.363-0.553c-1.335-0.552-2.645-1.155-3.922-1.83
		c-1.38-0.729-2.695-1.563-3.971-2.461c-0.862-0.607-1.766-1.156-2.611-1.789c-0.749-0.56-1.463-1.162-2.101-1.851
		c-0.105-0.113-0.212-0.22-0.354-0.286c13.377,0,26.755,0,40.132-0.002c0.091,0,0.112,0.021,0.112,0.111
		c-0.003,14.849-0.003,29.698-0.003,44.547c-0.063,0.025-0.051,0.089-0.062,0.137c-0.036,0.151-0.124,0.238-0.28,0.263
		c-0.149,0.024-0.3,0.02-0.45,0.016c-0.263-0.007-0.339-0.072-0.346-0.331c-0.01-0.353-0.002-0.707-0.004-1.061
		c-0.001-0.057,0.018-0.081,0.076-0.078c0.19,0.007,0.382-0.003,0.571,0.021c0.16,0.021,0.211,0.076,0.228,0.233
		c0.003,0.03-0.011,0.067,0.033,0.085c0.007-0.008,0.019-0.016,0.021-0.025c0.025-0.181,0.014-0.364,0.058-0.543
		c0.004-0.018,0-0.037-0.019-0.039c-0.013-0.003-0.032,0.006-0.039,0.017c-0.054,0.067-0.13,0.082-0.208,0.084
		c-0.211,0.005-0.422,0.005-0.634,0.009c-0.059,0.001-0.088-0.013-0.088-0.08c0.003-0.366,0.002-0.731,0.002-1.097
		c0-0.047,0.009-0.078,0.065-0.076c0.215,0.008,0.432-0.013,0.645,0.027c0.152,0.028,0.196,0.076,0.221,0.23
		c0.005,0.035-0.004,0.079,0.059,0.113c0.02-0.183,0.037-0.351,0.054-0.518c0.006-0.054-0.03-0.048-0.063-0.038
		c-0.104,0.03-0.209,0.024-0.314,0.024c-0.426-0.002-0.853-0.006-1.279-0.006c-0.039,0-0.11-0.027-0.113,0.026
		c-0.004,0.063,0.066,0.03,0.104,0.037c0.17,0.03,0.233,0.065,0.254,0.243c0.013,0.113,0.015,0.228,0.013,0.342
		c-0.014,0.745,0.039,1.491-0.035,2.236c-0.019,0.182-0.04,0.229-0.203,0.262c-0.024,0.005-0.064-0.017-0.065,0.03
		c-0.001,0.06,0.048,0.031,0.071,0.03c0.45-0.031,0.901,0.016,1.352,0.016c0.171,0,0.328,0.011,0.378-0.2
		c0,1.821,0,3.643,0.003,5.463c0,0.084-0.017,0.101-0.101,0.1c-2.771-0.002-5.544-0.002-8.316-0.002
		c0.021-0.045,0.064-0.022,0.097-0.026c0.726-0.089,0.98-0.78,0.73-1.293c-0.123-0.256-0.341-0.428-0.554-0.602
		c-0.194-0.158-0.401-0.302-0.538-0.52c-0.17-0.27-0.056-0.615,0.241-0.721c0.112-0.039,0.222-0.04,0.342-0.014
		c0.329,0.069,0.368,0.097,0.438,0.411c0.007,0.028,0.022,0.048,0.045,0.048c0.035,0,0.028-0.033,0.027-0.055
		c-0.007-0.143,0.008-0.283,0.022-0.425c0.005-0.051-0.005-0.085-0.064-0.094c-0.216-0.028-0.431-0.069-0.65-0.053
		c-0.579,0.046-0.847,0.469-0.722,0.996c0.07,0.302,0.299,0.483,0.505,0.681c0.184,0.175,0.401,0.31,0.559,0.516
		c0.231,0.303,0.174,0.737-0.212,0.922c-0.274,0.132-0.765,0.019-0.857-0.291c-0.022-0.077-0.044-0.154-0.043-0.235
		c0-0.024,0-0.049-0.035-0.05c-0.026,0-0.041,0.013-0.036,0.036c0.028,0.175-0.045,0.344-0.027,0.518
		c0.008,0.071,0.043,0.108,0.109,0.138c0.121,0.056,0.257,0.061,0.38,0.112c-4.398,0-8.797,0-13.195,0
		c0.015-0.039,0.048-0.022,0.073-0.024c0.505-0.05,0.881-0.359,1.016-0.846c0.057-0.203,0.075-0.414,0.078-0.623
		c0.006-0.487,0.002-0.976,0.004-1.463c0.001-0.178,0.051-0.239,0.207-0.268c0.028-0.006,0.081,0.014,0.08-0.032
		c-0.002-0.054-0.058-0.035-0.088-0.031c-0.247,0.028-0.493,0-0.74-0.003c-0.041,0-0.082-0.002-0.114,0.038
		c0.019,0.008,0.035,0.021,0.054,0.023c0.291,0.046,0.324,0.079,0.327,0.368c0.005,0.455,0.002,0.91,0.005,1.365
		c0.002,0.201-0.025,0.398-0.065,0.595c-0.12,0.592-0.698,0.835-1.187,0.679c-0.326-0.105-0.574-0.477-0.603-0.859
		c-0.028-0.373-0.019-0.746-0.019-1.12c0-0.28-0.011-0.561,0.015-0.841c0.01-0.113,0.066-0.161,0.17-0.179
		c0.038-0.006,0.09,0.015,0.123-0.073c-0.364,0.034-0.712,0.006-1.078,0.003c0.03,0.055,0.049,0.061,0.07,0.063
		c0.276,0.04,0.323,0.09,0.326,0.37c0.003,0.463,0.002,0.927,0.004,1.39c0.001,0.22,0.008,0.438,0.071,0.653
		c0.096,0.329,0.283,0.563,0.604,0.697C52.008,75.244,52.156,75.25,52.293,75.304z M65.751,60.658
		c0.076,0.038,0.143-0.013,0.214-0.018c0.264-0.019,0.525-0.066,0.781-0.128c0.621-0.151,1.198-0.423,1.767-0.71
		c0.66-0.335,1.225-0.78,1.641-1.399c0.188-0.281,0.382-0.561,0.47-0.895c0.036-0.135-0.013-0.188-0.148-0.18
		c-0.043,0.002-0.077,0.021-0.112,0.039c-0.32,0.163-0.569,0.418-0.825,0.659c-0.181,0.171-0.366,0.336-0.562,0.484
		c-0.363,0.275-0.752,0.51-1.17,0.699c-0.577,0.262-1.183,0.412-1.811,0.455c-0.615,0.043-1.229-0.004-1.836-0.122
		c-0.662-0.129-1.31-0.318-1.945-0.544c-0.452-0.16-0.898-0.343-1.356-0.488c-0.681-0.215-1.381-0.272-2.095-0.212
		c-0.524,0.045-1.039,0.135-1.548,0.262c-0.85,0.212-1.671,0.514-2.485,0.832c-0.917,0.356-1.827,0.731-2.761,1.05
		c-0.483,0.164-0.969,0.32-1.48,0.372c-0.748,0.074-1.486-0.004-2.215-0.177c-1.021-0.241-1.995-0.627-2.962-1.029
		c-0.771-0.319-1.536-0.652-2.324-0.93c-0.698-0.244-1.408-0.444-2.151-0.491c-0.467-0.031-0.934-0.007-1.397,0.052
		c-0.609,0.077-1.21,0.209-1.812,0.328c-0.727,0.144-1.453,0.289-2.202,0.201c-0.409-0.049-0.792-0.175-1.142-0.391
		c-0.362-0.224-0.712-0.468-1.105-0.638c-0.093-0.04-0.188-0.077-0.293-0.073c-0.056,0.002-0.108,0.034-0.095,0.079
		c0.018,0.059,0.019,0.124,0.062,0.178c0.084,0.105,0.147,0.229,0.24,0.325c0.181,0.188,0.347,0.394,0.568,0.538
		c0.486,0.32,1.015,0.551,1.569,0.722c0.38,0.116,0.764,0.204,1.163,0.208c0.238,0.003,0.479,0.018,0.712-0.03
		c0.343-0.071,0.683-0.163,1.021-0.255c0.58-0.158,1.17-0.251,1.771-0.274c0.262-0.011,0.521,0.024,0.781,0.045
		c0.265,0.021,0.521,0.076,0.781,0.119c0.58,0.097,1.128,0.293,1.674,0.491c0.555,0.201,1.087,0.457,1.615,0.719
		c0.614,0.305,1.197,0.667,1.819,0.956c0.554,0.257,1.119,0.481,1.717,0.621c0.517,0.122,1.034,0.208,1.565,0.215
		c0.414,0.005,0.823-0.026,1.232-0.093c1.081-0.177,2.07-0.61,3.041-1.092c0.864-0.429,1.711-0.892,2.604-1.264
		c0.674-0.281,1.373-0.425,2.099-0.42c0.258,0.001,0.518,0.021,0.775,0.061c0.323,0.052,0.643,0.106,0.96,0.187
		c0.402,0.104,0.802,0.22,1.198,0.345c0.352,0.108,0.704,0.209,1.059,0.304c0.284,0.075,0.569,0.145,0.859,0.193
		c0.227,0.038,0.452,0.081,0.682,0.101c0.17,0.016,0.341,0.061,0.511,0.046C65.163,60.667,65.459,60.732,65.751,60.658z
		 M67.173,56.524c0.218-0.015,0.396-0.049,0.568-0.084c0.539-0.112,1.071-0.257,1.587-0.453c0.625-0.237,1.225-0.523,1.79-0.88
		c0.39-0.245,0.773-0.5,1.071-0.86c0.118-0.143,0.242-0.282,0.31-0.458c0.046-0.122,0.005-0.164-0.121-0.146
		c-0.167,0.021-0.311,0.095-0.447,0.184c-0.369,0.237-0.737,0.474-1.127,0.674c-0.598,0.307-1.209,0.58-1.836,0.82
		c-0.639,0.243-1.302,0.394-1.983,0.445c-0.693,0.053-1.383,0.008-2.067-0.118c-0.66-0.121-1.306-0.296-1.933-0.535
		c-0.756-0.289-1.536-0.442-2.344-0.466c-0.711-0.021-1.416,0.038-2.119,0.143c-0.786,0.118-1.559,0.297-2.325,0.504
		c-0.9,0.244-1.775,0.57-2.664,0.855c-1.056,0.338-2.136,0.567-3.233,0.714c-0.537,0.071-1.077,0.116-1.62,0.134
		c-0.727,0.021-1.451,0.001-2.169-0.109c-0.362-0.056-0.708-0.173-1.052-0.301c-1.372-0.51-2.752-0.998-4.155-1.418
		c-0.994-0.299-1.996-0.573-3.03-0.706c-0.75-0.098-1.498-0.097-2.242,0.06c-0.66,0.138-1.301,0.348-1.948,0.53
		c-1.094,0.308-2.198,0.513-3.342,0.399c-0.494-0.05-0.964-0.177-1.385-0.454c-0.218-0.142-0.441-0.274-0.681-0.378
		c-0.056-0.024-0.112-0.049-0.174-0.051c-0.055-0.003-0.078,0.022-0.062,0.074c0.01,0.034,0.023,0.069,0.044,0.1
		c0.409,0.607,0.935,1.051,1.677,1.198c0.682,0.136,1.366,0.12,2.051,0.063c1.014-0.084,2.012-0.264,3.007-0.47
		c0.44-0.091,0.877-0.212,1.332-0.208c0.173,0.001,0.346,0.003,0.52,0.02c0.162,0.016,0.33,0.009,0.491,0.033
		c0.272,0.041,0.543,0.089,0.813,0.139c0.571,0.104,1.127,0.262,1.679,0.433c0.565,0.177,1.128,0.368,1.681,0.585
		c0.522,0.204,1.049,0.399,1.573,0.602c0.344,0.134,0.682,0.284,1.029,0.407c0.394,0.139,0.798,0.248,1.206,0.335
		c0.288,0.062,0.578,0.112,0.869,0.153c0.217,0.029,0.436,0.047,0.65,0.081c0.237,0.037,0.477,0.041,0.714,0.064
		c0.263,0.025,0.527,0.011,0.791,0.012c0.502,0.003,1.004-0.001,1.505-0.034c0.258-0.017,0.513-0.065,0.77-0.095
		c0.451-0.052,0.895-0.144,1.337-0.238c0.952-0.204,1.847-0.569,2.728-0.974c0.564-0.259,1.142-0.488,1.729-0.687
		c0.646-0.218,1.299-0.402,1.978-0.501c0.396-0.058,0.793-0.077,1.19-0.111c0.156-0.014,0.314,0.02,0.47,0.019
		c0.29-0.003,0.573,0.044,0.857,0.082c0.268,0.036,0.535,0.086,0.803,0.135c0.461,0.084,0.913,0.196,1.365,0.312
		c0.367,0.095,0.732,0.199,1.104,0.274c0.34,0.069,0.683,0.13,1.03,0.151c0.224,0.013,0.446,0.057,0.671,0.048
		c0.149-0.006,0.3-0.012,0.449,0.001c0.068,0.005,0.144,0.016,0.206-0.004C66.907,56.521,67.064,56.578,67.173,56.524z
		 M52.293,47.565c-0.011-0.463-0.046-0.948-0.144-1.43c-0.211-1.047-0.688-1.949-1.435-2.709c-0.27-0.274-0.567-0.518-0.881-0.739
		c-0.495-0.35-0.941-0.76-1.429-1.119c-1.228-0.905-2.529-1.693-3.847-2.457c-1.231-0.714-2.487-1.387-3.708-2.122
		c-0.421-0.253-0.846-0.503-1.213-0.832c-0.757-0.681-1.469-1.405-2.121-2.187c-0.574-0.689-1.07-1.429-1.405-2.268
		c-0.249-0.622-0.426-1.269-0.619-1.908c-0.057-0.19-0.182-0.268-0.345-0.313c-0.19-0.055-0.319,0.016-0.406,0.193
		C34.66,29.836,34.69,30,34.721,30.163c0.104,0.568,0.332,1.092,0.57,1.613c0.393,0.856,0.808,1.703,1.369,2.465
		c1.158,1.573,2.552,2.896,4.225,3.918c1.098,0.671,2.203,1.329,3.3,2.003c1.439,0.886,2.85,1.812,4.146,2.905
		c0.4,0.338,0.781,0.687,1.059,1.135c0.545,0.882,0.837,1.843,0.901,2.874c0.042,0.684-0.067,1.342-0.354,1.969
		c-0.151,0.332-0.357,0.63-0.594,0.903c-0.128,0.148-0.249,0.307-0.403,0.434c-0.261,0.213-0.503,0.446-0.706,0.715
		c-0.086,0.115-0.149,0.244-0.155,0.401c-0.007,0.192,0.081,0.343,0.184,0.487c0.136,0.192,0.316,0.308,0.563,0.317
		c0.36,0.013,0.699-0.068,1.033-0.193c0.46-0.17,0.882-0.404,1.249-0.729c0.475-0.421,0.747-0.961,0.916-1.56
		C52.23,49.092,52.275,48.343,52.293,47.565z M62.652,51.401c0.117,0,0.207-0.009,0.298-0.057c0.304-0.156,0.383-0.541,0.328-0.839
		c-0.067-0.372-0.228-0.71-0.39-1.046c-0.495-1.021-1.068-2.006-1.513-3.054c-0.278-0.654-0.521-1.319-0.583-2.036
		c-0.031-0.354-0.026-0.71,0.12-1.037c0.354-0.784,0.817-1.5,1.4-2.134c0.626-0.679,1.361-1.218,2.15-1.689
		c0.533-0.318,1.082-0.612,1.603-0.95c0.694-0.452,1.333-0.979,1.926-1.561c0.33-0.323,0.641-0.664,0.935-1.021
		c0.498-0.605,0.947-1.241,1.253-1.968c0.159-0.379,0.289-0.768,0.235-1.191c-0.064-0.499-0.265-0.926-0.66-1.248
		c-0.532-0.432-1.113-0.793-1.691-1.158c-0.131-0.083-0.279-0.132-0.438-0.094c-0.166,0.039-0.217,0.161-0.162,0.327
		c0.059,0.178,0.181,0.303,0.323,0.402c0.271,0.191,0.555,0.362,0.829,0.548c0.319,0.217,0.631,0.445,0.862,0.76
		c0.136,0.185,0.229,0.393,0.205,0.628c-0.029,0.297-0.128,0.575-0.257,0.843c-0.359,0.745-0.886,1.372-1.442,1.972
		c-0.366,0.395-0.773,0.75-1.175,1.111c-0.336,0.303-0.706,0.545-1.095,0.764c-0.703,0.397-1.44,0.729-2.145,1.125
		c-0.749,0.42-1.467,0.886-2.123,1.441c-0.296,0.251-0.569,0.525-0.818,0.822c-0.323,0.384-0.609,0.793-0.831,1.245
		c-0.09,0.181-0.169,0.364-0.229,0.556c-0.091,0.281-0.147,0.569-0.183,0.864c-0.021,0.183-0.035,0.371-0.029,0.548
		c0.006,0.204,0.008,0.414,0.032,0.621c0.034,0.285,0.067,0.571,0.132,0.849c0.117,0.506,0.258,1.007,0.447,1.491
		c0.244,0.624,0.512,1.236,0.827,1.829c0.348,0.651,0.734,1.279,1.135,1.899C62.11,51.246,62.349,51.388,62.652,51.401z
		 M57.831,31.164c-0.187-0.008-0.45,0.008-0.714,0.021c-0.97,0.044-1.92,0.195-2.842,0.511c-0.705,0.242-1.318,0.622-1.813,1.185
		c-0.189,0.216-0.335,0.459-0.381,0.749c-0.018,0.115-0.016,0.231,0.099,0.305c0.087,0.055,0.211,0.02,0.318-0.082
		c0.109-0.104,0.222-0.204,0.326-0.312c0.718-0.742,1.599-1.161,2.611-1.325c0.911-0.146,1.823-0.103,2.732,0.005
		c1.024,0.12,2.04,0.304,3.068,0.388c0.566,0.045,1.133,0.061,1.699,0.019c0.381-0.028,0.727-0.152,1.059-0.33
		c0.784-0.42,1.447-0.98,1.972-1.703c0.126-0.173,0.229-0.359,0.299-0.562c0.122-0.354,0.02-0.589-0.323-0.799
		c-0.297-0.182-0.558-0.076-0.812,0.081c-0.391,0.243-0.728,0.556-1.074,0.855c-0.257,0.224-0.521,0.441-0.754,0.688
		c-0.245,0.257-0.544,0.374-0.878,0.427c-0.647,0.102-1.298,0.054-1.946,0.012C59.621,31.238,58.767,31.171,57.831,31.164z
		 M55.689,66.916c0.035,0.029,0.032,0.073,0.05,0.106c0.291,0.576,0.532,1.176,0.832,1.749c0.188,0.358,0.368,0.723,0.55,1.085
		c0.018,0.034,0.037,0.071,0.07,0.076c0.039,0.006,0.057-0.037,0.075-0.068c0.018-0.031,0.033-0.063,0.049-0.097
		c0.195-0.412,0.391-0.826,0.585-1.24c0.193-0.409,0.385-0.82,0.58-1.229c0.065-0.139,0.122-0.282,0.226-0.438
		c0.026,0.33,0.042,0.627,0.079,0.921c0.013,0.107,0.011,0.216,0.029,0.321c0.024,0.142,0.032,0.284,0.04,0.427
		c0.005,0.116,0.018,0.232,0.032,0.345c0.031,0.229,0.035,0.461,0.072,0.688c0.011,0.071,0.004,0.147-0.013,0.218
		c-0.024,0.101-0.008,0.129,0.092,0.133c0.581,0.021,1.161,0.007,1.742,0.015c0.041,0.001,0.088,0.018,0.116-0.029
		c-0.008-0.03-0.029-0.027-0.049-0.029c-0.17-0.017-0.202-0.057-0.168-0.221c0.065-0.314,0.201-0.608,0.293-0.915
		c0.021-0.067,0.069-0.058,0.115-0.058c0.26-0.001,0.521,0.003,0.78-0.002c0.078-0.002,0.106,0.039,0.129,0.099
		c0.103,0.271,0.209,0.542,0.304,0.816c0.027,0.078,0.109,0.164,0.058,0.242c-0.084,0.126,0.002,0.107,0.073,0.107
		c0.223-0.001,0.445-0.005,0.669-0.007c0.033,0,0.065,0.002,0.089-0.03c-0.053-0.064-0.13-0.024-0.193-0.045
		c-0.205-0.066-0.285-0.244-0.354-0.415c-0.279-0.698-0.544-1.4-0.815-2.102c-0.078-0.201-0.158-0.402-0.237-0.604
		c-0.014-0.035-0.026-0.07-0.074-0.063c-0.032,0.004-0.041,0.028-0.052,0.057c-0.116,0.322-0.236,0.644-0.353,0.965
		c-0.106,0.292-0.207,0.585-0.312,0.877c-0.11,0.302-0.224,0.602-0.335,0.902c-0.092,0.25-0.224,0.417-0.519,0.395
		c-0.312-0.023-0.48-0.135-0.526-0.41c-0.046-0.269-0.072-0.542-0.102-0.814c-0.037-0.337-0.069-0.674-0.104-1.012
		c-0.037-0.344-0.077-0.688-0.116-1.033c-0.025-0.232-0.049-0.465-0.077-0.697c-0.005-0.035-0.012-0.087-0.061-0.094
		c-0.053-0.007-0.062,0.039-0.079,0.076c-0.133,0.278-0.271,0.555-0.401,0.834c-0.198,0.423-0.391,0.849-0.586,1.272
		c-0.12,0.258-0.241,0.517-0.363,0.774c-0.072,0.155-0.148,0.309-0.233,0.484c-0.101-0.209-0.19-0.4-0.282-0.591
		c-0.271-0.555-0.54-1.109-0.812-1.665c-0.179-0.369-0.359-0.737-0.538-1.106c-0.021-0.043-0.04-0.083-0.098-0.066
		c-0.048,0.015-0.046,0.049-0.051,0.094c-0.01,0.099-0.02,0.197-0.029,0.297c-0.019,0.185-0.048,0.368-0.068,0.553
		c-0.021,0.186-0.032,0.372-0.053,0.558c-0.02,0.177-0.055,0.353-0.069,0.529c-0.018,0.205-0.047,0.408-0.066,0.613
		c-0.018,0.165-0.037,0.33-0.055,0.495c-0.021,0.185-0.015,0.376-0.056,0.556c-0.071,0.31-0.06,0.297-0.319,0.352
		c-0.031,0.006-0.088-0.021-0.083,0.038c0.003,0.055,0.059,0.032,0.087,0.029c0.306-0.02,0.609-0.015,0.914,0.002
		c0.048,0.003,0.098,0.005,0.127-0.059c-0.074-0.013-0.145-0.022-0.214-0.036c-0.106-0.021-0.167-0.073-0.17-0.194
		c-0.009-0.306,0.035-0.606,0.055-0.909c0.03-0.455,0.072-0.91,0.122-1.363C55.653,67.222,55.64,67.066,55.689,66.916z
		 M27.859,66.654c0.041,0.043,0.069,0.071,0.096,0.102c0.399,0.459,0.821,0.898,1.22,1.358c0.288,0.332,0.601,0.644,0.907,0.959
		c0.266,0.274,0.538,0.542,0.808,0.813c0.042,0.042,0.1,0.102,0.143,0.09c0.068-0.018,0.039-0.104,0.047-0.161
		c0.005-0.035,0.003-0.072,0.003-0.109c0.005-1.142,0.012-2.283,0.017-3.426c0.001-0.227,0.062-0.296,0.281-0.323
		c0.035-0.005,0.099,0.015,0.091-0.047c-0.005-0.042-0.06-0.03-0.094-0.028c-0.338,0.012-0.675,0.006-1.012-0.001
		c-0.042-0.001-0.087-0.005-0.132,0.042c0.096,0.053,0.194,0.038,0.285,0.056c0.124,0.024,0.183,0.076,0.222,0.204
		c0.043,0.141,0.029,0.286,0.034,0.426c0.032,0.828,0.043,1.657,0.059,2.486c0.001,0.027,0.021,0.064-0.007,0.079
		c-0.084-0.079-0.171-0.148-0.244-0.229c-0.574-0.639-1.159-1.269-1.748-1.895c-0.233-0.247-0.459-0.502-0.689-0.752
		c-0.135-0.146-0.271-0.291-0.406-0.437c-0.026-0.027-0.052-0.051-0.095-0.044c-0.05,0.009-0.031,0.051-0.033,0.078
		c-0.006,0.077-0.01,0.154-0.01,0.231c-0.004,1.044-0.007,2.089-0.012,3.133c0,0.114,0.003,0.228-0.019,0.341
		c-0.035,0.188-0.07,0.225-0.257,0.249c-0.023,0.004-0.049,0.005-0.072,0.008c-0.03,0.005-0.07-0.002-0.067,0.048
		c0.003,0.049,0.044,0.027,0.065,0.026c0.369-0.016,0.739-0.011,1.109,0.002c0.032,0.002,0.076,0.002,0.079-0.036
		c0.004-0.053-0.046-0.025-0.072-0.032c-0.012-0.003-0.025,0.001-0.037-0.001c-0.146-0.024-0.306-0.024-0.353-0.211
		c-0.018-0.07-0.036-0.14-0.039-0.213c-0.021-0.735-0.045-1.471-0.065-2.206C27.855,67.049,27.859,66.863,27.859,66.654z
		 M43.47,74.627c-0.556-0.601-1.105-1.194-1.655-1.788c-0.24-0.259-0.482-0.516-0.722-0.773c-0.041-0.042-0.067-0.125-0.136-0.097
		c-0.054,0.023-0.025,0.101-0.025,0.152c-0.003,0.812-0.003,1.626-0.006,2.439c0,0.125-0.001,0.251-0.016,0.376
		c-0.02,0.164-0.072,0.206-0.239,0.227c-0.026,0.003-0.075-0.021-0.077,0.03c-0.001,0.052,0.048,0.031,0.074,0.031
		c0.271,0.003,0.543,0.002,0.814,0.001c0.038,0,0.08,0.008,0.1-0.042c-0.042-0.031-0.089-0.021-0.131-0.024
		c-0.169-0.012-0.248-0.083-0.254-0.256c-0.027-0.71-0.051-1.42-0.074-2.131c-0.001-0.032-0.021-0.081,0.021-0.097
		c0.033-0.014,0.048,0.034,0.073,0.052c0.017,0.013,0.034,0.023,0.047,0.04c0.191,0.253,0.421,0.474,0.634,0.709
		c0.124,0.136,0.257,0.268,0.377,0.407c0.223,0.257,0.476,0.483,0.698,0.739c0.176,0.202,0.376,0.382,0.565,0.572
		c0.032,0.032,0.065,0.071,0.113,0.055c0.057-0.019,0.03-0.076,0.034-0.117c0.007-0.06,0.004-0.121,0.004-0.182
		c0.006-0.883,0.011-1.765,0.018-2.646c0.001-0.146,0.044-0.193,0.185-0.223c0.036-0.008,0.084,0.007,0.115-0.072
		c-0.334,0.039-0.655,0.002-0.989,0.01c0.039,0.073,0.09,0.05,0.13,0.061c0.105,0.029,0.242,0.013,0.271,0.162
		c0.018,0.094,0.026,0.189,0.029,0.285c0.016,0.666,0.029,1.332,0.042,1.999C43.491,74.557,43.504,74.59,43.47,74.627z
		 M71.267,69.343c-0.024-0.032-0.045-0.065-0.072-0.095c-0.432-0.467-0.864-0.933-1.297-1.399c-0.25-0.271-0.498-0.544-0.747-0.815
		c-0.099-0.107-0.198-0.214-0.297-0.321c-0.026-0.029-0.056-0.052-0.095-0.04c-0.048,0.014-0.019,0.057-0.019,0.082
		c-0.007,0.162-0.006,0.325-0.007,0.488c-0.007,0.802,0.013,1.605-0.02,2.407c-0.005,0.118-0.081,0.199-0.208,0.216
		c-0.035,0.005-0.078-0.009-0.107,0.032c0.099,0.042,0.926,0.033,0.984-0.008c-0.026-0.036-0.066-0.021-0.101-0.023
		c-0.187-0.011-0.273-0.076-0.28-0.259c-0.03-0.718-0.052-1.437-0.074-2.154c-0.001-0.024-0.019-0.062,0.021-0.072
		c0.026-0.007,0.041,0.021,0.057,0.038c0.12,0.135,0.237,0.271,0.359,0.403c0.29,0.317,0.579,0.637,0.876,0.949
		c0.34,0.357,0.688,0.709,1.034,1.062c0.052,0.053,0.106,0.144,0.18,0.116c0.074-0.027,0.038-0.13,0.038-0.198
		c0.009-0.914,0.013-1.828,0.019-2.743c0.002-0.149,0.062-0.213,0.211-0.22c0.036-0.002,0.074-0.003,0.075-0.037
		c0.001-0.048-0.049-0.033-0.076-0.031c-0.263,0.016-0.525,0.004-0.788-0.001c-0.037-0.001-0.074,0.002-0.099,0.037
		c0.007,0.008,0.014,0.019,0.021,0.025c0.026,0.021,0.056,0.002,0.082,0.002c0.175,0.002,0.238,0.054,0.291,0.222
		c0.027,0.088,0.025,0.176,0.027,0.264c0.016,0.658,0.028,1.316,0.04,1.975C71.297,69.27,71.309,69.299,71.267,69.343z
		 M44.839,69.928c-0.026-0.062-0.048-0.061-0.067-0.06c-0.246,0.003-0.325-0.065-0.335-0.347c-0.019-0.584-0.034-1.17-0.053-1.754
		c-0.003-0.113-0.012-0.227-0.017-0.34c-0.001-0.015,0.002-0.035,0.012-0.043c0.021-0.018,0.036,0.004,0.05,0.018
		c0.067,0.063,0.125,0.136,0.186,0.205c0.241,0.274,0.488,0.544,0.736,0.812c0.264,0.283,0.529,0.564,0.798,0.844
		c0.188,0.196,0.382,0.388,0.575,0.579c0.049,0.049,0.098,0.135,0.17,0.105c0.071-0.029,0.037-0.125,0.038-0.189
		c0.007-0.915,0.013-1.829,0.02-2.743c0.001-0.159,0.054-0.216,0.215-0.226c0.037-0.003,0.072-0.005,0.07-0.044
		c-0.002-0.038-0.044-0.027-0.069-0.025c-0.267,0.016-0.533,0.001-0.801,0c-0.032,0-0.089-0.016-0.09,0.031
		c0,0.049,0.055,0.03,0.089,0.031c0.236,0.011,0.305,0.077,0.322,0.315c0.003,0.036,0.004,0.072,0.005,0.109
		c0.015,0.683,0.029,1.365,0.043,2.047c0,0.024,0.019,0.059-0.026,0.073c-0.256-0.275-0.513-0.551-0.769-0.827
		c-0.212-0.229-0.421-0.462-0.632-0.69c-0.339-0.366-0.678-0.732-1.017-1.099c-0.026-0.028-0.056-0.052-0.095-0.038
		c-0.043,0.015-0.018,0.056-0.019,0.083c-0.02,0.957,0.014,1.914-0.026,2.871c-0.006,0.137-0.07,0.221-0.209,0.239
		c-0.035,0.004-0.079-0.012-0.122,0.065C44.171,69.911,44.496,69.926,44.839,69.928z M41.529,69.987
		c1.005,0.041,1.748-0.713,1.753-1.73c0.005-0.953-0.655-1.597-1.689-1.595c-1.035,0.002-1.626,0.745-1.654,1.612
		C39.906,69.251,40.55,69.993,41.529,69.987z M57.6,75.223c0.371,0.002,0.724,0.012,1.098-0.008
		c-0.064-0.067-0.121-0.056-0.172-0.056c-0.122-0.002-0.198-0.053-0.217-0.179c-0.036-0.25-0.031-0.501-0.033-0.752
		c-0.003-0.396-0.002-0.4,0.395-0.359c0.075,0.009,0.173-0.021,0.23,0.058c0.227,0.301,0.445,0.607,0.676,0.905
		c0.1,0.131,0.204,0.263,0.365,0.33c0.267,0.111,0.542,0.061,0.815,0.047c0.005,0,0.01-0.01,0.014-0.016
		c-0.006-0.006-0.011-0.015-0.018-0.017c-0.023-0.006-0.047-0.012-0.07-0.013c-0.223-0.002-0.402-0.099-0.557-0.251
		c-0.344-0.338-0.619-0.734-0.92-1.108c-0.044-0.055-0.012-0.075,0.02-0.104c0.143-0.134,0.267-0.282,0.353-0.459
		c0.186-0.382,0.133-0.759-0.15-1.006c-0.206-0.18-0.466-0.211-0.725-0.219c-0.348-0.012-0.696,0.028-1.045-0.001
		c-0.029-0.003-0.086-0.021-0.088,0.029c-0.001,0.056,0.056,0.025,0.086,0.033c0.098,0.024,0.217,0.022,0.245,0.146
		c0.019,0.08,0.032,0.163,0.031,0.248c-0.002,0.594-0.001,1.187,0.001,1.779c0.001,0.226,0.002,0.452-0.027,0.676
		c-0.022,0.17-0.079,0.25-0.223,0.238C57.66,75.162,57.634,75.166,57.6,75.223z M66.631,69.884
		c-0.465-0.095-0.497-0.104-0.724-0.345c-0.284-0.303-0.525-0.643-0.79-0.963c-0.072-0.088-0.074-0.144,0.019-0.212
		c0.051-0.038,0.087-0.095,0.129-0.145c0.188-0.224,0.307-0.483,0.278-0.775c-0.042-0.441-0.325-0.644-0.719-0.699
		c-0.439-0.062-0.884,0.001-1.325-0.024c-0.027-0.002-0.077-0.014-0.078,0.03c0,0.033,0.038,0.036,0.075,0.036
		c0.194,0,0.299,0.089,0.298,0.279c-0.003,0.871,0.05,1.742-0.032,2.612c-0.011,0.107-0.068,0.165-0.171,0.188
		c-0.029,0.006-0.089-0.02-0.081,0.038c0.007,0.044,0.062,0.025,0.095,0.023c0.272-0.017,0.544-0.009,0.816,0
		c0.038,0.001,0.108,0.025,0.108-0.03c-0.001-0.053-0.072-0.029-0.113-0.031c-0.18-0.007-0.224-0.046-0.248-0.223
		c-0.047-0.335-0.012-0.672-0.025-1.008c-0.003-0.065,0.031-0.073,0.083-0.071c0.117,0.003,0.236,0.012,0.354,0.003
		c0.097-0.008,0.162,0.032,0.216,0.104c0.237,0.317,0.471,0.639,0.713,0.952c0.101,0.129,0.221,0.25,0.389,0.284
		c0.223,0.044,0.45,0.02,0.675,0.021C66.595,69.929,66.62,69.923,66.631,69.884z M46.504,75.283
		c0.241-0.004,0.484,0.001,0.718-0.077c0.053-0.018,0.118-0.026,0.141-0.082c0.082-0.195,0.094-0.406,0.123-0.611
		c0.004-0.028-0.016-0.048-0.041-0.051c-0.03-0.002-0.018,0.031-0.029,0.044c-0.017,0.021-0.013,0.045-0.019,0.066
		c-0.045,0.163-0.109,0.306-0.272,0.397c-0.225,0.126-0.464,0.125-0.704,0.114c-0.473-0.021-0.853-0.23-1.126-0.609
		c-0.373-0.516-0.398-1.085-0.189-1.665c0.093-0.259,0.278-0.454,0.545-0.565c0.389-0.161,0.782-0.146,1.179-0.05
		c0.325,0.079,0.536,0.268,0.545,0.627c0,0.021-0.004,0.058,0.031,0.051c0.035-0.005,0.037-0.038,0.035-0.068
		c-0.011-0.153,0.015-0.307,0.021-0.46c0.003-0.08,0.03-0.173,0-0.236c-0.039-0.082-0.146-0.035-0.225-0.05
		c-0.003,0-0.007-0.002-0.012-0.003c-0.353-0.076-0.709-0.122-1.07-0.091c-0.453,0.04-0.864,0.165-1.173,0.544
		c-0.252,0.309-0.354,0.662-0.391,1.041c-0.02,0.2,0.032,0.399,0.09,0.595c0.125,0.429,0.396,0.731,0.783,0.937
		C45.788,75.251,46.143,75.291,46.504,75.283z M55.047,75.195c-0.016-0.01-0.027-0.022-0.042-0.025
		c-0.22-0.05-0.232-0.07-0.178-0.293c0.07-0.283,0.188-0.552,0.272-0.83c0.021-0.068,0.069-0.078,0.132-0.077
		c0.252,0.002,0.504,0.005,0.756-0.002c0.078-0.002,0.116,0.029,0.142,0.095c0.123,0.322,0.244,0.646,0.368,0.969
		c0.017,0.042,0.015,0.079-0.007,0.115c-0.012,0.02-0.066,0.01-0.042,0.055c0.015,0.028,0.044,0.03,0.074,0.03
		c0.23-0.003,0.463-0.003,0.693-0.007c0.032,0,0.091,0.021,0.093-0.023c0.004-0.061-0.061-0.036-0.095-0.04
		c-0.106-0.011-0.192-0.053-0.263-0.133c-0.071-0.079-0.123-0.17-0.162-0.266c-0.145-0.361-0.284-0.723-0.425-1.084
		c-0.207-0.538-0.413-1.075-0.622-1.612c-0.015-0.038-0.021-0.098-0.073-0.101c-0.057-0.003-0.062,0.058-0.077,0.096
		c-0.085,0.228-0.163,0.456-0.247,0.684c-0.173,0.469-0.348,0.937-0.521,1.405c-0.09,0.242-0.172,0.488-0.269,0.728
		c-0.066,0.164-0.181,0.281-0.376,0.284c-0.034,0.001-0.074-0.005-0.1,0.031C54.17,75.241,54.938,75.243,55.047,75.195z
		 M40.463,75.211c-0.025-0.046-0.055-0.049-0.082-0.049c-0.189,0.002-0.307-0.103-0.387-0.26c-0.042-0.083-0.084-0.165-0.117-0.251
		c-0.335-0.861-0.668-1.724-1.003-2.585c-0.016-0.04-0.02-0.107-0.085-0.102c-0.056,0.006-0.061,0.066-0.076,0.107
		c-0.126,0.342-0.25,0.685-0.374,1.027c-0.081,0.226-0.159,0.453-0.241,0.678c-0.112,0.311-0.226,0.619-0.342,0.928
		c-0.088,0.231-0.174,0.468-0.489,0.461c-0.02-0.001-0.042-0.001-0.042,0.028c0.001,0.039,0.032,0.03,0.054,0.03
		c0.202,0.001,0.405,0.004,0.606-0.003c0.093-0.003,0.191,0.03,0.285-0.02c-0.011-0.013-0.016-0.021-0.021-0.024
		c-0.016-0.006-0.03-0.01-0.047-0.013c-0.168-0.026-0.193-0.062-0.154-0.234c0.069-0.304,0.188-0.592,0.285-0.888
		c0.021-0.066,0.062-0.072,0.118-0.072c0.26,0,0.52,0.001,0.779-0.001c0.064-0.001,0.094,0.02,0.121,0.085
		c0.122,0.295,0.226,0.596,0.338,0.894c0.031,0.083,0.125,0.175-0.055,0.24c0.012,0.008,0.022,0.015,0.033,0.022
		C39.863,75.211,40.159,75.211,40.463,75.211z M32.733,69.891c-0.018-0.01-0.027-0.018-0.039-0.02
		c-0.213-0.029-0.235-0.062-0.184-0.274c0.07-0.289,0.192-0.562,0.275-0.846c0.018-0.06,0.057-0.079,0.119-0.077
		c0.175,0.003,0.35,0,0.524,0c0.353,0,0.354,0,0.47,0.322c0.091,0.252,0.204,0.495,0.276,0.754c0.007,0.025,0.03,0.042,0.007,0.075
		c-0.062,0.091-0.049,0.112,0.065,0.112c0.22,0,0.438-0.005,0.658-0.007c0.037-0.001,0.074-0.002,0.105-0.047
		c-0.026-0.007-0.041-0.016-0.056-0.016c-0.198,0.008-0.32-0.1-0.41-0.264c-0.104-0.191-0.174-0.396-0.253-0.597
		c-0.293-0.753-0.585-1.507-0.876-2.26c-0.014-0.034-0.017-0.076-0.063-0.076c-0.045,0-0.055,0.041-0.067,0.075
		c-0.11,0.294-0.223,0.587-0.331,0.882c-0.11,0.304-0.214,0.609-0.325,0.913c-0.107,0.294-0.23,0.582-0.332,0.878
		c-0.081,0.238-0.171,0.453-0.475,0.448c-0.017,0-0.035,0.001-0.038,0.021c-0.003,0.024,0.015,0.036,0.037,0.037
		c0.028,0.002,0.057,0.004,0.085,0.003c0.24-0.009,0.479-0.021,0.72-0.001C32.661,69.931,32.699,69.937,32.733,69.891z
		 M50.685,69.887c-0.061-0.04-0.123-0.016-0.181-0.032c-0.197-0.06-0.282-0.224-0.349-0.389c-0.237-0.591-0.463-1.185-0.691-1.777
		c-0.123-0.317-0.244-0.635-0.37-0.95c-0.009-0.024-0.015-0.069-0.059-0.066c-0.037,0.002-0.046,0.033-0.063,0.062
		c-0.044,0.081-0.061,0.171-0.092,0.256c-0.196,0.533-0.395,1.066-0.592,1.6c-0.121,0.327-0.235,0.657-0.362,0.981
		c-0.066,0.168-0.179,0.295-0.382,0.296c-0.034,0-0.074-0.005-0.092,0.039c0.11,0.034,0.907,0.018,0.953-0.02
		c-0.262-0.071-0.279-0.086-0.208-0.327c0.082-0.275,0.182-0.546,0.273-0.818c0.019-0.055,0.058-0.068,0.113-0.067
		c0.264,0.002,0.528,0.003,0.792-0.001c0.07-0.001,0.1,0.03,0.123,0.09c0.11,0.297,0.226,0.593,0.335,0.891
		c0.02,0.053,0.058,0.111,0.03,0.167c-0.054,0.11-0.054,0.118,0.073,0.117c0.215,0,0.43-0.005,0.645-0.007
		C50.618,69.93,50.656,69.936,50.685,69.887z M64.313,72.566c0.026-0.038,0.047-0.054,0.047-0.07
		c0.006-0.153,0.023-0.306,0.053-0.457c0.011-0.06-0.03-0.055-0.068-0.044c-0.111,0.03-0.225,0.029-0.339,0.03
		c-0.418,0.005-0.836,0.004-1.255-0.009c-0.037-0.002-0.105-0.03-0.108,0.03c-0.003,0.058,0.063,0.021,0.098,0.032
		c0.095,0.028,0.212,0.028,0.236,0.158c0.02,0.106,0.026,0.214,0.026,0.322c-0.001,0.586-0.006,1.171,0.003,1.756
		c0.003,0.203-0.018,0.403-0.031,0.604c-0.014,0.187-0.025,0.221-0.224,0.245c-0.024,0.003-0.048,0.006-0.062,0.031
		c0.026,0.044,0.07,0.03,0.108,0.03c0.341,0.003,0.681,0.006,1.021,0.008c0.167,0.001,0.333,0.002,0.5,0.001
		c0.049,0,0.1,0.002,0.12-0.06c0.053-0.168,0.075-0.339,0.07-0.522c-0.062,0.023-0.059,0.062-0.067,0.101
		c-0.056,0.243-0.211,0.304-0.37,0.308c-0.143,0.003-0.284,0.003-0.427-0.001c-0.184-0.006-0.276-0.094-0.278-0.276
		c-0.006-0.369,0-0.74-0.004-1.109c0-0.065,0.021-0.086,0.084-0.081c0.148,0.012,0.297,0.029,0.445,0.025
		c0.234-0.005,0.286,0.029,0.326,0.256c0.002,0.008,0.001,0.017,0.004,0.023c0.008,0.021,0.024,0.034,0.045,0.034
		c0.03-0.002,0.023-0.028,0.023-0.047c0.01-0.161,0.022-0.321,0.049-0.48c0.003-0.023,0.002-0.06-0.011-0.068
		c-0.023-0.017-0.054-0.005-0.074,0.021c-0.052,0.062-0.123,0.071-0.198,0.071c-0.199,0.003-0.397,0.003-0.597,0.01
		c-0.074,0.002-0.097-0.021-0.097-0.097c0.004-0.357,0.004-0.716,0-1.073c0-0.069,0.02-0.089,0.089-0.088
		c0.185,0.002,0.367,0.039,0.555,0.025c0.083-0.007,0.17,0.033,0.232,0.104C64.298,72.374,64.286,72.463,64.313,72.566z
		 M36.945,69.881c-0.048-0.008-0.071-0.014-0.095-0.015c-0.254-0.015-0.311-0.068-0.312-0.32c-0.005-0.85-0.005-1.699-0.01-2.548
		c0-0.075,0.021-0.101,0.097-0.095c0.204,0.015,0.41,0.006,0.616,0.027c0.188,0.02,0.3,0.088,0.349,0.273
		c0.005,0.019-0.001,0.045,0.026,0.047c0.033,0.003,0.039-0.023,0.04-0.048c0.002-0.09,0.003-0.18,0.003-0.269
		c0-0.073,0.025-0.164-0.009-0.215c-0.049-0.073-0.139,0.002-0.211,0.003c-0.662,0.011-1.325,0.01-1.987-0.001
		c-0.093-0.001-0.188,0.002-0.274-0.035c-0.09-0.038-0.107,0.004-0.125,0.079c-0.025,0.119-0.062,0.234-0.07,0.355
		c-0.003,0.029-0.061,0.058-0.013,0.081c0.05,0.023,0.069-0.024,0.083-0.063c0.066-0.175,0.209-0.22,0.375-0.224
		c0.207-0.006,0.415,0,0.622-0.013c0.107-0.007,0.124,0.03,0.124,0.128c-0.005,0.629-0.002,1.259-0.004,1.889
		c-0.001,0.199,0.007,0.4-0.017,0.597c-0.034,0.288-0.029,0.323-0.289,0.367c-0.002,0-0.002,0.007-0.004,0.01
		C35.926,69.933,36.849,69.935,36.945,69.881z M49.838,75.218c-0.073-0.075-0.138-0.056-0.195-0.06
		c-0.099-0.007-0.174-0.042-0.195-0.146c-0.015-0.071-0.031-0.144-0.031-0.215c-0.003-0.837-0.003-1.674-0.006-2.511
		c0-0.07,0.021-0.091,0.09-0.088c0.213,0.011,0.427,0.012,0.64,0.025c0.201,0.013,0.288,0.091,0.329,0.281
		c0.005,0.021,0,0.04,0.028,0.04c0.034,0.001,0.038-0.022,0.039-0.049c0.003-0.093,0.004-0.187,0.007-0.279
		c0.005-0.222,0.006-0.218-0.208-0.205c-0.629,0.036-1.259,0.015-1.888,0.011c-0.128,0-0.264,0.015-0.383-0.042
		c-0.087-0.041-0.104,0.009-0.129,0.064c-0.013,0.028-0.014,0.062-0.019,0.092c-0.021,0.123-0.083,0.242-0.049,0.377
		c0.016-0.009,0.023-0.011,0.029-0.016c0.007-0.009,0.016-0.02,0.02-0.03c0.076-0.212,0.247-0.262,0.448-0.263
		c0.187-0.001,0.374,0.003,0.561-0.007c0.098-0.006,0.13,0.017,0.129,0.122c-0.006,0.728-0.004,1.454-0.004,2.182
		c0,0.133-0.025,0.263-0.023,0.396c0.001,0.19-0.054,0.232-0.243,0.268c-0.021,0.003-0.038,0.011-0.052,0.055
		C49.097,75.229,49.455,75.229,49.838,75.218z M52.002,66.745c-0.015-0.013-0.021-0.021-0.026-0.021
		c-0.327-0.002-0.654-0.003-0.982-0.004c-0.027,0-0.062-0.003-0.057,0.042c0.005,0.037,0.033,0.021,0.057,0.021
		c0.228,0.015,0.293,0.076,0.303,0.306c0.004,0.098,0.007,0.195,0.005,0.293c-0.007,0.75,0.028,1.5-0.028,2.25
		c-0.01,0.141-0.062,0.214-0.183,0.234c-0.029,0.005-0.08-0.011-0.08,0.031c0.001,0.056,0.058,0.032,0.087,0.03
		c0.378-0.027,0.756,0.005,1.133,0.011c0.167,0.002,0.334-0.001,0.5,0.001c0.084,0.001,0.133-0.026,0.155-0.115
		c0.033-0.129,0.043-0.261,0.063-0.392c0.005-0.026,0.022-0.07-0.028-0.077c-0.059-0.009-0.033,0.041-0.039,0.066
		c-0.052,0.218-0.197,0.341-0.424,0.348c-0.143,0.005-0.285,0.002-0.427-0.002c-0.258-0.006-0.334-0.086-0.349-0.341
		c-0.041-0.735-0.015-1.471-0.019-2.206c-0.001-0.085,0.013-0.17,0.015-0.256c0.002-0.115,0.071-0.158,0.173-0.175
		C51.9,66.781,51.958,66.798,52.002,66.745z M66.675,69.888c0.054,0.058,0.104,0.043,0.15,0.04c0.26-0.017,0.52-0.01,0.778,0
		c0.033,0.001,0.066,0.002,0.098,0.001c0.022-0.001,0.054,0.006,0.052-0.032c-0.001-0.027-0.025-0.028-0.045-0.029
		c-0.041-0.001-0.081,0.001-0.122-0.003c-0.097-0.008-0.172-0.047-0.191-0.149c-0.015-0.079-0.027-0.16-0.028-0.24
		c-0.004-0.414-0.004-0.828-0.004-1.242c0-0.395,0.001-0.789,0.003-1.183c0.001-0.189,0.035-0.231,0.219-0.266
		c0.029-0.006,0.066-0.002,0.07-0.064c-0.312,0-0.617,0-0.924,0c-0.026,0-0.049,0.007-0.044,0.041
		c0.006,0.036,0.031,0.022,0.056,0.024c0.105,0.011,0.222,0.036,0.231,0.16c0.006,0.096,0.028,0.189,0.027,0.286
		c-0.003,0.786,0.016,1.572-0.021,2.357c-0.008,0.168-0.062,0.286-0.251,0.28C66.716,69.869,66.701,69.879,66.675,69.888z
		 M61.798,72.029c-0.333,0-0.66,0-0.996,0c0.02,0.04,0.043,0.044,0.068,0.048c0.186,0.026,0.241,0.078,0.259,0.288
		c0.006,0.065,0.01,0.13,0.01,0.195c0,0.654,0.002,1.309-0.003,1.963c0,0.151-0.013,0.306-0.036,0.455
		c-0.016,0.101-0.07,0.186-0.196,0.186c-0.024,0-0.076-0.021-0.068,0.038c0.006,0.041,0.047,0.022,0.07,0.022
		c0.304,0.002,0.607,0.002,0.911,0.001c0.031,0,0.062,0.003,0.077-0.034c-0.036-0.04-0.084-0.033-0.126-0.032
		c-0.192,0.008-0.249-0.097-0.253-0.239c-0.032-0.877-0.035-1.755-0.005-2.632c0.005-0.142,0.055-0.186,0.201-0.207
		C61.741,72.076,61.777,72.082,61.798,72.029z M39.213,66.756c-0.035-0.057-0.084-0.035-0.126-0.036c-0.24-0.001-0.479,0-0.719,0
		c-0.028,0-0.057-0.001-0.085,0.001c-0.024,0.001-0.055,0.014-0.054,0.036c0.001,0.021,0.027,0.032,0.056,0.033
		c0.222,0.013,0.243,0.07,0.263,0.26c0.011,0.101,0.012,0.202,0.01,0.304c-0.02,0.77,0.046,1.54-0.041,2.309
		c-0.013,0.121-0.062,0.184-0.176,0.204c-0.028,0.005-0.08-0.012-0.078,0.031c0.003,0.051,0.058,0.032,0.089,0.03
		c0.284-0.017,0.568-0.01,0.853,0.001c0.04,0.001,0.089,0.015,0.11-0.04c-0.03-0.03-0.064-0.021-0.096-0.022
		c-0.222-0.01-0.286-0.072-0.291-0.294c-0.019-0.8-0.021-1.6-0.007-2.399C38.927,66.861,38.93,66.862,39.213,66.756z M70.27,26.403
		c0.4,0.006,0.738-0.311,0.757-0.68c0.024-0.454-0.313-0.801-0.732-0.802c-0.443-0.001-0.742,0.323-0.752,0.738
		C69.532,26.043,69.823,26.403,70.27,26.403z"/>
	<path style="fill-rule:evenodd;clip-rule:evenodd;fill:#0293B0;" d="M25.611,51.622c0.123-0.028,0.239,0.006,0.355,0.042
		c0.378,0.117,0.737,0.278,1.089,0.454c0.537,0.27,1.104,0.34,1.693,0.298c0.896-0.064,1.757-0.312,2.625-0.515
		c1.045-0.245,2.098-0.443,3.175-0.466c1.236-0.026,2.431,0.191,3.594,0.608c1.363,0.49,2.744,0.924,4.152,1.268
		c0.654,0.16,1.312,0.304,1.979,0.403c0.49,0.074,0.982,0.13,1.479,0.158c0.476,0.028,0.95,0.035,1.425,0.013
		c0.881-0.042,1.745-0.205,2.59-0.463c0.891-0.272,1.749-0.632,2.622-0.954c0.313-0.115,0.646-0.162,0.973-0.235
		c0.484-0.109,0.972-0.205,1.462-0.281c0.367-0.058,0.735-0.106,1.106-0.138c0.485-0.043,0.971-0.075,1.457-0.066
		c1.388,0.025,2.729,0.272,3.995,0.859c0.52,0.24,1.066,0.366,1.633,0.434c0.583,0.069,1.168,0.078,1.75,0.04
		c1.233-0.08,2.439-0.308,3.591-0.772c0.563-0.228,1.085-0.539,1.597-0.868c0.434-0.279,0.839-0.596,1.269-0.881
		c0.141-0.094,0.288-0.177,0.455-0.219c0.039-0.01,0.08-0.021,0.113,0.019c0.031,0.038,0,0.073-0.014,0.101
		c-0.075,0.163-0.194,0.296-0.308,0.432c-0.502,0.599-1.106,1.071-1.776,1.467c-0.325,0.191-0.636,0.409-0.968,0.59
		c-0.216,0.118-0.456,0.192-0.688,0.28c-0.468,0.179-0.948,0.318-1.435,0.428c-0.336,0.076-0.677,0.135-1.019,0.185
		c-0.3,0.045-0.602,0.072-0.903,0.092c-0.355,0.023-0.714-0.006-1.071,0.001c-0.317,0.006-0.632-0.03-0.941-0.075
		c-0.515-0.073-1.025-0.174-1.525-0.325c-0.52-0.157-1.016-0.376-1.533-0.535c-0.257-0.08-0.519-0.139-0.782-0.185
		c-0.241-0.042-0.485-0.088-0.729-0.09c-0.297-0.002-0.594-0.074-0.892-0.007c-0.066,0.015-0.138,0.005-0.207,0.002
		c-0.189-0.007-0.375,0.023-0.562,0.045c-0.19,0.022-0.38,0.045-0.57,0.07c-0.353,0.049-0.697,0.12-1.042,0.203
		c-0.527,0.127-1.048,0.279-1.559,0.465c-0.538,0.195-1.071,0.401-1.591,0.645c-0.835,0.391-1.69,0.719-2.591,0.926
		c-0.384,0.089-0.771,0.152-1.161,0.206c-0.402,0.055-0.809,0.061-1.213,0.08c-0.271,0.014-0.538-0.006-0.806-0.014
		c-0.292-0.008-0.586-0.047-0.877-0.088c-0.305-0.044-0.608-0.095-0.911-0.151c-0.405-0.076-0.805-0.185-1.202-0.296
		c-0.328-0.092-0.652-0.197-0.972-0.314c-0.359-0.132-0.717-0.271-1.065-0.429c-1.668-0.754-3.373-1.393-5.195-1.658
		c-1.273-0.186-2.536-0.113-3.788,0.174c-0.748,0.172-1.5,0.325-2.265,0.396c-0.715,0.065-1.429,0.069-2.135-0.093
		c-0.76-0.174-1.396-0.55-1.885-1.165C25.611,51.688,25.611,51.654,25.611,51.622z"/>
	<path style="fill-rule:evenodd;clip-rule:evenodd;fill:#02548D;" d="M34.147,24.696c0.142,0.066,0.248,0.173,0.354,0.286
		c0.638,0.688,1.352,1.291,2.101,1.851c0.846,0.633,1.749,1.182,2.611,1.789c1.275,0.897,2.591,1.732,3.971,2.461
		c1.277,0.675,2.587,1.278,3.922,1.83c0.453,0.188,0.914,0.356,1.363,0.553c0.281,0.124,0.546,0.284,0.819,0.426
		c0.901,0.465,1.805,0.925,2.654,1.484c0.688,0.453,1.305,0.993,1.93,1.523c0.355,0.302,0.708,0.607,1.089,0.878
		c0.145,0.102,0.134,0.395-0.003,0.56c-0.153,0.187-0.468,0.166-0.719,0.021c-0.669-0.387-1.242-0.897-1.85-1.365
		c-0.465-0.358-0.995-0.608-1.523-0.86c-0.775-0.37-1.598-0.606-2.428-0.815c-1.514-0.379-2.986-0.874-4.419-1.495
		c-1.332-0.578-2.635-1.218-3.91-1.91c-0.432-0.233-0.808-0.559-1.188-0.869c-1.022-0.832-1.868-1.828-2.663-2.87
		c-0.646-0.847-1.298-1.688-2.059-2.438c-0.09-0.089-0.182-0.175-0.271-0.264c-0.035-0.034-0.069-0.069-0.098-0.109
		c-0.18-0.253-0.123-0.514,0.146-0.665C34.033,24.696,34.09,24.696,34.147,24.696z"/>
	<path style="fill-rule:evenodd;clip-rule:evenodd;fill:#02548D;" d="M35.293,75.304c-0.103-0.033-0.205-0.068-0.31-0.098
		c-0.114-0.032-0.185-0.085-0.175-0.223c0.015-0.196-0.016-0.395,0.025-0.59c0.008-0.034-0.005-0.083,0.044-0.083
		c0.048,0,0.046,0.048,0.045,0.083c-0.004,0.185,0.045,0.351,0.177,0.486c0.253,0.262,0.74,0.304,1.068,0.1
		c0.341-0.212,0.431-0.7,0.181-1.067c-0.14-0.205-0.335-0.359-0.525-0.518c-0.317-0.261-0.652-0.509-0.813-0.911
		c-0.15-0.373-0.098-0.795,0.188-1.093c0.14-0.146,0.323-0.221,0.521-0.256c0.303-0.055,0.603-0.016,0.903,0.026
		c0.155,0.021,0.173,0.09,0.16,0.214c-0.017,0.157,0.008,0.316-0.025,0.474c-0.005,0.022,0.003,0.052-0.03,0.056
		c-0.05,0.006-0.03-0.035-0.038-0.058c-0.044-0.128-0.037-0.274-0.16-0.372c-0.114-0.09-0.244-0.154-0.381-0.166
		c-0.174-0.015-0.354-0.035-0.524,0.046c-0.37,0.177-0.452,0.687-0.163,1.007c0.223,0.248,0.489,0.445,0.743,0.66
		c0.262,0.222,0.521,0.454,0.623,0.8c0.196,0.671-0.193,1.354-0.926,1.458c-0.019,0.003-0.041-0.005-0.046,0.024
		C35.667,75.304,35.48,75.304,35.293,75.304z"/>
	<path style="fill-rule:evenodd;clip-rule:evenodd;fill:#02548D;" d="M52.293,75.304c-0.137-0.054-0.285-0.06-0.423-0.117
		c-0.321-0.134-0.509-0.368-0.604-0.697c-0.063-0.216-0.07-0.434-0.071-0.653c-0.002-0.463-0.001-0.927-0.004-1.39
		c-0.003-0.28-0.05-0.33-0.326-0.37c-0.021-0.003-0.04-0.009-0.07-0.063c0.366,0.003,0.714,0.031,1.078-0.003
		c-0.033,0.088-0.085,0.067-0.123,0.073c-0.104,0.018-0.16,0.065-0.17,0.179c-0.025,0.28-0.015,0.561-0.015,0.841
		c0,0.374-0.01,0.747,0.019,1.12c0.028,0.383,0.276,0.754,0.603,0.859c0.488,0.156,1.066-0.087,1.187-0.679
		c0.04-0.196,0.067-0.394,0.065-0.595c-0.003-0.455,0-0.91-0.005-1.365c-0.003-0.289-0.036-0.322-0.327-0.368
		c-0.019-0.003-0.035-0.016-0.054-0.023c0.032-0.04,0.073-0.038,0.114-0.038c0.247,0.003,0.493,0.031,0.74,0.003
		c0.03-0.004,0.086-0.022,0.088,0.031c0.001,0.046-0.052,0.026-0.08,0.032c-0.156,0.028-0.206,0.09-0.207,0.268
		c-0.002,0.487,0.002,0.976-0.004,1.463c-0.003,0.209-0.021,0.42-0.078,0.623c-0.135,0.486-0.511,0.796-1.016,0.846
		c-0.025,0.002-0.059-0.015-0.073,0.024C52.455,75.304,52.374,75.304,52.293,75.304z"/>
	<path style="fill-rule:evenodd;clip-rule:evenodd;fill:#02548D;" d="M74.389,69.743c-0.05,0.211-0.207,0.2-0.378,0.2
		c-0.45,0-0.901-0.047-1.352-0.016c-0.023,0.001-0.072,0.029-0.071-0.03c0.001-0.047,0.041-0.025,0.065-0.03
		c0.163-0.032,0.185-0.08,0.203-0.262c0.074-0.745,0.021-1.491,0.035-2.236c0.002-0.114,0-0.229-0.013-0.342
		c-0.021-0.178-0.084-0.213-0.254-0.243c-0.038-0.007-0.108,0.026-0.104-0.037c0.003-0.054,0.074-0.026,0.113-0.026
		c0.427,0,0.854,0.004,1.279,0.006c0.105,0,0.211,0.006,0.314-0.024c0.033-0.01,0.069-0.016,0.063,0.038
		c-0.017,0.167-0.034,0.335-0.054,0.518c-0.062-0.034-0.054-0.078-0.059-0.113c-0.024-0.154-0.068-0.202-0.221-0.23
		c-0.213-0.04-0.43-0.02-0.645-0.027c-0.057-0.002-0.065,0.029-0.065,0.076c0,0.365,0.001,0.73-0.002,1.097
		c0,0.067,0.029,0.081,0.088,0.08c0.212-0.004,0.423-0.004,0.634-0.009c0.078-0.002,0.154-0.017,0.208-0.084
		c0.007-0.011,0.026-0.02,0.039-0.017c0.019,0.002,0.022,0.021,0.019,0.039c-0.044,0.179-0.032,0.362-0.058,0.543
		c-0.002,0.01-0.014,0.018-0.021,0.025c-0.044-0.018-0.03-0.055-0.033-0.085c-0.017-0.157-0.067-0.213-0.228-0.233
		c-0.189-0.024-0.381-0.015-0.571-0.021c-0.059-0.003-0.077,0.021-0.076,0.078c0.002,0.354-0.006,0.708,0.004,1.061
		c0.007,0.259,0.083,0.324,0.346,0.331c0.15,0.004,0.301,0.009,0.45-0.016c0.156-0.024,0.244-0.111,0.28-0.263
		c0.011-0.048-0.002-0.111,0.062-0.137C74.389,69.483,74.389,69.612,74.389,69.743z"/>
	<path style="fill-rule:evenodd;clip-rule:evenodd;fill:#02548D;" d="M65.731,75.304c-0.123-0.052-0.259-0.057-0.38-0.112
		c-0.066-0.029-0.102-0.066-0.109-0.138c-0.018-0.174,0.056-0.343,0.027-0.518c-0.005-0.023,0.01-0.036,0.036-0.036
		c0.035,0.001,0.035,0.025,0.035,0.05c-0.001,0.081,0.021,0.158,0.043,0.235c0.093,0.31,0.583,0.423,0.857,0.291
		c0.386-0.185,0.443-0.619,0.212-0.922c-0.157-0.206-0.375-0.341-0.559-0.516c-0.206-0.197-0.435-0.379-0.505-0.681
		c-0.125-0.527,0.143-0.95,0.722-0.996c0.22-0.017,0.435,0.024,0.65,0.053c0.06,0.009,0.069,0.043,0.064,0.094
		c-0.015,0.142-0.029,0.282-0.022,0.425c0.001,0.021,0.008,0.055-0.027,0.055c-0.022,0-0.038-0.02-0.045-0.048
		c-0.07-0.314-0.109-0.342-0.438-0.411c-0.12-0.026-0.229-0.025-0.342,0.014c-0.297,0.105-0.411,0.451-0.241,0.721
		c0.137,0.218,0.344,0.361,0.538,0.52c0.213,0.174,0.431,0.346,0.554,0.602c0.25,0.513-0.005,1.204-0.73,1.293
		c-0.032,0.004-0.075-0.019-0.097,0.026C65.894,75.304,65.812,75.304,65.731,75.304z"/>
	<path style="fill-rule:evenodd;clip-rule:evenodd;fill:#0293B0;" d="M65.751,60.658c-0.292,0.074-0.588,0.009-0.883,0.033
		c-0.17,0.015-0.341-0.03-0.511-0.046c-0.229-0.02-0.455-0.062-0.682-0.101c-0.29-0.049-0.575-0.118-0.859-0.193
		c-0.354-0.095-0.707-0.195-1.059-0.304c-0.396-0.125-0.796-0.241-1.198-0.345c-0.317-0.08-0.637-0.135-0.96-0.187
		c-0.258-0.04-0.518-0.06-0.775-0.061c-0.726-0.005-1.425,0.139-2.099,0.42c-0.893,0.372-1.739,0.835-2.604,1.264
		c-0.971,0.481-1.96,0.915-3.041,1.092c-0.409,0.066-0.818,0.098-1.232,0.093c-0.531-0.007-1.049-0.093-1.565-0.215
		c-0.598-0.14-1.163-0.364-1.717-0.621c-0.622-0.289-1.205-0.651-1.819-0.956c-0.528-0.262-1.061-0.518-1.615-0.719
		c-0.546-0.198-1.094-0.395-1.674-0.491c-0.26-0.043-0.517-0.099-0.781-0.119c-0.261-0.021-0.52-0.056-0.781-0.045
		c-0.601,0.023-1.19,0.116-1.771,0.274c-0.338,0.092-0.678,0.184-1.021,0.255c-0.232,0.048-0.474,0.033-0.712,0.03
		c-0.399-0.004-0.783-0.092-1.163-0.208c-0.555-0.171-1.083-0.401-1.569-0.722c-0.222-0.145-0.388-0.35-0.568-0.538
		c-0.093-0.096-0.156-0.22-0.24-0.325c-0.044-0.054-0.045-0.119-0.062-0.178c-0.014-0.045,0.039-0.077,0.095-0.079
		c0.105-0.004,0.2,0.033,0.293,0.073c0.394,0.17,0.743,0.414,1.105,0.638c0.35,0.216,0.732,0.342,1.142,0.391
		c0.749,0.088,1.476-0.058,2.202-0.201c0.603-0.119,1.203-0.251,1.812-0.328c0.464-0.059,0.931-0.083,1.397-0.052
		c0.743,0.047,1.453,0.247,2.151,0.491c0.788,0.277,1.554,0.61,2.324,0.93c0.967,0.402,1.94,0.788,2.962,1.029
		c0.729,0.173,1.467,0.251,2.215,0.177c0.512-0.052,0.997-0.208,1.48-0.372c0.934-0.318,1.844-0.693,2.761-1.05
		c0.814-0.318,1.636-0.62,2.485-0.832c0.509-0.127,1.023-0.217,1.548-0.262c0.714-0.061,1.414-0.003,2.095,0.212
		c0.458,0.146,0.904,0.328,1.356,0.488c0.636,0.226,1.283,0.415,1.945,0.544c0.606,0.118,1.221,0.165,1.836,0.122
		c0.628-0.043,1.233-0.193,1.811-0.455c0.418-0.189,0.807-0.424,1.17-0.699c0.195-0.148,0.381-0.313,0.562-0.484
		c0.256-0.241,0.505-0.496,0.825-0.659c0.035-0.019,0.069-0.037,0.112-0.039c0.136-0.009,0.185,0.045,0.148,0.18
		c-0.088,0.334-0.281,0.613-0.47,0.895c-0.416,0.619-0.98,1.064-1.641,1.399c-0.568,0.287-1.146,0.559-1.767,0.71
		c-0.256,0.062-0.518,0.109-0.781,0.128C65.894,60.646,65.827,60.696,65.751,60.658z"/>
	<path style="fill-rule:evenodd;clip-rule:evenodd;fill:#0293B0;" d="M67.173,56.524c-0.108,0.054-0.266-0.004-0.415,0.044
		c-0.062,0.02-0.138,0.009-0.206,0.004c-0.149-0.013-0.3-0.007-0.449-0.001c-0.225,0.009-0.447-0.035-0.671-0.048
		c-0.348-0.021-0.69-0.082-1.03-0.151c-0.372-0.075-0.737-0.18-1.104-0.274c-0.452-0.116-0.904-0.229-1.365-0.312
		c-0.268-0.049-0.535-0.099-0.803-0.135c-0.284-0.038-0.567-0.085-0.857-0.082c-0.155,0.001-0.313-0.032-0.47-0.019
		c-0.397,0.034-0.794,0.054-1.19,0.111c-0.679,0.099-1.332,0.283-1.978,0.501c-0.588,0.198-1.165,0.428-1.729,0.687
		c-0.881,0.404-1.775,0.77-2.728,0.974c-0.442,0.095-0.886,0.187-1.337,0.238c-0.257,0.029-0.512,0.078-0.77,0.095
		c-0.501,0.033-1.003,0.037-1.505,0.034c-0.264-0.001-0.528,0.014-0.791-0.012c-0.237-0.023-0.477-0.027-0.714-0.064
		c-0.215-0.034-0.434-0.052-0.65-0.081c-0.291-0.041-0.581-0.091-0.869-0.153c-0.408-0.087-0.812-0.196-1.206-0.335
		c-0.348-0.123-0.686-0.273-1.029-0.407c-0.524-0.202-1.051-0.397-1.573-0.602c-0.553-0.217-1.115-0.408-1.681-0.585
		c-0.552-0.171-1.107-0.328-1.679-0.433c-0.271-0.05-0.541-0.098-0.813-0.139c-0.161-0.024-0.329-0.018-0.491-0.033
		c-0.174-0.017-0.347-0.019-0.52-0.02c-0.455-0.004-0.892,0.117-1.332,0.208c-0.995,0.206-1.993,0.386-3.007,0.47
		c-0.685,0.057-1.369,0.072-2.051-0.063c-0.742-0.147-1.268-0.591-1.677-1.198c-0.021-0.03-0.034-0.065-0.044-0.1
		c-0.016-0.052,0.008-0.077,0.062-0.074c0.062,0.002,0.118,0.026,0.174,0.051c0.239,0.104,0.463,0.236,0.681,0.378
		c0.421,0.277,0.891,0.404,1.385,0.454c1.144,0.113,2.248-0.092,3.342-0.399c0.647-0.183,1.288-0.393,1.948-0.53
		c0.744-0.156,1.492-0.157,2.242-0.06c1.034,0.133,2.036,0.407,3.03,0.706c1.403,0.42,2.783,0.908,4.155,1.418
		c0.344,0.128,0.689,0.245,1.052,0.301c0.718,0.11,1.442,0.131,2.169,0.109c0.543-0.018,1.083-0.062,1.62-0.134
		c1.098-0.146,2.178-0.376,3.233-0.714c0.889-0.285,1.764-0.611,2.664-0.855c0.767-0.207,1.539-0.386,2.325-0.504
		c0.703-0.104,1.408-0.163,2.119-0.143c0.808,0.023,1.588,0.177,2.344,0.466c0.627,0.239,1.272,0.414,1.933,0.535
		c0.685,0.126,1.374,0.171,2.067,0.118c0.682-0.052,1.345-0.202,1.983-0.445c0.627-0.24,1.238-0.514,1.836-0.82
		c0.39-0.2,0.758-0.437,1.127-0.674c0.137-0.089,0.28-0.162,0.447-0.184c0.126-0.018,0.167,0.024,0.121,0.146
		c-0.067,0.176-0.191,0.315-0.31,0.458c-0.298,0.36-0.682,0.615-1.071,0.86c-0.565,0.356-1.165,0.643-1.79,0.88
		c-0.516,0.196-1.048,0.341-1.587,0.453C67.568,56.476,67.391,56.51,67.173,56.524z"/>
	<path style="fill-rule:evenodd;clip-rule:evenodd;fill:#02548D;" d="M52.293,47.565c-0.018,0.777-0.062,1.526-0.27,2.255
		c-0.169,0.599-0.441,1.139-0.916,1.56c-0.367,0.325-0.789,0.56-1.249,0.729c-0.334,0.125-0.673,0.206-1.033,0.193
		c-0.247-0.01-0.428-0.125-0.563-0.317c-0.103-0.145-0.19-0.295-0.184-0.487c0.006-0.157,0.069-0.286,0.155-0.401
		c0.203-0.269,0.445-0.502,0.706-0.715c0.154-0.127,0.275-0.285,0.403-0.434c0.236-0.273,0.442-0.571,0.594-0.903
		c0.286-0.627,0.396-1.285,0.354-1.969c-0.064-1.031-0.356-1.992-0.901-2.874c-0.277-0.448-0.658-0.797-1.059-1.135
		c-1.296-1.093-2.706-2.02-4.146-2.905c-1.097-0.674-2.202-1.332-3.3-2.003c-1.673-1.022-3.066-2.345-4.225-3.918
		c-0.562-0.762-0.977-1.608-1.369-2.465c-0.238-0.521-0.467-1.045-0.57-1.613c-0.03-0.163-0.061-0.327,0.021-0.488
		c0.087-0.178,0.216-0.248,0.406-0.193c0.163,0.046,0.288,0.123,0.345,0.313c0.193,0.64,0.37,1.286,0.619,1.908
		c0.335,0.839,0.831,1.578,1.405,2.268c0.652,0.781,1.364,1.506,2.121,2.187c0.367,0.329,0.792,0.579,1.213,0.832
		c1.221,0.735,2.477,1.408,3.708,2.122c1.317,0.764,2.619,1.552,3.847,2.457c0.487,0.359,0.934,0.77,1.429,1.119
		c0.313,0.222,0.611,0.465,0.881,0.739c0.746,0.76,1.224,1.662,1.435,2.709C52.247,46.617,52.282,47.103,52.293,47.565z"/>
	<path style="fill-rule:evenodd;clip-rule:evenodd;fill:#02548D;" d="M62.652,51.401c-0.304-0.014-0.542-0.155-0.724-0.438
		c-0.4-0.62-0.787-1.248-1.135-1.899c-0.315-0.593-0.583-1.205-0.827-1.829c-0.189-0.484-0.33-0.985-0.447-1.491
		c-0.064-0.277-0.098-0.563-0.132-0.849c-0.024-0.207-0.026-0.417-0.032-0.621c-0.006-0.177,0.008-0.365,0.029-0.548
		c0.035-0.295,0.092-0.583,0.183-0.864c0.061-0.191,0.14-0.375,0.229-0.556c0.222-0.452,0.508-0.861,0.831-1.245
		c0.249-0.297,0.522-0.571,0.818-0.822c0.656-0.556,1.374-1.021,2.123-1.441c0.704-0.396,1.441-0.728,2.145-1.125
		c0.389-0.219,0.759-0.461,1.095-0.764c0.401-0.361,0.809-0.717,1.175-1.111c0.557-0.6,1.083-1.227,1.442-1.972
		c0.129-0.268,0.228-0.546,0.257-0.843c0.023-0.235-0.069-0.443-0.205-0.628c-0.231-0.314-0.543-0.543-0.862-0.76
		c-0.274-0.186-0.559-0.356-0.829-0.548c-0.143-0.1-0.265-0.225-0.323-0.402c-0.055-0.166-0.004-0.288,0.162-0.327
		c0.159-0.038,0.308,0.011,0.438,0.094c0.578,0.365,1.159,0.727,1.691,1.158c0.396,0.322,0.596,0.749,0.66,1.248
		c0.054,0.424-0.076,0.812-0.235,1.191c-0.306,0.727-0.755,1.362-1.253,1.968c-0.294,0.357-0.604,0.698-0.935,1.021
		c-0.593,0.581-1.231,1.108-1.926,1.561c-0.521,0.338-1.069,0.632-1.603,0.95c-0.789,0.472-1.524,1.011-2.15,1.689
		c-0.583,0.634-1.046,1.35-1.4,2.134c-0.146,0.327-0.151,0.683-0.12,1.037c0.062,0.717,0.305,1.382,0.583,2.036
		c0.444,1.048,1.018,2.032,1.513,3.054c0.162,0.336,0.322,0.674,0.39,1.046c0.055,0.298-0.024,0.683-0.328,0.839
		C62.859,51.393,62.77,51.401,62.652,51.401z"/>
	<path style="fill-rule:evenodd;clip-rule:evenodd;fill:#02548D;" d="M57.831,31.164c0.936,0.007,1.79,0.074,2.646,0.13
		c0.648,0.042,1.299,0.09,1.946-0.012c0.334-0.053,0.633-0.17,0.878-0.427c0.233-0.247,0.497-0.465,0.754-0.688
		c0.347-0.3,0.684-0.612,1.074-0.855c0.255-0.157,0.516-0.263,0.812-0.081c0.343,0.21,0.445,0.444,0.323,0.799
		c-0.07,0.203-0.173,0.39-0.299,0.562c-0.524,0.723-1.188,1.283-1.972,1.703c-0.332,0.178-0.678,0.302-1.059,0.33
		c-0.566,0.042-1.133,0.026-1.699-0.019c-1.028-0.084-2.044-0.268-3.068-0.388c-0.909-0.107-1.821-0.151-2.732-0.005
		c-1.013,0.164-1.894,0.583-2.611,1.325c-0.104,0.108-0.217,0.209-0.326,0.312c-0.107,0.102-0.231,0.137-0.318,0.082
		c-0.114-0.073-0.116-0.189-0.099-0.305c0.046-0.29,0.191-0.533,0.381-0.749c0.495-0.562,1.108-0.942,1.813-1.185
		c0.922-0.315,1.872-0.467,2.842-0.511C57.381,31.172,57.645,31.156,57.831,31.164z"/>
	<path style="fill-rule:evenodd;clip-rule:evenodd;fill:#02548D;" d="M55.689,66.916c-0.05,0.15-0.036,0.306-0.052,0.457
		c-0.05,0.453-0.092,0.908-0.122,1.363c-0.02,0.303-0.063,0.604-0.055,0.909c0.003,0.121,0.063,0.174,0.17,0.194
		c0.069,0.014,0.14,0.023,0.214,0.036c-0.029,0.063-0.079,0.062-0.127,0.059c-0.305-0.017-0.608-0.021-0.914-0.002
		c-0.028,0.003-0.084,0.025-0.087-0.029c-0.005-0.059,0.052-0.032,0.083-0.038c0.26-0.055,0.248-0.042,0.319-0.352
		c0.041-0.18,0.034-0.371,0.056-0.556c0.018-0.165,0.037-0.33,0.055-0.495c0.02-0.205,0.049-0.408,0.066-0.613
		c0.015-0.177,0.05-0.353,0.069-0.529c0.021-0.186,0.032-0.372,0.053-0.558c0.021-0.185,0.05-0.368,0.068-0.553
		c0.01-0.1,0.02-0.198,0.029-0.297c0.005-0.045,0.003-0.079,0.051-0.094c0.058-0.017,0.077,0.023,0.098,0.066
		c0.179,0.369,0.359,0.737,0.538,1.106c0.271,0.556,0.541,1.11,0.812,1.665c0.092,0.19,0.182,0.382,0.282,0.591
		c0.085-0.176,0.161-0.329,0.233-0.484c0.122-0.258,0.243-0.517,0.363-0.774c0.195-0.424,0.388-0.85,0.586-1.272
		c0.131-0.279,0.269-0.556,0.401-0.834c0.018-0.037,0.026-0.083,0.079-0.076c0.049,0.007,0.056,0.059,0.061,0.094
		c0.028,0.232,0.052,0.465,0.077,0.697c0.039,0.345,0.079,0.689,0.116,1.033c0.035,0.338,0.067,0.675,0.104,1.012
		c0.029,0.272,0.056,0.546,0.102,0.814c0.046,0.275,0.215,0.387,0.526,0.41c0.295,0.022,0.427-0.145,0.519-0.395
		c0.111-0.301,0.225-0.601,0.335-0.902c0.105-0.292,0.206-0.585,0.312-0.877c0.116-0.321,0.236-0.643,0.353-0.965
		c0.011-0.028,0.02-0.053,0.052-0.057c0.048-0.007,0.061,0.028,0.074,0.063c0.079,0.201,0.159,0.402,0.237,0.604
		c0.271,0.701,0.536,1.403,0.815,2.102c0.068,0.171,0.148,0.349,0.354,0.415c0.063,0.021,0.141-0.02,0.193,0.045
		c-0.023,0.032-0.056,0.03-0.089,0.03c-0.224,0.002-0.446,0.006-0.669,0.007c-0.071,0-0.157,0.019-0.073-0.107
		c0.052-0.078-0.03-0.164-0.058-0.242c-0.095-0.274-0.201-0.545-0.304-0.816c-0.022-0.06-0.051-0.101-0.129-0.099
		c-0.26,0.005-0.521,0.001-0.78,0.002c-0.046,0-0.095-0.01-0.115,0.058c-0.092,0.307-0.228,0.601-0.293,0.915
		c-0.034,0.164-0.002,0.204,0.168,0.221c0.02,0.002,0.041-0.001,0.049,0.029c-0.028,0.047-0.075,0.03-0.116,0.029
		c-0.581-0.008-1.161,0.007-1.742-0.015c-0.1-0.004-0.116-0.032-0.092-0.133c0.017-0.07,0.023-0.146,0.013-0.218
		c-0.037-0.228-0.041-0.459-0.072-0.688c-0.015-0.112-0.027-0.229-0.032-0.345c-0.008-0.143-0.016-0.285-0.04-0.427
		c-0.019-0.105-0.017-0.214-0.029-0.321c-0.037-0.294-0.053-0.591-0.079-0.921c-0.104,0.156-0.16,0.3-0.226,0.438
		c-0.195,0.409-0.387,0.82-0.58,1.229c-0.194,0.414-0.39,0.828-0.585,1.24c-0.016,0.033-0.031,0.065-0.049,0.097
		c-0.019,0.031-0.036,0.074-0.075,0.068c-0.033-0.005-0.053-0.042-0.07-0.076c-0.182-0.362-0.361-0.727-0.55-1.085
		c-0.3-0.573-0.541-1.173-0.832-1.749C55.722,66.989,55.725,66.945,55.689,66.916z M61.48,67.308
		c-0.012,0.001-0.023,0.001-0.036,0.002c-0.125,0.384-0.249,0.769-0.375,1.152c-0.021,0.067,0.023,0.062,0.065,0.062
		c0.23,0,0.463-0.001,0.693,0.001c0.062,0,0.079-0.012,0.055-0.075c-0.06-0.159-0.114-0.32-0.17-0.48
		C61.635,67.748,61.558,67.527,61.48,67.308z"/>
	<path style="fill-rule:evenodd;clip-rule:evenodd;fill:#02548D;" d="M27.859,66.654c0,0.209-0.004,0.395,0.002,0.58
		c0.021,0.735,0.044,1.471,0.065,2.206c0.003,0.073,0.021,0.143,0.039,0.213c0.047,0.187,0.207,0.187,0.353,0.211
		c0.012,0.002,0.025-0.002,0.037,0.001c0.026,0.007,0.076-0.021,0.072,0.032c-0.003,0.038-0.047,0.038-0.079,0.036
		c-0.37-0.013-0.74-0.018-1.109-0.002c-0.021,0.001-0.062,0.022-0.065-0.026c-0.003-0.05,0.037-0.043,0.067-0.048
		c0.023-0.003,0.049-0.004,0.072-0.008c0.187-0.024,0.222-0.061,0.257-0.249c0.021-0.113,0.019-0.227,0.019-0.341
		c0.005-1.044,0.008-2.089,0.012-3.133c0-0.077,0.004-0.154,0.01-0.231c0.002-0.027-0.017-0.069,0.033-0.078
		c0.043-0.007,0.068,0.017,0.095,0.044c0.135,0.146,0.271,0.29,0.406,0.437c0.23,0.25,0.456,0.505,0.689,0.752
		c0.589,0.626,1.174,1.256,1.748,1.895c0.073,0.081,0.16,0.15,0.244,0.229c0.028-0.015,0.008-0.052,0.007-0.079
		c-0.016-0.829-0.026-1.658-0.059-2.486c-0.005-0.14,0.009-0.285-0.034-0.426c-0.039-0.128-0.098-0.18-0.222-0.204
		c-0.091-0.018-0.189-0.003-0.285-0.056c0.045-0.047,0.09-0.043,0.132-0.042c0.337,0.007,0.674,0.013,1.012,0.001
		c0.034-0.002,0.089-0.014,0.094,0.028c0.008,0.062-0.056,0.042-0.091,0.047c-0.219,0.027-0.28,0.097-0.281,0.323
		c-0.005,1.143-0.012,2.284-0.017,3.426c0,0.037,0.002,0.074-0.003,0.109c-0.008,0.058,0.021,0.144-0.047,0.161
		c-0.043,0.012-0.101-0.048-0.143-0.09c-0.27-0.271-0.542-0.539-0.808-0.813c-0.307-0.315-0.619-0.627-0.907-0.959
		c-0.398-0.46-0.82-0.899-1.22-1.358C27.929,66.726,27.9,66.697,27.859,66.654z"/>
	<path style="fill-rule:evenodd;clip-rule:evenodd;fill:#02548D;" d="M43.47,74.627c0.034-0.037,0.021-0.07,0.021-0.101
		c-0.013-0.667-0.026-1.333-0.042-1.999c-0.003-0.096-0.012-0.191-0.029-0.285c-0.029-0.149-0.166-0.133-0.271-0.162
		c-0.04-0.011-0.091,0.013-0.13-0.061c0.334-0.008,0.655,0.029,0.989-0.01c-0.031,0.079-0.079,0.064-0.115,0.072
		c-0.141,0.029-0.184,0.076-0.185,0.223c-0.007,0.882-0.012,1.764-0.018,2.646c0,0.061,0.003,0.122-0.004,0.182
		c-0.004,0.041,0.022,0.099-0.034,0.117c-0.048,0.017-0.081-0.022-0.113-0.055c-0.189-0.19-0.39-0.37-0.565-0.572
		c-0.223-0.256-0.476-0.482-0.698-0.739c-0.12-0.14-0.253-0.271-0.377-0.407c-0.213-0.235-0.442-0.456-0.634-0.709
		c-0.013-0.017-0.03-0.027-0.047-0.04c-0.025-0.018-0.04-0.065-0.073-0.052c-0.042,0.016-0.021,0.064-0.021,0.097
		c0.023,0.711,0.047,1.421,0.074,2.131c0.006,0.173,0.085,0.244,0.254,0.256c0.042,0.003,0.089-0.007,0.131,0.024
		c-0.02,0.05-0.062,0.042-0.1,0.042c-0.271,0.001-0.543,0.002-0.814-0.001c-0.026,0-0.075,0.021-0.074-0.031
		c0.002-0.051,0.051-0.027,0.077-0.03c0.167-0.021,0.22-0.062,0.239-0.227c0.015-0.125,0.016-0.251,0.016-0.376
		c0.003-0.813,0.003-1.627,0.006-2.439c0-0.052-0.028-0.129,0.025-0.152c0.068-0.028,0.095,0.055,0.136,0.097
		c0.239,0.258,0.481,0.515,0.722,0.773C42.364,73.433,42.914,74.026,43.47,74.627z"/>
	<path style="fill-rule:evenodd;clip-rule:evenodd;fill:#02548D;" d="M71.267,69.343c0.042-0.044,0.03-0.073,0.029-0.1
		c-0.012-0.658-0.024-1.316-0.04-1.975c-0.002-0.088,0-0.176-0.027-0.264c-0.053-0.168-0.116-0.22-0.291-0.222
		c-0.026,0-0.056,0.02-0.082-0.002c-0.008-0.007-0.015-0.018-0.021-0.025c0.024-0.035,0.062-0.038,0.099-0.037
		c0.263,0.005,0.525,0.017,0.788,0.001c0.027-0.002,0.077-0.017,0.076,0.031c-0.001,0.034-0.039,0.035-0.075,0.037
		c-0.149,0.007-0.209,0.07-0.211,0.22c-0.006,0.915-0.01,1.829-0.019,2.743c0,0.068,0.036,0.171-0.038,0.198
		c-0.073,0.027-0.128-0.063-0.18-0.116c-0.346-0.353-0.694-0.704-1.034-1.062c-0.297-0.312-0.586-0.632-0.876-0.949
		c-0.122-0.133-0.239-0.269-0.359-0.403c-0.016-0.017-0.03-0.045-0.057-0.038c-0.039,0.011-0.021,0.048-0.021,0.072
		c0.022,0.718,0.044,1.437,0.074,2.154c0.007,0.183,0.094,0.248,0.28,0.259c0.034,0.002,0.074-0.013,0.101,0.023
		c-0.059,0.041-0.886,0.05-0.984,0.008c0.029-0.041,0.072-0.027,0.107-0.032c0.127-0.017,0.203-0.098,0.208-0.216
		c0.032-0.802,0.013-1.605,0.02-2.407c0.001-0.163,0-0.326,0.007-0.488c0-0.025-0.029-0.068,0.019-0.082
		c0.039-0.012,0.068,0.011,0.095,0.04c0.099,0.107,0.198,0.214,0.297,0.321c0.249,0.271,0.497,0.544,0.747,0.815
		c0.433,0.467,0.865,0.933,1.297,1.399C71.222,69.277,71.242,69.311,71.267,69.343z"/>
	<path style="fill-rule:evenodd;clip-rule:evenodd;fill:#02548D;" d="M44.839,69.928c-0.343-0.002-0.668-0.017-1.018,0.004
		c0.043-0.077,0.087-0.062,0.122-0.065c0.139-0.019,0.203-0.103,0.209-0.239c0.04-0.957,0.007-1.914,0.026-2.871
		c0.001-0.027-0.024-0.068,0.019-0.083c0.039-0.014,0.068,0.01,0.095,0.038c0.339,0.366,0.678,0.732,1.017,1.099
		c0.211,0.229,0.42,0.461,0.632,0.69c0.256,0.276,0.513,0.552,0.769,0.827c0.045-0.015,0.026-0.049,0.026-0.073
		c-0.014-0.682-0.028-1.364-0.043-2.047c-0.001-0.037-0.002-0.073-0.005-0.109c-0.018-0.238-0.086-0.305-0.322-0.315
		c-0.034-0.001-0.089,0.018-0.089-0.031c0.001-0.047,0.058-0.031,0.09-0.031c0.268,0.001,0.534,0.016,0.801,0
		c0.025-0.002,0.067-0.013,0.069,0.025c0.002,0.039-0.033,0.041-0.07,0.044c-0.161,0.01-0.214,0.066-0.215,0.226
		c-0.007,0.914-0.013,1.828-0.02,2.743c-0.001,0.064,0.033,0.16-0.038,0.189c-0.072,0.029-0.121-0.057-0.17-0.105
		c-0.193-0.191-0.387-0.383-0.575-0.579c-0.269-0.279-0.534-0.561-0.798-0.844c-0.248-0.268-0.495-0.537-0.736-0.812
		c-0.061-0.069-0.118-0.142-0.186-0.205c-0.014-0.014-0.028-0.035-0.05-0.018c-0.01,0.008-0.013,0.028-0.012,0.043
		c0.005,0.113,0.014,0.227,0.017,0.34c0.019,0.584,0.034,1.17,0.053,1.754c0.01,0.281,0.089,0.35,0.335,0.347
		C44.791,69.867,44.812,69.866,44.839,69.928z"/>
	<path style="fill-rule:evenodd;clip-rule:evenodd;fill:#02548D;" d="M41.529,69.987c-0.979,0.006-1.623-0.736-1.591-1.713
		c0.028-0.867,0.619-1.61,1.654-1.612c1.034-0.002,1.694,0.642,1.689,1.595C43.277,69.274,42.534,70.028,41.529,69.987z
		 M42.877,68.378c0.001-0.409-0.101-0.77-0.295-1.049c-0.526-0.753-1.691-0.688-2.083,0.118c-0.087,0.181-0.133,0.374-0.146,0.573
		c-0.033,0.547,0.065,1.056,0.475,1.455c0.662,0.648,1.722,0.373,1.972-0.508C42.855,68.775,42.877,68.578,42.877,68.378z"/>
	<path style="fill-rule:evenodd;clip-rule:evenodd;fill:#02548D;" d="M57.6,75.223c0.034-0.057,0.061-0.061,0.084-0.058
		c0.144,0.012,0.2-0.068,0.223-0.238c0.029-0.224,0.028-0.45,0.027-0.676c-0.002-0.593-0.003-1.186-0.001-1.779
		c0.001-0.085-0.013-0.168-0.031-0.248c-0.028-0.123-0.147-0.121-0.245-0.146c-0.03-0.008-0.087,0.022-0.086-0.033
		c0.002-0.05,0.059-0.032,0.088-0.029c0.349,0.029,0.697-0.011,1.045,0.001c0.259,0.008,0.519,0.039,0.725,0.219
		c0.283,0.247,0.336,0.624,0.15,1.006c-0.086,0.177-0.21,0.325-0.353,0.459c-0.031,0.029-0.063,0.05-0.02,0.104
		c0.301,0.374,0.576,0.771,0.92,1.108c0.154,0.152,0.334,0.249,0.557,0.251c0.023,0.001,0.047,0.007,0.07,0.013
		c0.007,0.002,0.012,0.011,0.018,0.017c-0.004,0.006-0.009,0.016-0.014,0.016c-0.273,0.014-0.549,0.064-0.815-0.047
		c-0.161-0.067-0.266-0.199-0.365-0.33c-0.23-0.298-0.449-0.604-0.676-0.905c-0.058-0.079-0.155-0.049-0.23-0.058
		c-0.396-0.041-0.397-0.036-0.395,0.359c0.002,0.251-0.003,0.502,0.033,0.752c0.019,0.126,0.095,0.177,0.217,0.179
		c0.051,0,0.107-0.012,0.172,0.056C58.323,75.234,57.971,75.225,57.6,75.223z M58.274,72.916c0,0.142,0,0.283,0,0.426
		c0,0.356,0,0.356,0.358,0.389c0.395,0.036,0.608-0.122,0.678-0.509c0.015-0.083,0.02-0.17,0.017-0.254
		c-0.008-0.278-0.075-0.531-0.32-0.7c-0.201-0.14-0.429-0.125-0.657-0.1c-0.067,0.008-0.076,0.058-0.076,0.115
		C58.275,72.494,58.274,72.705,58.274,72.916z"/>
	<path style="fill-rule:evenodd;clip-rule:evenodd;fill:#02548D;" d="M66.631,69.884c-0.011,0.039-0.036,0.045-0.06,0.045
		c-0.225-0.002-0.452,0.022-0.675-0.021c-0.168-0.034-0.288-0.155-0.389-0.284c-0.242-0.313-0.476-0.635-0.713-0.952
		c-0.054-0.071-0.119-0.111-0.216-0.104c-0.117,0.009-0.236,0-0.354-0.003c-0.052-0.002-0.086,0.006-0.083,0.071
		c0.014,0.336-0.021,0.673,0.025,1.008c0.024,0.177,0.068,0.216,0.248,0.223c0.041,0.002,0.112-0.021,0.113,0.031
		c0,0.056-0.07,0.031-0.108,0.03c-0.272-0.009-0.544-0.017-0.816,0c-0.032,0.002-0.088,0.021-0.095-0.023
		c-0.008-0.058,0.052-0.032,0.081-0.038c0.103-0.022,0.16-0.08,0.171-0.188c0.082-0.87,0.029-1.741,0.032-2.612
		c0.001-0.19-0.104-0.279-0.298-0.279c-0.037,0-0.075-0.003-0.075-0.036c0.001-0.044,0.051-0.032,0.078-0.03
		c0.441,0.025,0.886-0.038,1.325,0.024c0.394,0.056,0.677,0.258,0.719,0.699c0.028,0.292-0.091,0.552-0.278,0.775
		c-0.042,0.05-0.078,0.106-0.129,0.145c-0.093,0.068-0.091,0.124-0.019,0.212c0.265,0.32,0.506,0.66,0.79,0.963
		C66.134,69.78,66.166,69.789,66.631,69.884z M64.144,67.63c0,0.207,0.005,0.414-0.003,0.621c-0.003,0.092,0.03,0.134,0.116,0.151
		c0.129,0.025,0.258,0.038,0.389,0.035c0.251-0.007,0.399-0.114,0.483-0.352c0.097-0.271,0.094-0.545-0.014-0.811
		c-0.104-0.256-0.303-0.396-0.58-0.414c-0.092-0.006-0.187,0.004-0.279,0.005c-0.088,0.001-0.117,0.042-0.114,0.13
		C64.147,67.207,64.144,67.418,64.144,67.63z"/>
	<path style="fill-rule:evenodd;clip-rule:evenodd;fill:#02548D;" d="M46.504,75.283c-0.361,0.008-0.716-0.032-1.041-0.203
		c-0.387-0.205-0.658-0.508-0.783-0.937c-0.058-0.195-0.109-0.395-0.09-0.595c0.037-0.379,0.139-0.732,0.391-1.041
		c0.309-0.379,0.72-0.504,1.173-0.544c0.361-0.031,0.718,0.015,1.07,0.091c0.005,0.001,0.009,0.003,0.012,0.003
		c0.078,0.015,0.186-0.032,0.225,0.05c0.03,0.063,0.003,0.156,0,0.236c-0.006,0.153-0.031,0.307-0.021,0.46
		c0.002,0.03,0,0.063-0.035,0.068c-0.035,0.007-0.031-0.029-0.031-0.051c-0.009-0.359-0.22-0.548-0.545-0.627
		c-0.396-0.097-0.79-0.111-1.179,0.05c-0.267,0.111-0.452,0.307-0.545,0.565c-0.209,0.58-0.184,1.149,0.189,1.665
		c0.273,0.379,0.653,0.589,1.126,0.609c0.24,0.011,0.479,0.012,0.704-0.114c0.163-0.092,0.228-0.234,0.272-0.397
		c0.006-0.021,0.002-0.046,0.019-0.066c0.012-0.013-0.001-0.046,0.029-0.044c0.025,0.003,0.045,0.022,0.041,0.051
		c-0.029,0.205-0.041,0.416-0.123,0.611c-0.022,0.056-0.088,0.064-0.141,0.082C46.988,75.284,46.745,75.279,46.504,75.283z"/>
	<path style="fill-rule:evenodd;clip-rule:evenodd;fill:#02548D;" d="M55.047,75.195c-0.108,0.048-0.877,0.046-0.967-0.002
		c0.025-0.036,0.065-0.03,0.1-0.031c0.195-0.003,0.31-0.12,0.376-0.284c0.097-0.239,0.179-0.485,0.269-0.728
		c0.173-0.469,0.348-0.937,0.521-1.405c0.084-0.228,0.162-0.456,0.247-0.684c0.015-0.038,0.021-0.099,0.077-0.096
		c0.053,0.003,0.059,0.062,0.073,0.101c0.209,0.537,0.415,1.074,0.622,1.612c0.141,0.361,0.28,0.723,0.425,1.084
		c0.039,0.096,0.091,0.187,0.162,0.266c0.07,0.08,0.156,0.122,0.263,0.133c0.034,0.004,0.099-0.021,0.095,0.04
		c-0.002,0.045-0.061,0.023-0.093,0.023c-0.23,0.004-0.463,0.004-0.693,0.007c-0.03,0-0.06-0.002-0.074-0.03
		c-0.024-0.045,0.03-0.035,0.042-0.055c0.021-0.036,0.023-0.073,0.007-0.115c-0.124-0.322-0.245-0.646-0.368-0.969
		c-0.025-0.065-0.063-0.097-0.142-0.095c-0.252,0.007-0.504,0.004-0.756,0.002c-0.062-0.001-0.111,0.009-0.132,0.077
		c-0.085,0.278-0.202,0.547-0.272,0.83c-0.055,0.223-0.042,0.243,0.178,0.293C55.02,75.173,55.031,75.186,55.047,75.195z
		 M55.616,72.601c-0.012,0.001-0.023,0.001-0.034,0.001c-0.127,0.389-0.255,0.776-0.381,1.164c-0.021,0.063,0.029,0.052,0.063,0.052
		c0.223,0,0.446-0.004,0.669,0.002c0.102,0.003,0.102-0.03,0.072-0.111c-0.093-0.251-0.178-0.504-0.267-0.756
		C55.698,72.835,55.657,72.718,55.616,72.601z"/>
	<path style="fill-rule:evenodd;clip-rule:evenodd;fill:#02548D;" d="M40.463,75.211c-0.304,0-0.6,0-0.896,0
		c-0.011-0.008-0.021-0.015-0.033-0.022c0.18-0.065,0.086-0.157,0.055-0.24c-0.112-0.298-0.216-0.599-0.338-0.894
		c-0.027-0.065-0.057-0.086-0.121-0.085c-0.26,0.002-0.52,0.001-0.779,0.001c-0.056,0-0.097,0.006-0.118,0.072
		c-0.098,0.296-0.216,0.584-0.285,0.888c-0.039,0.172-0.014,0.208,0.154,0.234c0.017,0.003,0.031,0.007,0.047,0.013
		c0.006,0.003,0.011,0.012,0.021,0.024c-0.094,0.05-0.192,0.017-0.285,0.02c-0.201,0.007-0.404,0.004-0.606,0.003
		c-0.021,0-0.053,0.009-0.054-0.03c0-0.029,0.022-0.029,0.042-0.028c0.315,0.007,0.401-0.229,0.489-0.461
		c0.116-0.309,0.229-0.617,0.342-0.928c0.082-0.225,0.16-0.452,0.241-0.678c0.124-0.343,0.248-0.686,0.374-1.027
		c0.016-0.041,0.021-0.102,0.076-0.107c0.065-0.006,0.069,0.062,0.085,0.102c0.335,0.861,0.668,1.724,1.003,2.585
		c0.033,0.086,0.075,0.168,0.117,0.251c0.08,0.157,0.197,0.262,0.387,0.26C40.408,75.162,40.438,75.165,40.463,75.211z
		 M38.719,72.578c-0.139,0.426-0.27,0.827-0.403,1.239c0.263,0,0.506-0.004,0.749,0.003c0.104,0.002,0.102-0.033,0.073-0.112
		c-0.105-0.289-0.205-0.58-0.309-0.87C38.801,72.76,38.785,72.675,38.719,72.578z"/>
	<path style="fill-rule:evenodd;clip-rule:evenodd;fill:#02548D;" d="M32.733,69.891c-0.034,0.046-0.072,0.04-0.106,0.037
		c-0.24-0.02-0.479-0.008-0.72,0.001c-0.028,0.001-0.057-0.001-0.085-0.003c-0.022-0.001-0.04-0.013-0.037-0.037
		c0.003-0.02,0.021-0.021,0.038-0.021c0.304,0.005,0.394-0.21,0.475-0.448c0.102-0.296,0.225-0.584,0.332-0.878
		c0.111-0.304,0.215-0.609,0.325-0.913c0.108-0.295,0.221-0.588,0.331-0.882c0.013-0.034,0.022-0.075,0.067-0.075
		c0.047,0,0.05,0.042,0.063,0.076c0.291,0.753,0.583,1.507,0.876,2.26c0.079,0.201,0.149,0.405,0.253,0.597
		c0.09,0.164,0.212,0.271,0.41,0.264c0.015,0,0.029,0.009,0.056,0.016c-0.031,0.045-0.068,0.046-0.105,0.047
		c-0.22,0.002-0.438,0.007-0.658,0.007c-0.114,0-0.127-0.021-0.065-0.112c0.023-0.033,0-0.05-0.007-0.075
		c-0.072-0.259-0.186-0.502-0.276-0.754c-0.116-0.322-0.117-0.322-0.47-0.322c-0.175,0-0.35,0.003-0.524,0
		c-0.062-0.002-0.102,0.018-0.119,0.077c-0.083,0.284-0.205,0.557-0.275,0.846c-0.052,0.212-0.029,0.245,0.184,0.274
		C32.706,69.873,32.716,69.881,32.733,69.891z M32.87,68.523c0.26,0,0.504-0.003,0.746,0.002c0.09,0.001,0.113-0.016,0.079-0.107
		c-0.125-0.343-0.242-0.688-0.364-1.031c-0.01-0.029-0.01-0.067-0.062-0.082C33.138,67.707,33.006,68.109,32.87,68.523z"/>
	<path style="fill-rule:evenodd;clip-rule:evenodd;fill:#02548D;" d="M50.685,69.887c-0.028,0.049-0.066,0.043-0.103,0.044
		c-0.215,0.002-0.43,0.007-0.645,0.007c-0.127,0.001-0.127-0.007-0.073-0.117c0.027-0.056-0.011-0.114-0.03-0.167
		c-0.109-0.298-0.225-0.594-0.335-0.891c-0.023-0.06-0.053-0.091-0.123-0.09c-0.264,0.004-0.528,0.003-0.792,0.001
		c-0.056-0.001-0.095,0.013-0.113,0.067c-0.092,0.272-0.191,0.543-0.273,0.818c-0.071,0.241-0.054,0.256,0.208,0.327
		c-0.046,0.037-0.843,0.054-0.953,0.02c0.018-0.044,0.058-0.039,0.092-0.039c0.203-0.001,0.315-0.128,0.382-0.296
		c0.127-0.324,0.241-0.654,0.362-0.981c0.197-0.533,0.396-1.066,0.592-1.6c0.031-0.085,0.048-0.175,0.092-0.256
		c0.018-0.029,0.026-0.061,0.063-0.062c0.044-0.003,0.05,0.042,0.059,0.066c0.126,0.315,0.247,0.633,0.37,0.95
		c0.229,0.593,0.454,1.187,0.691,1.777c0.066,0.165,0.151,0.329,0.349,0.389C50.562,69.871,50.624,69.847,50.685,69.887z
		 M48.955,67.285c-0.133,0.408-0.258,0.793-0.384,1.177c-0.023,0.071,0.021,0.062,0.062,0.062c0.22,0,0.439-0.004,0.658,0.002
		c0.096,0.002,0.12-0.016,0.083-0.113c-0.111-0.3-0.214-0.604-0.321-0.905C49.029,67.439,49.017,67.367,48.955,67.285z"/>
	<path style="fill-rule:evenodd;clip-rule:evenodd;fill:#02548D;" d="M64.313,72.566c-0.027-0.104-0.016-0.192-0.074-0.258
		c-0.062-0.07-0.149-0.11-0.232-0.104c-0.188,0.014-0.37-0.023-0.555-0.025c-0.069-0.001-0.089,0.019-0.089,0.088
		c0.004,0.357,0.004,0.716,0,1.073c0,0.075,0.022,0.099,0.097,0.097c0.199-0.007,0.397-0.007,0.597-0.01
		c0.075,0,0.146-0.009,0.198-0.071c0.021-0.025,0.051-0.037,0.074-0.021c0.013,0.009,0.014,0.045,0.011,0.068
		c-0.026,0.159-0.039,0.319-0.049,0.48c0,0.019,0.007,0.045-0.023,0.047c-0.021,0-0.037-0.014-0.045-0.034
		c-0.003-0.007-0.002-0.016-0.004-0.023c-0.04-0.227-0.092-0.261-0.326-0.256c-0.148,0.004-0.297-0.014-0.445-0.025
		c-0.062-0.005-0.084,0.016-0.084,0.081c0.004,0.369-0.002,0.74,0.004,1.109c0.002,0.183,0.095,0.271,0.278,0.276
		c0.143,0.004,0.284,0.004,0.427,0.001c0.159-0.004,0.314-0.064,0.37-0.308c0.009-0.039,0.005-0.077,0.067-0.101
		c0.005,0.184-0.018,0.354-0.07,0.522c-0.021,0.062-0.071,0.06-0.12,0.06c-0.167,0.001-0.333,0-0.5-0.001
		c-0.341-0.002-0.681-0.005-1.021-0.008c-0.038,0-0.082,0.014-0.108-0.03c0.014-0.025,0.037-0.028,0.062-0.031
		c0.198-0.024,0.21-0.059,0.224-0.245c0.014-0.2,0.034-0.4,0.031-0.604c-0.009-0.585-0.004-1.17-0.003-1.756
		c0-0.108-0.007-0.216-0.026-0.322c-0.024-0.13-0.142-0.13-0.236-0.158c-0.034-0.011-0.101,0.025-0.098-0.032
		c0.003-0.061,0.071-0.032,0.108-0.03c0.419,0.013,0.837,0.014,1.255,0.009c0.114-0.001,0.228,0,0.339-0.03
		c0.038-0.011,0.079-0.016,0.068,0.044c-0.029,0.151-0.047,0.304-0.053,0.457C64.36,72.513,64.34,72.528,64.313,72.566z"/>
	<path style="fill-rule:evenodd;clip-rule:evenodd;fill:#02548D;" d="M36.945,69.881c-0.097,0.054-1.02,0.052-1.085,0.012
		c0.002-0.003,0.002-0.01,0.004-0.01c0.26-0.044,0.255-0.079,0.289-0.367c0.023-0.196,0.016-0.397,0.017-0.597
		c0.002-0.63-0.001-1.26,0.004-1.889c0-0.098-0.017-0.135-0.124-0.128c-0.207,0.013-0.415,0.007-0.622,0.013
		c-0.166,0.004-0.309,0.049-0.375,0.224c-0.014,0.039-0.033,0.087-0.083,0.063c-0.048-0.023,0.01-0.052,0.013-0.081
		c0.009-0.121,0.045-0.236,0.07-0.355c0.018-0.075,0.035-0.117,0.125-0.079c0.087,0.037,0.182,0.034,0.274,0.035
		c0.662,0.011,1.325,0.012,1.987,0.001c0.072-0.001,0.162-0.076,0.211-0.003c0.034,0.051,0.009,0.142,0.009,0.215
		c0,0.089-0.001,0.179-0.003,0.269c-0.001,0.024-0.007,0.051-0.04,0.048c-0.027-0.002-0.021-0.028-0.026-0.047
		c-0.049-0.186-0.16-0.254-0.349-0.273c-0.206-0.021-0.412-0.013-0.616-0.027c-0.075-0.006-0.097,0.02-0.097,0.095
		c0.005,0.849,0.005,1.698,0.01,2.548c0.002,0.252,0.059,0.306,0.312,0.32C36.874,69.867,36.897,69.873,36.945,69.881z"/>
	<path style="fill-rule:evenodd;clip-rule:evenodd;fill:#02548D;" d="M49.838,75.218c-0.383,0.012-0.741,0.012-1.105,0.003
		c0.014-0.044,0.031-0.052,0.052-0.055c0.189-0.035,0.244-0.077,0.243-0.268c-0.002-0.133,0.023-0.263,0.023-0.396
		c0-0.728-0.002-1.454,0.004-2.182c0.001-0.105-0.031-0.128-0.129-0.122c-0.187,0.01-0.374,0.006-0.561,0.007
		c-0.201,0.001-0.372,0.051-0.448,0.263c-0.004,0.011-0.013,0.021-0.02,0.03c-0.006,0.005-0.014,0.007-0.029,0.016
		c-0.034-0.135,0.027-0.254,0.049-0.377c0.005-0.03,0.006-0.063,0.019-0.092c0.024-0.056,0.042-0.105,0.129-0.064
		c0.119,0.057,0.255,0.042,0.383,0.042c0.629,0.004,1.259,0.025,1.888-0.011c0.214-0.013,0.213-0.017,0.208,0.205
		c-0.003,0.093-0.004,0.187-0.007,0.279c-0.001,0.026-0.005,0.05-0.039,0.049c-0.028,0-0.023-0.019-0.028-0.04
		c-0.041-0.19-0.128-0.269-0.329-0.281c-0.213-0.014-0.427-0.015-0.64-0.025c-0.068-0.003-0.09,0.018-0.09,0.088
		c0.003,0.837,0.003,1.674,0.006,2.511c0,0.071,0.017,0.144,0.031,0.215c0.021,0.104,0.097,0.139,0.195,0.146
		C49.7,75.162,49.765,75.143,49.838,75.218z"/>
	<path style="fill-rule:evenodd;clip-rule:evenodd;fill:#02548D;" d="M52.002,66.745c-0.044,0.053-0.102,0.036-0.151,0.045
		c-0.102,0.017-0.171,0.06-0.173,0.175c-0.002,0.086-0.016,0.171-0.015,0.256c0.004,0.735-0.022,1.471,0.019,2.206
		c0.015,0.255,0.091,0.335,0.349,0.341c0.142,0.004,0.284,0.007,0.427,0.002c0.227-0.007,0.372-0.13,0.424-0.348
		c0.006-0.025-0.02-0.075,0.039-0.066c0.051,0.007,0.033,0.051,0.028,0.077c-0.021,0.131-0.03,0.263-0.063,0.392
		c-0.022,0.089-0.071,0.116-0.155,0.115c-0.166-0.002-0.333,0.001-0.5-0.001c-0.377-0.006-0.755-0.038-1.133-0.011
		c-0.029,0.002-0.086,0.025-0.087-0.03c0-0.042,0.051-0.026,0.08-0.031c0.12-0.021,0.173-0.094,0.183-0.234
		c0.057-0.75,0.021-1.5,0.028-2.25c0.002-0.098-0.001-0.195-0.005-0.293c-0.01-0.229-0.075-0.291-0.303-0.306
		c-0.023,0-0.052,0.016-0.057-0.021c-0.006-0.045,0.029-0.042,0.057-0.042c0.328,0.001,0.655,0.002,0.982,0.004
		C51.981,66.724,51.987,66.732,52.002,66.745z"/>
	<path style="fill-rule:evenodd;clip-rule:evenodd;fill:#02548D;" d="M66.675,69.888c0.026-0.009,0.041-0.019,0.055-0.019
		c0.189,0.006,0.243-0.112,0.251-0.28c0.036-0.785,0.018-1.571,0.021-2.357c0.001-0.097-0.021-0.19-0.027-0.286
		c-0.01-0.124-0.126-0.149-0.231-0.16c-0.024-0.002-0.05,0.012-0.056-0.024c-0.005-0.034,0.018-0.041,0.044-0.041
		c0.307,0,0.612,0,0.924,0c-0.004,0.062-0.041,0.059-0.07,0.064c-0.184,0.034-0.218,0.076-0.219,0.266
		c-0.002,0.394-0.003,0.788-0.003,1.183c0,0.414,0,0.828,0.004,1.242c0.001,0.08,0.014,0.161,0.028,0.24
		c0.02,0.103,0.095,0.142,0.191,0.149c0.041,0.004,0.081,0.002,0.122,0.003c0.02,0.001,0.044,0.002,0.045,0.029
		c0.002,0.038-0.029,0.031-0.052,0.032c-0.031,0.001-0.064,0-0.098-0.001c-0.259-0.01-0.519-0.017-0.778,0
		C66.779,69.931,66.729,69.945,66.675,69.888z"/>
	<path style="fill-rule:evenodd;clip-rule:evenodd;fill:#02548D;" d="M61.798,72.029c-0.021,0.053-0.057,0.047-0.087,0.052
		c-0.146,0.021-0.196,0.065-0.201,0.207c-0.03,0.877-0.027,1.755,0.005,2.632c0.004,0.143,0.061,0.247,0.253,0.239
		c0.042-0.001,0.09-0.008,0.126,0.032c-0.015,0.037-0.046,0.034-0.077,0.034c-0.304,0.001-0.607,0.001-0.911-0.001
		c-0.023,0-0.064,0.019-0.07-0.022c-0.008-0.059,0.044-0.038,0.068-0.038c0.126,0,0.181-0.085,0.196-0.186
		c0.023-0.149,0.036-0.304,0.036-0.455c0.005-0.654,0.003-1.309,0.003-1.963c0-0.065-0.004-0.13-0.01-0.195
		c-0.018-0.21-0.073-0.262-0.259-0.288c-0.025-0.004-0.049-0.008-0.068-0.048C61.138,72.029,61.465,72.029,61.798,72.029z"/>
	<path style="fill-rule:evenodd;clip-rule:evenodd;fill:#02548D;" d="M39.213,66.756c-0.283,0.106-0.286,0.105-0.292,0.417
		c-0.015,0.8-0.012,1.6,0.007,2.399c0.005,0.222,0.069,0.284,0.291,0.294c0.031,0.001,0.065-0.008,0.096,0.022
		c-0.021,0.055-0.07,0.041-0.11,0.04c-0.284-0.011-0.568-0.018-0.853-0.001c-0.031,0.002-0.086,0.021-0.089-0.03
		c-0.002-0.043,0.05-0.026,0.078-0.031c0.114-0.021,0.163-0.083,0.176-0.204c0.087-0.769,0.021-1.539,0.041-2.309
		c0.002-0.102,0.001-0.203-0.01-0.304c-0.02-0.189-0.041-0.247-0.263-0.26c-0.028-0.001-0.055-0.012-0.056-0.033
		c-0.001-0.022,0.029-0.035,0.054-0.036c0.028-0.002,0.057-0.001,0.085-0.001c0.239,0,0.479-0.001,0.719,0
		C39.129,66.721,39.178,66.699,39.213,66.756z"/>
	<path style="fill-rule:evenodd;clip-rule:evenodd;fill:#02548D;" d="M70.27,26.403c-0.446,0-0.737-0.36-0.728-0.743
		c0.01-0.415,0.309-0.739,0.752-0.738c0.419,0.001,0.757,0.348,0.732,0.802C71.008,26.093,70.67,26.409,70.27,26.403z
		 M70.294,26.256c0.317,0.001,0.576-0.261,0.58-0.584c0.004-0.333-0.262-0.604-0.589-0.602c-0.313,0.002-0.572,0.269-0.574,0.592
		C69.708,25.987,69.971,26.256,70.294,26.256z"/>
	<path style="fill-rule:evenodd;clip-rule:evenodd;fill:none;" d="M61.48,67.308c0.077,0.22,0.154,0.44,0.232,0.661
		c0.056,0.16,0.11,0.321,0.17,0.48c0.024,0.063,0.007,0.075-0.055,0.075c-0.23-0.002-0.463-0.001-0.693-0.001
		c-0.042,0-0.087,0.006-0.065-0.062c0.126-0.384,0.25-0.769,0.375-1.152C61.457,67.309,61.469,67.309,61.48,67.308z"/>
	<path style="fill-rule:evenodd;clip-rule:evenodd;fill:none;" d="M42.877,68.378c0,0.2-0.021,0.397-0.077,0.59
		c-0.25,0.881-1.31,1.156-1.972,0.508c-0.409-0.399-0.508-0.908-0.475-1.455c0.013-0.199,0.059-0.393,0.146-0.573
		c0.392-0.807,1.557-0.871,2.083-0.118C42.776,67.608,42.878,67.969,42.877,68.378z"/>
	<path style="fill-rule:evenodd;clip-rule:evenodd;fill:none;" d="M58.274,72.916c0-0.211,0.001-0.422-0.001-0.633
		c0-0.058,0.009-0.107,0.076-0.115c0.229-0.025,0.456-0.04,0.657,0.1c0.245,0.169,0.312,0.422,0.32,0.7
		c0.003,0.084-0.002,0.171-0.017,0.254c-0.069,0.387-0.283,0.545-0.678,0.509c-0.358-0.032-0.358-0.032-0.358-0.389
		C58.274,73.199,58.274,73.058,58.274,72.916z"/>
	<path style="fill-rule:evenodd;clip-rule:evenodd;fill:none;" d="M64.144,67.63c0-0.212,0.004-0.423-0.002-0.634
		c-0.003-0.088,0.026-0.129,0.114-0.13c0.093-0.001,0.188-0.011,0.279-0.005c0.277,0.019,0.476,0.158,0.58,0.414
		c0.107,0.266,0.11,0.54,0.014,0.811c-0.084,0.237-0.232,0.345-0.483,0.352c-0.131,0.003-0.26-0.01-0.389-0.035
		c-0.086-0.018-0.119-0.06-0.116-0.151C64.148,68.044,64.144,67.837,64.144,67.63z"/>
	<path style="fill-rule:evenodd;clip-rule:evenodd;fill:none;" d="M55.616,72.601c0.041,0.117,0.082,0.234,0.123,0.352
		c0.089,0.252,0.174,0.505,0.267,0.756c0.029,0.081,0.029,0.114-0.072,0.111c-0.223-0.006-0.446-0.002-0.669-0.002
		c-0.034,0-0.084,0.012-0.063-0.052c0.126-0.388,0.254-0.775,0.381-1.164C55.593,72.602,55.604,72.602,55.616,72.601z"/>
	<path style="fill-rule:evenodd;clip-rule:evenodd;fill:none;" d="M38.719,72.578c0.066,0.097,0.082,0.182,0.11,0.26
		c0.104,0.29,0.203,0.581,0.309,0.87c0.028,0.079,0.03,0.114-0.073,0.112c-0.243-0.007-0.486-0.003-0.749-0.003
		C38.449,73.405,38.58,73.004,38.719,72.578z"/>
	<path style="fill-rule:evenodd;clip-rule:evenodd;fill:none;" d="M32.87,68.523c0.136-0.414,0.268-0.816,0.398-1.219
		c0.053,0.015,0.053,0.053,0.062,0.082c0.122,0.343,0.239,0.688,0.364,1.031c0.034,0.092,0.011,0.108-0.079,0.107
		C33.374,68.521,33.13,68.523,32.87,68.523z"/>
	<path style="fill-rule:evenodd;clip-rule:evenodd;fill:none;" d="M48.955,67.285c0.062,0.082,0.074,0.154,0.098,0.222
		c0.107,0.302,0.21,0.605,0.321,0.905c0.037,0.098,0.013,0.115-0.083,0.113c-0.219-0.006-0.438-0.002-0.658-0.002
		c-0.04,0-0.085,0.01-0.062-0.062C48.697,68.078,48.822,67.693,48.955,67.285z"/>
	<path style="fill-rule:evenodd;clip-rule:evenodd;fill:none;" d="M70.294,26.256c-0.323,0-0.586-0.269-0.583-0.594
		c0.002-0.323,0.261-0.59,0.574-0.592c0.327-0.002,0.593,0.269,0.589,0.602C70.87,25.995,70.611,26.257,70.294,26.256z
		 M70.617,26.048c-0.041-0.1-0.081-0.196-0.122-0.292c-0.02-0.046-0.036-0.08,0.026-0.117c0.082-0.048,0.102-0.134,0.082-0.224
		c-0.018-0.091-0.085-0.136-0.169-0.156c-0.096-0.024-0.193-0.014-0.291-0.02c-0.074-0.005-0.099,0.019-0.097,0.095
		c0.005,0.212,0.004,0.423,0.001,0.634c-0.001,0.061,0.003,0.097,0.082,0.097c0.077-0.002,0.072-0.044,0.07-0.094
		c-0.001-0.058-0.001-0.114,0.001-0.171c0.001-0.033-0.016-0.078,0.044-0.083c0.047-0.003,0.086-0.001,0.104,0.058
		c0.017,0.058,0.051,0.111,0.066,0.169C70.442,26.044,70.495,26.089,70.617,26.048z"/>
	<path style="fill-rule:evenodd;clip-rule:evenodd;fill:#02548D;" d="M70.617,26.048c-0.122,0.041-0.175-0.004-0.202-0.104
		c-0.016-0.058-0.05-0.111-0.066-0.169c-0.018-0.059-0.057-0.061-0.104-0.058c-0.06,0.005-0.043,0.05-0.044,0.083
		c-0.002,0.057-0.002,0.113-0.001,0.171c0.002,0.05,0.007,0.092-0.07,0.094c-0.079,0-0.083-0.036-0.082-0.097
		c0.003-0.211,0.004-0.422-0.001-0.634c-0.002-0.076,0.022-0.1,0.097-0.095c0.098,0.006,0.195-0.005,0.291,0.02
		c0.084,0.021,0.151,0.065,0.169,0.156c0.02,0.09,0,0.176-0.082,0.224c-0.062,0.037-0.046,0.071-0.026,0.117
		C70.536,25.852,70.576,25.948,70.617,26.048z M70.2,25.507c-0.005,0.041-0.015,0.109,0.098,0.1
		c0.089-0.007,0.156-0.032,0.159-0.129c0.003-0.111-0.081-0.118-0.168-0.126C70.176,25.341,70.203,25.416,70.2,25.507z"/>
	<path style="fill-rule:evenodd;clip-rule:evenodd;fill:none;" d="M70.2,25.507c0.003-0.091-0.024-0.166,0.089-0.155
		c0.087,0.008,0.171,0.015,0.168,0.126c-0.003,0.097-0.07,0.122-0.159,0.129C70.186,25.616,70.195,25.548,70.2,25.507z"/>
</g>
</svg>
