<?xml version="1.0" encoding="utf-8"?>
<!-- Generator: Adobe Illustrator 21.0.0, SVG Export Plug-In . SVG Version: 6.00 Build 0)  -->
<svg version="1.1" id="Layer_1" xmlns="http://www.w3.org/2000/svg" xmlns:xlink="http://www.w3.org/1999/xlink" x="0px" y="0px"
	 viewBox="0 0 500 177" style="enable-background:new 0 0 500 177;" xml:space="preserve">
<style type="text/css">
	.st0{fill:#44596F;}
</style>
<title>wind-resources-3</title>
<path class="st0" d="M454.7,94.4h-14.1V80.2h14.1V94.4z M454.7,125.3h-14.1v-14.1h14.1V125.3z M431.2,155.4h-16.8v-33.6h16.8V155.4z
	 M405,94.4h-14.1V80.2H405V94.4z M405,125.3h-14.1v-14.2H405V125.3z M415.7,80.3h14.1v14.1h-14.1V80.3z M415.7,49.3h14.1v14.1h-14.1
	V49.3z M469.8,59.3h14.3l-61.3-44.5l-21,15.3v-9.3h-14v19.4l-26.3,19.1h14.3v95.5h-9.2V166h112.6v-11.1h-9.3L469.8,59.3z"/>
<polygon class="st0" points="33,157 24,114.1 15.9,157 22.8,157 22.8,166 26.2,166 26.2,157 "/>
<path class="st0" d="M61.3,146c0-6.4-5.2-11.6-11.6-11.6c-6.4,0-11.6,5.2-11.6,11.6c0,5.8,4.2,10.7,9.9,11.5v8.5h3.4v-8.6
	C57,156.6,61.2,151.7,61.3,146z"/>
<path class="st0" d="M200.5,125.6h-14.1v-14.1h14.1V125.6z M169.6,125.6h-14.1v-14.1h14.1V125.6z M132.6,155.7h-16.8v-33.6h16.8
	L132.6,155.7z M103,125.6H88.9v-14.1H103V125.6z M220,102.5h10.1L220,86.3h-53.6l-7.8-5.6V59.2h-14v11.3l-23.8-17.3L59.5,97.7h14.3
	v57.5h-9.2v11.1h163v-11.1H220V102.5z"/>
<path class="st0" d="M353.2,139.9H344v-9.2h9.2L353.2,139.9z M333.1,139.9h-9.2v-9.2h9.2V139.9z M313,139.9h-9.2v-9.2h9.2L313,139.9
	z M284.6,139.9h-9.2v-9.2h9.2V139.9z M267.1,159.5h-10.9v-21.8h10.9L267.1,159.5z M247.9,139.9h-9.2v-9.2h9.2V139.9z M367.5,124.9
	h6.5l-6.5-10.5h-78.4l-5-3.7V96.8H275v7.3l-15.5-11.2l-39.9,28.9h9.3v37.3h-6v7.2h149.5v-7.2h-4.9L367.5,124.9z"/>
</svg>
