<?xml version="1.0" encoding="utf-8"?>
<!-- Generator: Adobe Illustrator 21.0.0, SVG Export Plug-In . SVG Version: 6.00 Build 0)  -->
<svg version="1.1" id="Layer_1" xmlns="http://www.w3.org/2000/svg" xmlns:xlink="http://www.w3.org/1999/xlink" x="0px" y="0px"
	 viewBox="0 0 500 177" style="enable-background:new 0 0 500 177;" xml:space="preserve">
<style type="text/css">
	.st0{fill:#45596F;}
</style>
<title>wind-resources-1</title>
<path class="st0" d="M473.3,120.8h-16.1v-14.6h16.1L473.3,120.8z M473.3,157.1h-16.1v-14.5h16.1L473.3,157.1z M413.9,33.4h-16.1
	V18.9h16.1V33.4z M413.9,69.8h-16.1V55.3h16.1V69.8z M413.9,106.2h-16.1V91.6h16.1V106.2z M413.9,142.6h-16.1V128h16.1V142.6z
	 M382.6,33.4h-16.1V18.9h16.1V33.4z M382.6,69.8h-16.1V55.3h16.1V69.8z M382.6,106.2h-16.1V91.6h16.1V106.2z M382.6,142.6h-16.1V128
	h16.1V142.6z M348.9,106.2h-16.1V91.6h16.1L348.9,106.2z M348.9,142.6h-16.1V128h16.1L348.9,142.6z M317.6,69.8h-16.1V55.3h16.1
	L317.6,69.8z M317.6,106.2h-16.1V91.6h16.1L317.6,106.2z M317.6,142.6h-16.1V128h16.1L317.6,142.6z M278.4,149.8h-16.1v-14.6h16.1
	V149.8z M486.1,91.6H450V40.7h-21.7V4.3h-79.4v65.5h-14.5V40.7h-50.5v72.7h-36.1v58.2h238.3L486.1,91.6z"/>
<path class="st0" d="M241.9,164.4h-18.6v-14.6h18.6L241.9,164.4z M205.8,55.3h-18.6V40.7h18.6V55.3z M205.8,91.6h-18.6V77.1h18.6
	V91.6z M205.8,128h-18.6v-14.6h18.6V128z M205.8,164.4h-18.6v-14.6h18.6V164.4z M143.9,33.4h-16.1V18.9h16.1V33.4z M143.9,69.8
	h-16.1V55.3h16.1V69.8z M143.9,106.2h-16.1V91.6h16.1V106.2z M143.9,142.5h-16.1V128h16.1V142.5z M112.5,33.4H96.4V18.9h16.1V33.4z
	 M112.5,69.8H96.4V55.3h16.1V69.8z M112.5,106.2H96.4V91.6h16.1V106.2z M112.5,142.6H96.4V128h16.1V142.6z M78.9,128H60.3v-14.5
	h18.6V128z M78.9,164.4H60.3v-14.5h18.6V164.4z M42.8,128H24.2v-14.5h18.6V128z M42.8,164.4H24.2v-14.5h18.6V164.4z M252.2,128
	h-28.9V26.2h-50.5v43.6h-21.7V4.3h-65v36.4H50v58.2H13.9v72.8h238.3V128z"/>
</svg>
